<svg width="1440" height="953" viewBox="0 0 1440 953" fill="none" xmlns="http://www.w3.org/2000/svg">
<g clip-path="url(#clip0_5831_53)">
<rect width="1440" height="953" fill="#1F3131"/>
<g opacity="0.7">
<g opacity="0.5">
<mask id="mask0_5831_53" style="mask-type:luminance" maskUnits="userSpaceOnUse" x="-360" y="570" width="1825" height="392">
<mask id="path-1-inside-1_5831_53" fill="white">
<path d="M1464.16 961.298C1420.55 703.31 1332.59 671.474 1274.92 665.205C1258.51 663.433 1245.73 670.247 1225.01 664.823C1200.15 658.309 1177.01 641.164 1151.93 635.712C1121.21 629.034 1096.9 643.481 1068.88 646.506C1016.17 652.23 963.751 616.169 919.567 596.98C872.685 576.646 822.232 558.466 772.651 579.399C729.476 597.634 684.365 610.609 632.522 608.537C602.567 607.338 577.845 592.919 548.353 590.493C510.847 587.413 478.956 601.696 443.903 607.638C382.684 617.995 325.035 581.362 261.935 578.582C226.828 577.028 185.915 575.093 152.007 582.398C122.679 588.721 97.7384 606.684 68.328 612.244C36.2737 618.322 2.80188 606.029 -29.7976 613.443C-63.5419 621.13 -89.3269 643.481 -121.272 655.828C-201.762 686.983 -382.068 845.619 -356.61 961.271"/>
</mask>
<path d="M1464.16 961.298C1420.55 703.31 1332.59 671.474 1274.92 665.205C1258.51 663.433 1245.73 670.247 1225.01 664.823C1200.15 658.309 1177.01 641.164 1151.93 635.712C1121.21 629.034 1096.9 643.481 1068.88 646.506C1016.17 652.23 963.751 616.169 919.567 596.98C872.685 576.646 822.232 558.466 772.651 579.399C729.476 597.634 684.365 610.609 632.522 608.537C602.567 607.338 577.845 592.919 548.353 590.493C510.847 587.413 478.956 601.696 443.903 607.638C382.684 617.995 325.035 581.362 261.935 578.582C226.828 577.028 185.915 575.093 152.007 582.398C122.679 588.721 97.7384 606.684 68.328 612.244C36.2737 618.322 2.80188 606.029 -29.7976 613.443C-63.5419 621.13 -89.3269 643.481 -121.272 655.828C-201.762 686.983 -382.068 845.619 -356.61 961.271" fill="white"/>
<path d="M1274.92 665.205L1275.13 663.216L1275.13 663.216L1274.92 665.205ZM1225.01 664.823L1224.5 666.758L1224.5 666.758L1225.01 664.823ZM1151.93 635.712L1152.36 633.758L1151.93 635.712ZM1068.88 646.506L1068.67 644.518L1068.67 644.518L1068.88 646.506ZM919.567 596.98L920.363 595.145L920.364 595.146L919.567 596.98ZM772.651 579.399L771.873 577.557L771.873 577.557L772.651 579.399ZM632.522 608.537L632.442 610.536L632.442 610.536L632.522 608.537ZM548.353 590.493L548.516 588.5L548.517 588.5L548.353 590.493ZM443.903 607.638L444.238 609.61L444.237 609.61L443.903 607.638ZM261.935 578.582L261.847 580.58L261.847 580.58L261.935 578.582ZM152.007 582.398L151.586 580.443L151.586 580.442L152.007 582.398ZM68.328 612.244L67.9553 610.279L67.9564 610.279L68.328 612.244ZM-29.7976 613.443L-30.2417 611.493L-30.2411 611.493L-29.7976 613.443ZM-121.272 655.828L-121.994 653.963L-121.993 653.963L-121.272 655.828ZM1464.16 961.298L1462.19 961.632C1440.41 832.795 1407.61 760.746 1373.29 720.148C1339.06 679.66 1303.2 670.29 1274.7 667.193L1274.92 665.205L1275.13 663.216C1304.32 666.388 1341.27 676.071 1376.34 717.566C1411.33 758.95 1444.3 831.813 1466.14 960.965L1464.16 961.298ZM1274.92 665.205L1274.7 667.193C1266.77 666.337 1259.78 667.552 1251.78 668.373C1243.84 669.189 1235.19 669.556 1224.5 666.758L1225.01 664.823L1225.52 662.888C1235.54 665.514 1243.65 665.187 1251.37 664.394C1259.05 663.607 1266.66 662.301 1275.13 663.216L1274.92 665.205ZM1225.01 664.823L1224.5 666.758C1211.85 663.442 1199.66 657.428 1187.69 651.672C1175.64 645.878 1163.78 640.335 1151.51 637.667L1151.93 635.712L1152.36 633.758C1165.16 636.541 1177.42 642.297 1189.42 648.067C1201.5 653.874 1213.31 659.69 1225.52 662.888L1225.01 664.823ZM1151.93 635.712L1151.51 637.667C1136.57 634.42 1123.16 636.29 1109.85 639.417C1096.67 642.517 1083.27 646.965 1069.1 648.495L1068.88 646.506L1068.67 644.518C1082.52 643.022 1095.28 638.735 1108.94 635.524C1122.48 632.341 1136.57 630.327 1152.36 633.758L1151.93 635.712ZM1068.88 646.506L1069.1 648.495C1042.23 651.412 1015.57 643.672 990.244 632.927C977.57 627.55 965.176 621.395 953.228 615.407C941.258 609.408 929.754 603.585 918.77 598.815L919.567 596.98L920.364 595.146C931.471 599.97 943.088 605.851 955.02 611.831C966.974 617.822 979.263 623.923 991.806 629.244C1016.91 639.896 1042.81 647.325 1068.67 644.518L1068.88 646.506ZM919.567 596.98L918.771 598.815C871.834 578.458 822.137 560.677 773.429 581.242L772.651 579.399L771.873 577.557C822.326 556.255 873.535 574.835 920.363 595.145L919.567 596.98ZM772.651 579.399L773.429 581.242C730.104 599.54 684.687 612.623 632.442 610.536L632.522 608.537L632.602 606.539C684.044 608.594 728.848 595.728 771.873 577.557L772.651 579.399ZM632.522 608.537L632.442 610.536C617.184 609.925 603.293 605.946 589.692 601.892C576.031 597.819 562.687 593.679 548.189 592.486L548.353 590.493L548.517 588.5C563.51 589.733 577.274 594.015 590.835 598.058C604.457 602.119 617.906 605.95 632.602 606.539L632.522 608.537ZM548.353 590.493L548.189 592.486C529.736 590.971 512.62 593.721 495.657 597.631C478.802 601.516 461.826 606.628 444.238 609.61L443.903 607.638L443.569 605.666C461.034 602.705 477.529 597.705 494.759 593.733C511.882 589.786 529.463 586.935 548.516 588.5L548.353 590.493ZM443.903 607.638L444.237 609.61C413.157 614.868 383.066 608.181 353.096 599.965C323.006 591.716 293.11 581.957 261.847 580.58L261.935 578.582L262.023 576.584C293.86 577.986 324.339 587.934 354.153 596.108C384.087 604.314 413.43 610.765 443.57 605.666L443.903 607.638ZM261.935 578.582L261.847 580.58C226.665 579.023 186.033 577.113 152.428 584.353L152.007 582.398L151.586 580.442C185.797 573.072 226.99 575.033 262.023 576.584L261.935 578.582ZM152.007 582.398L152.429 584.353C137.999 587.464 124.623 593.443 111.004 599.438C97.4498 605.403 83.6622 611.38 68.6995 614.209L68.328 612.244L67.9564 610.279C82.4041 607.547 95.7917 601.763 109.393 595.777C122.928 589.819 136.686 583.655 151.586 580.443L152.007 582.398ZM68.328 612.244L68.7006 614.209C52.3529 617.309 35.6802 615.717 19.3016 614.336C2.82007 612.946 -13.3994 611.765 -29.354 615.394L-29.7976 613.443L-30.2411 611.493C-13.5962 607.708 3.21985 608.966 19.6376 610.35C36.1584 611.743 52.2488 613.257 67.9553 610.279L68.328 612.244ZM-29.7976 613.443L-29.3534 615.393C-45.9347 619.17 -60.6104 626.561 -75.2428 634.639C-89.8121 642.682 -104.414 651.456 -120.551 657.694L-121.272 655.828L-121.993 653.963C-106.185 647.852 -91.9218 639.278 -77.1761 631.137C-62.4937 623.031 -47.4047 615.403 -30.2417 611.493L-29.7976 613.443ZM-121.272 655.828L-120.55 657.693C-160.401 673.118 -225.351 720.327 -277.182 778.198C-303.075 807.108 -325.609 838.588 -340.081 869.974C-354.56 901.373 -360.894 932.509 -354.657 960.841L-356.61 961.271L-358.563 961.701C-365.056 932.207 -358.398 900.144 -343.714 868.299C-329.023 836.439 -306.224 804.628 -280.162 775.529C-228.081 717.38 -162.634 669.693 -121.994 653.963L-121.272 655.828Z" fill="white" mask="url(#path-1-inside-1_5831_53)"/>
</mask>
<g mask="url(#mask0_5831_53)">
<path d="M1856.69 416.593L2701.25 1105.71M1826.46 416.593L2671.02 1105.71M1796.23 416.593L2640.8 1105.71M1766.01 416.593L2610.57 1105.71M1735.78 416.593L2580.34 1105.71M1705.55 416.593L2550.11 1105.71M1675.32 416.593L2519.88 1105.71M1645.09 416.593L2489.65 1105.71M1614.87 416.593L2459.43 1105.71M1584.64 416.593L2429.2 1105.71M1554.41 416.593L2398.97 1105.71M1524.18 416.593L2368.74 1105.71M1493.95 416.593L2338.51 1105.71M1463.72 416.593L2308.29 1105.71M1433.5 416.593L2278.06 1105.71M1403.27 416.593L2247.83 1105.71M1373.04 416.593L2217.6 1105.71M1342.81 416.593L2187.37 1105.71M1312.58 416.593L2157.14 1105.71M1282.36 416.593L2126.92 1105.71M1252.13 416.593L2096.69 1105.71M1221.9 416.593L2066.46 1105.71M1191.67 416.593L2036.23 1105.71M1161.44 416.593L2006 1105.71M1131.22 416.593L1975.78 1105.71M1100.99 416.593L1945.55 1105.71M1070.76 416.593L1915.32 1105.71M1040.53 416.593L1885.09 1105.71M1010.3 416.593L1854.86 1105.71M980.074 416.593L1824.63 1105.71M949.847 416.593L1794.41 1105.71M919.619 416.593L1764.18 1105.71M889.39 416.593L1733.95 1105.71M859.163 416.593L1703.72 1105.71M828.935 416.593L1673.5 1105.71M798.705 416.593L1643.27 1105.71M768.477 416.593L1613.04 1105.71M738.25 416.593L1582.81 1105.71M708.022 416.593L1552.58 1105.71M677.794 416.593L1522.36 1105.71M647.565 416.593L1492.1 1105.71M617.338 416.593L1461.87 1105.71M587.109 416.593L1431.64 1105.71M556.881 416.593L1401.41 1105.71M526.654 416.593L1371.19 1105.71M496.426 416.593L1340.96 1105.71M466.196 416.593L1310.73 1105.71M435.968 416.593L1280.5 1105.71M405.741 416.593L1250.27 1105.71M375.513 416.593L1220.05 1105.71M345.285 416.593L1189.82 1105.71M315.057 416.593L1159.59 1105.71M284.827 416.593L1129.36 1105.71M254.6 416.593L1099.13 1105.71M224.372 416.593L1068.91 1105.71M194.144 416.593L1038.68 1105.71M163.916 416.593L1008.45 1105.71M133.689 416.593L978.222 1105.71M103.461 416.593L947.995 1105.71M73.2309 416.593L917.764 1105.71M43.0035 416.593L887.537 1105.71M12.7753 416.593L857.309 1105.71M-17.48 416.593L827.081 1105.71M-47.7073 416.593L796.854 1105.71M-77.9375 416.593L766.623 1105.71M-108.165 416.593L736.395 1105.71M-138.392 416.593L706.168 1105.71M-168.62 416.593L675.94 1105.71M-198.849 416.593L645.712 1105.71M-229.076 416.593L615.485 1105.71M-259.304 416.593L585.257 1105.71M-289.534 416.593L555.027 1105.71M-319.762 416.593L524.799 1105.71M-349.989 416.593L494.572 1105.71M-380.217 416.593L464.344 1105.71M-410.445 416.593L434.116 1105.71M-440.673 416.593L403.888 1105.71M-470.903 416.593L373.658 1105.71M-501.13 416.593L343.43 1105.71M-531.358 416.593L313.203 1105.71M-561.586 416.593L282.975 1105.71M-591.814 416.593L252.747 1105.71M-622.041 416.593L222.52 1105.71M-652.269 416.593L192.292 1105.71M-682.499 416.593L162.062 1105.71M-712.726 416.593L131.834 1105.71M-742.955 416.593L101.606 1105.71M-773.182 416.593L71.3781 1105.71M-803.41 416.593L41.1509 1105.71M-833.64 416.593L10.9206 1105.71M-863.868 416.593L-19.3071 1105.71M-894.095 416.593L-49.5343 1105.71M-432.005 1287.51H2039.29V371.21H-432.005V1287.51Z" stroke="url(#paint0_linear_5831_53)" stroke-width="2" stroke-miterlimit="10"/>
</g>
</g>
</g>
<mask id="mask1_5831_53" style="mask-type:luminance" maskUnits="userSpaceOnUse" x="412" y="729" width="2113" height="435">
<mask id="path-4-inside-2_5831_53" fill="white">
<path d="M412.454 1163.65C433.223 1159.32 672.186 904.956 687.668 898.169C704.731 890.673 733.869 871.975 760.663 869.876C780.56 868.323 781.705 875.355 803.593 877.617C831.885 880.534 824.008 871.893 846.413 869.44C864.321 867.478 876.696 882.224 900.519 880.97C916.273 880.125 928.13 871.294 937.67 867.996C961.357 859.818 976.239 851.914 993.765 840.957C1017.15 826.347 1039.37 810.728 1071.37 798.463C1082.6 794.156 1096.36 790.613 1106.04 785.843C1105 794.647 1111.9 804.977 1121.14 813.073C1137.6 800.807 1168.56 780.882 1205.91 778.729C1235.73 777.011 1245.18 782.763 1270.97 773.414C1302.56 761.966 1317.72 742.995 1342.22 729.148C1366.81 741.414 1378.8 762.184 1387.96 777.23C1392.15 784.126 1391.26 793.475 1409.38 797.291C1430.97 801.87 1468.26 794.783 1488.59 800.044C1533.02 811.519 1521.79 841.556 1558.04 855.158C1572.19 860.473 1591.57 859.301 1605.28 863.307C1616.48 866.605 1616.04 870.994 1621.82 876.036C1642.05 893.699 1721.45 896.97 1708.58 913.978C1694.74 932.295 1737.45 942.298 1790.46 935.866C1810.93 933.385 1828.13 929.324 1844.81 931.068C1863.32 933.004 1870.41 941.481 1894.78 937.91C1917.59 934.557 1937.54 914.578 1956.35 907.982C1973.22 902.067 1991.7 896.643 2014.57 894.98C2030.13 916.649 2065.3 923.028 2117.96 930.251C2132.21 932.213 2153.06 934.939 2162.77 939.6C2169.58 942.871 2169.55 948.458 2177.05 951.975C2187.49 956.881 2202.78 958.653 2216.57 961.842C2236.14 966.394 2240.45 969.065 2250.48 976.233C2274.47 993.351 2303.55 998.721 2347.41 1008.53C2380.01 1015.84 2510.02 1150.65 2524.22 1163.68"/>
</mask>
<path d="M412.454 1163.65C433.223 1159.32 672.186 904.956 687.668 898.169C704.731 890.673 733.869 871.975 760.663 869.876C780.56 868.323 781.705 875.355 803.593 877.617C831.885 880.534 824.008 871.893 846.413 869.44C864.321 867.478 876.696 882.224 900.519 880.97C916.273 880.125 928.13 871.294 937.67 867.996C961.357 859.818 976.239 851.914 993.765 840.957C1017.15 826.347 1039.37 810.728 1071.37 798.463C1082.6 794.156 1096.36 790.613 1106.04 785.843C1105 794.647 1111.9 804.977 1121.14 813.073C1137.6 800.807 1168.56 780.882 1205.91 778.729C1235.73 777.011 1245.18 782.763 1270.97 773.414C1302.56 761.966 1317.72 742.995 1342.22 729.148C1366.81 741.414 1378.8 762.184 1387.96 777.23C1392.15 784.126 1391.26 793.475 1409.38 797.291C1430.97 801.87 1468.26 794.783 1488.59 800.044C1533.02 811.519 1521.79 841.556 1558.04 855.158C1572.19 860.473 1591.57 859.301 1605.28 863.307C1616.48 866.605 1616.04 870.994 1621.82 876.036C1642.05 893.699 1721.45 896.97 1708.58 913.978C1694.74 932.295 1737.45 942.298 1790.46 935.866C1810.93 933.385 1828.13 929.324 1844.81 931.068C1863.32 933.004 1870.41 941.481 1894.78 937.91C1917.59 934.557 1937.54 914.578 1956.35 907.982C1973.22 902.067 1991.7 896.643 2014.57 894.98C2030.13 916.649 2065.3 923.028 2117.96 930.251C2132.21 932.213 2153.06 934.939 2162.77 939.6C2169.58 942.871 2169.55 948.458 2177.05 951.975C2187.49 956.881 2202.78 958.653 2216.57 961.842C2236.14 966.394 2240.45 969.065 2250.48 976.233C2274.47 993.351 2303.55 998.721 2347.41 1008.53C2380.01 1015.84 2510.02 1150.65 2524.22 1163.68" fill="white"/>
<path d="M687.668 898.169L688.473 900L688.471 900.001L687.668 898.169ZM760.663 869.876L760.507 867.882L760.507 867.882L760.663 869.876ZM803.593 877.617L803.388 879.607L803.387 879.607L803.593 877.617ZM846.413 869.44L846.631 871.428L846.631 871.428L846.413 869.44ZM900.519 880.97L900.626 882.967L900.624 882.967L900.519 880.97ZM937.67 867.996L937.017 866.105L937.017 866.105L937.67 867.996ZM993.765 840.957L992.705 839.261L992.706 839.26L993.765 840.957ZM1071.37 798.463L1072.08 800.33L1072.08 800.33L1071.37 798.463ZM1106.04 785.843L1105.15 784.049L1108.45 782.422L1108.02 786.076L1106.04 785.843ZM1121.14 813.073L1122.33 814.676L1121.04 815.642L1119.82 814.577L1121.14 813.073ZM1205.91 778.729L1205.79 776.732L1205.79 776.732L1205.91 778.729ZM1270.97 773.414L1270.29 771.533L1270.29 771.533L1270.97 773.414ZM1342.22 729.148L1341.24 727.407L1342.16 726.884L1343.11 727.358L1342.22 729.148ZM1387.96 777.23L1386.25 778.269L1387.96 777.23ZM1409.38 797.291L1409.79 795.334L1409.8 795.334L1409.38 797.291ZM1488.59 800.044L1488.09 801.98L1488.09 801.98L1488.59 800.044ZM1558.04 855.158L1558.74 853.285L1558.74 853.285L1558.04 855.158ZM1605.28 863.307L1605.84 861.388L1605.84 861.389L1605.28 863.307ZM1621.82 876.036L1623.14 874.53L1623.14 874.53L1621.82 876.036ZM1708.58 913.978L1706.99 912.772L1706.99 912.772L1708.58 913.978ZM1790.46 935.866L1790.22 933.88L1790.22 933.88L1790.46 935.866ZM1844.81 931.068L1844.61 933.058H1844.61L1844.81 931.068ZM1894.78 937.91L1895.07 939.889L1895.07 939.889L1894.78 937.91ZM1956.35 907.982L1955.69 906.094L1955.69 906.094L1956.35 907.982ZM2014.57 894.98L2014.43 892.985L2015.54 892.904L2016.19 893.813L2014.57 894.98ZM2117.96 930.251L2118.23 928.269L2118.23 928.269L2117.96 930.251ZM2162.77 939.6L2161.9 941.403L2161.9 941.403L2162.77 939.6ZM2177.05 951.975L2177.9 950.164L2177.9 950.165L2177.05 951.975ZM2216.57 961.842L2217.02 959.893L2217.03 959.894L2216.57 961.842ZM2250.48 976.233L2249.32 977.861L2249.32 977.861L2250.48 976.233ZM2347.41 1008.53L2347.84 1006.58L2347.84 1006.58L2347.41 1008.53ZM412.454 1163.65L412.045 1161.7C412.378 1161.63 413.019 1161.38 414.032 1160.79C415.009 1160.23 416.206 1159.44 417.622 1158.41C420.451 1156.36 424.042 1153.44 428.301 1149.77C436.812 1142.42 447.88 1132.13 460.655 1119.86C486.2 1095.31 518.485 1062.92 550.622 1030.42C582.749 997.943 614.732 965.364 639.642 940.49C652.097 928.053 662.798 917.527 670.876 909.894C674.913 906.079 678.31 902.971 680.952 900.704C682.271 899.571 683.42 898.633 684.375 897.916C685.293 897.227 686.153 896.65 686.865 896.337L687.668 898.169L688.471 900.001C688.216 900.113 687.672 900.443 686.776 901.115C685.918 901.759 684.843 902.635 683.557 903.739C680.987 905.945 677.643 909.003 673.623 912.801C665.588 920.395 654.918 930.888 642.468 943.32C617.57 968.183 585.611 1000.74 553.466 1033.24C521.33 1065.73 489.013 1098.16 463.427 1122.74C450.636 1135.03 439.507 1145.38 430.914 1152.79C426.621 1156.5 422.933 1159.5 419.972 1161.65C418.493 1162.72 417.168 1163.61 416.021 1164.26C414.911 1164.9 413.827 1165.41 412.862 1165.61L412.454 1163.65ZM687.668 898.169L686.864 896.338C691.063 894.493 696.024 891.95 701.593 889.101C707.14 886.263 713.254 883.139 719.681 880.182C732.505 874.281 746.749 868.96 760.507 867.882L760.663 869.876L760.819 871.87C747.783 872.891 734.061 877.969 721.352 883.816C715.012 886.733 708.969 889.82 703.415 892.662C697.884 895.492 692.805 898.097 688.473 900L687.668 898.169ZM760.663 869.876L760.507 867.882C770.782 867.08 776.316 868.508 782.017 870.419C787.554 872.275 793.108 874.523 803.798 875.628L803.593 877.617L803.387 879.607C792.19 878.449 786.228 876.05 780.746 874.212C775.429 872.43 770.441 871.119 760.818 871.87L760.663 869.876ZM803.593 877.617L803.798 875.628C817.731 877.064 822.426 875.626 826.344 873.74C828.313 872.792 830.589 871.44 833.525 870.299C836.565 869.117 840.447 868.081 846.196 867.452L846.413 869.44L846.631 871.428C841.177 872.025 837.642 872.99 834.974 874.027C832.201 875.105 830.477 876.19 828.078 877.345C823.26 879.663 817.747 881.087 803.388 879.607L803.593 877.617ZM846.413 869.44L846.196 867.452C855.732 866.407 863.783 869.838 871.983 873.079C880.262 876.351 888.965 879.575 900.414 878.973L900.519 880.97L900.624 882.967C888.25 883.618 878.854 880.096 870.513 876.799C862.093 873.471 855.003 870.511 846.631 871.428L846.413 869.44ZM900.519 880.97L900.412 878.973C907.941 878.569 914.588 876.256 920.612 873.575C923.636 872.23 926.452 870.816 929.186 869.495C931.888 868.188 934.51 866.972 937.017 866.105L937.67 867.996L938.324 869.886C936.06 870.668 933.623 871.792 930.927 873.096C928.261 874.385 925.339 875.85 922.238 877.23C916.01 880.001 908.851 882.526 900.626 882.967L900.519 880.97ZM937.67 867.996L937.017 866.105C960.532 857.987 975.278 850.156 992.705 839.261L993.765 840.957L994.825 842.652C977.2 853.672 962.181 861.65 938.323 869.886L937.67 867.996ZM993.765 840.957L992.706 839.26C1016 824.706 1038.42 808.948 1070.65 796.595L1071.37 798.463L1072.08 800.33C1040.31 812.509 1018.3 827.988 994.825 842.653L993.765 840.957ZM1071.37 798.463L1070.65 796.595C1076.32 794.421 1082.65 792.433 1088.65 790.429C1094.71 788.409 1100.45 786.367 1105.15 784.049L1106.04 785.843L1106.92 787.637C1101.95 790.088 1095.97 792.203 1089.92 794.224C1083.81 796.261 1077.64 798.198 1072.08 800.33L1071.37 798.463ZM1106.04 785.843L1108.02 786.076C1107.58 789.886 1108.83 794.225 1111.46 798.713C1114.08 803.179 1117.95 807.625 1122.46 811.568L1121.14 813.073L1119.82 814.577C1115.08 810.425 1110.89 805.657 1108.01 800.734C1105.14 795.832 1103.46 790.604 1104.05 785.609L1106.04 785.843ZM1121.14 813.073L1119.94 811.469C1136.49 799.14 1167.85 778.92 1205.79 776.732L1205.91 778.729L1206.02 780.725C1169.28 782.844 1138.71 802.474 1122.33 814.676L1121.14 813.073ZM1205.91 778.729L1205.79 776.732C1220.77 775.87 1230.87 776.88 1239.96 776.933C1249.07 776.986 1257.65 776.117 1270.29 771.533L1270.97 773.414L1271.65 775.294C1258.51 780.059 1249.46 780.989 1239.94 780.933C1230.4 780.877 1220.87 779.87 1206.02 780.725L1205.91 778.729ZM1270.97 773.414L1270.29 771.533C1285.83 765.901 1297.34 758.419 1308.07 750.566C1318.75 742.747 1328.85 734.407 1341.24 727.407L1342.22 729.148L1343.2 730.889C1331.09 737.735 1321.35 745.804 1310.43 753.794C1299.56 761.751 1287.7 769.478 1271.65 775.294L1270.97 773.414ZM1342.22 729.148L1343.11 727.358C1368.28 739.916 1380.54 761.197 1389.67 776.19L1387.96 777.23L1386.25 778.269C1377.06 763.17 1365.33 742.911 1341.33 730.938L1342.22 729.148ZM1387.96 777.23L1389.67 776.19C1390.82 778.078 1391.61 780.132 1392.37 781.972C1393.16 783.866 1393.94 785.625 1395.09 787.271C1397.29 790.433 1401.1 793.503 1409.79 795.334L1409.38 797.291L1408.97 799.248C1399.54 797.262 1394.73 793.749 1391.81 789.56C1390.39 787.529 1389.47 785.419 1388.68 783.502C1387.86 781.53 1387.2 779.829 1386.25 778.269L1387.96 777.23ZM1409.38 797.291L1409.8 795.334C1420.29 797.56 1434.71 796.959 1449.38 796.413C1463.84 795.875 1478.58 795.388 1489.09 798.107L1488.59 800.044L1488.09 801.98C1478.27 799.439 1464.2 799.865 1449.53 800.41C1435.07 800.948 1420.06 801.6 1408.97 799.247L1409.38 797.291ZM1488.59 800.044L1489.09 798.107C1500.43 801.037 1508.33 805.182 1514.34 810.026C1520.34 814.859 1524.37 820.315 1528.03 825.674C1535.34 836.365 1541.28 846.734 1558.74 853.285L1558.04 855.158L1557.34 857.03C1538.55 849.979 1531.98 838.529 1524.73 827.932C1521.12 822.648 1517.36 817.593 1511.83 813.141C1506.32 808.701 1498.96 804.788 1488.09 801.98L1488.59 800.044ZM1558.04 855.158L1558.74 853.285C1565.54 855.84 1573.68 856.859 1582.03 857.734C1590.27 858.596 1598.77 859.321 1605.84 861.388L1605.28 863.307L1604.72 865.227C1598.08 863.287 1590.03 862.594 1581.61 861.712C1573.31 860.843 1564.69 859.79 1557.34 857.03L1558.04 855.158ZM1605.28 863.307L1605.84 861.389C1611.73 863.122 1614.75 865.21 1617.04 867.647C1618.12 868.79 1619.05 870.033 1619.93 871.127C1620.84 872.256 1621.82 873.377 1623.14 874.53L1621.82 876.036L1620.51 877.543C1618.94 876.175 1617.8 874.856 1616.82 873.641C1615.81 872.391 1615.07 871.385 1614.13 870.388C1612.39 868.546 1610.03 866.791 1604.71 865.226L1605.28 863.307ZM1621.82 876.036L1623.14 874.53C1627.84 878.634 1636.21 882.053 1646.3 885.11C1656.32 888.147 1667.65 890.722 1678.09 893.311C1688.43 895.875 1698.01 898.478 1704.19 901.569C1707.24 903.094 1709.84 904.911 1711.12 907.213C1711.8 908.422 1712.11 909.763 1711.93 911.191C1711.76 912.592 1711.13 913.925 1710.18 915.185L1708.58 913.978L1706.99 912.772C1707.64 911.906 1707.9 911.22 1707.97 910.695C1708.03 910.198 1707.94 909.708 1707.63 909.165C1706.96 907.964 1705.3 906.597 1702.4 905.147C1696.69 902.29 1687.56 899.781 1677.13 897.194C1666.8 894.632 1655.29 892.014 1645.14 888.939C1635.06 885.884 1625.92 882.27 1620.51 877.543L1621.82 876.036ZM1708.58 913.978L1710.18 915.184C1708.61 917.253 1707.99 919.018 1707.95 920.495C1707.91 921.937 1708.42 923.34 1709.61 924.739C1712.07 927.655 1717.25 930.296 1724.95 932.266C1740.19 936.168 1763.85 937.08 1790.22 933.88L1790.46 935.866L1790.7 937.851C1764.06 941.084 1739.85 940.211 1723.95 936.141C1716.08 934.124 1709.86 931.231 1706.55 927.321C1704.85 925.307 1703.88 922.974 1703.95 920.388C1704.02 917.837 1705.09 915.283 1706.99 912.772L1708.58 913.978ZM1790.46 935.866L1790.22 933.88C1795.31 933.264 1800.2 932.548 1804.95 931.846C1809.7 931.145 1814.31 930.455 1818.81 929.898C1827.81 928.784 1836.46 928.184 1845.02 929.079L1844.81 931.068L1844.61 933.058C1836.49 932.209 1828.19 932.767 1819.3 933.868C1814.86 934.418 1810.3 935.099 1805.54 935.803C1800.79 936.505 1795.85 937.228 1790.7 937.851L1790.46 935.866ZM1844.81 931.068L1845.02 929.079C1854.48 930.069 1861.23 932.774 1868.12 934.622C1875.02 936.478 1882.61 937.671 1894.49 935.931L1894.78 937.91L1895.07 939.889C1882.57 941.72 1874.43 940.46 1867.08 938.486C1859.7 936.504 1853.65 934.003 1844.61 933.058L1844.81 931.068ZM1894.78 937.91L1894.48 935.931C1905.45 934.32 1915.84 928.69 1926.02 922.456C1936.05 916.314 1946.02 909.485 1955.69 906.094L1956.35 907.982L1957.01 909.869C1947.87 913.075 1938.46 919.533 1928.11 925.868C1917.91 932.112 1906.91 938.148 1895.07 939.889L1894.78 937.91ZM1956.35 907.982L1955.69 906.094C1972.64 900.152 1991.31 894.666 2014.43 892.985L2014.57 894.98L2014.72 896.975C1992.1 898.619 1973.8 903.982 1957.01 909.869L1956.35 907.982ZM2014.57 894.98L2016.19 893.813C2023.6 904.124 2035.78 910.963 2052.93 916.117C2070.07 921.272 2091.88 924.655 2118.23 928.269L2117.96 930.251L2117.68 932.232C2091.38 928.624 2069.27 925.206 2051.78 919.948C2034.29 914.69 2021.1 907.506 2012.95 896.147L2014.57 894.98ZM2117.96 930.251L2118.23 928.269C2125.34 929.248 2134.17 930.427 2142.43 931.946C2150.64 933.456 2158.52 935.339 2163.63 937.797L2162.77 939.6L2161.9 941.403C2157.32 939.2 2149.92 937.39 2141.71 935.88C2133.55 934.381 2124.83 933.216 2117.68 932.232L2117.96 930.251ZM2162.77 939.6L2163.63 937.797C2167.5 939.653 2169.45 942.216 2171.22 944.452C2172.96 946.646 2174.59 948.611 2177.9 950.164L2177.05 951.975L2176.2 953.785C2172.01 951.822 2169.91 949.236 2168.09 946.939C2166.3 944.684 2164.85 942.818 2161.9 941.403L2162.77 939.6ZM2177.05 951.975L2177.9 950.165C2182.9 952.514 2189.14 954.146 2195.97 955.596C2202.68 957.02 2210.14 958.302 2217.02 959.893L2216.57 961.842L2216.12 963.79C2209.21 962.192 2202.14 960.994 2195.14 959.508C2188.26 958.049 2181.64 956.342 2176.2 953.785L2177.05 951.975ZM2216.57 961.842L2217.03 959.894C2226.84 962.177 2232.96 964.017 2237.92 966.23C2242.9 968.452 2246.62 971.019 2251.64 974.606L2250.48 976.233L2249.32 977.861C2244.31 974.28 2240.86 971.926 2236.29 969.883C2231.69 967.83 2225.87 966.058 2216.12 963.79L2216.57 961.842ZM2250.48 976.233L2251.64 974.605C2275.22 991.429 2303.79 996.726 2347.84 1006.58L2347.41 1008.53L2346.97 1010.48C2303.3 1000.72 2273.72 995.273 2249.32 977.861L2250.48 976.233ZM2347.41 1008.53L2347.84 1006.58C2352.3 1007.58 2358.16 1010.67 2364.88 1015.09C2371.66 1019.56 2379.53 1025.52 2388.05 1032.47C2405.11 1046.39 2424.9 1064.37 2444.09 1082.51C2463.28 1100.65 2481.9 1118.96 2496.6 1133.55C2511.33 1148.17 2522.06 1158.98 2525.58 1162.21L2524.22 1163.68L2522.87 1165.15C2519.28 1161.86 2508.44 1150.93 2493.78 1136.39C2479.09 1121.81 2460.5 1103.52 2441.34 1085.41C2422.18 1067.3 2402.46 1049.4 2385.53 1035.57C2377.05 1028.66 2369.3 1022.79 2362.68 1018.43C2356 1014.04 2350.66 1011.31 2346.97 1010.48L2347.41 1008.53Z" fill="white" mask="url(#path-4-inside-2_5831_53)"/>
</mask>
<g mask="url(#mask1_5831_53)">
<path d="M2469.38 669.592L3313.94 1358.71M2439.15 669.592L3283.71 1358.71M2408.92 669.592L3253.48 1358.71M2378.7 669.592L3223.26 1358.71M2348.47 669.592L3193.03 1358.71M2318.24 669.592L3162.8 1358.71M2288.01 669.592L3132.57 1358.71M2257.78 669.592L3102.34 1358.71M2227.55 669.592L3072.11 1358.71M2197.33 669.592L3041.89 1358.71M2167.1 669.592L3011.66 1358.71M2136.87 669.592L2981.43 1358.71M2106.64 669.592L2951.2 1358.71M2076.41 669.592L2920.97 1358.71M2046.19 669.592L2890.75 1358.71M2015.96 669.592L2860.52 1358.71M1985.73 669.592L2830.29 1358.71M1955.5 669.592L2800.06 1358.71M1925.27 669.592L2769.81 1358.71M1895.05 669.592L2739.58 1358.71M1864.82 669.592L2709.35 1358.71M1834.59 669.592L2679.12 1358.71M1804.36 669.592L2648.89 1358.71M1774.13 669.592L2618.67 1358.71M1743.9 669.592L2588.44 1358.71M1713.68 669.592L2558.21 1358.71M1683.45 669.592L2527.98 1358.71M1653.22 669.592L2497.75 1358.71M1622.99 669.592L2467.52 1358.71M1592.76 669.592L2437.3 1358.71M1562.54 669.592L2407.07 1358.71M1532.31 669.592L2376.84 1358.71M1502.08 669.592L2346.61 1358.71M1471.85 669.592L2316.38 1358.71M1441.62 669.592L2286.16 1358.71M1411.39 669.592L2255.93 1358.71M1381.17 669.592L2225.7 1358.71M1350.94 669.592L2195.47 1358.71M1320.71 669.592L2165.24 1358.71M1290.46 669.592L2135.02 1358.71M1260.23 669.592L2104.79 1358.71M1230 669.592L2074.56 1358.71M1199.77 669.592L2044.33 1358.71M1169.54 669.592L2014.1 1358.71M1139.32 669.592L1983.88 1358.71M1109.09 669.592L1953.65 1358.71M1078.86 669.592L1923.42 1358.71M1048.63 669.592L1893.19 1358.71M1018.4 669.592L1862.96 1358.71M988.174 669.592L1832.73 1358.71M957.947 669.592L1802.51 1358.71M927.719 669.592L1772.28 1358.71M897.489 669.592L1742.05 1358.71M867.261 669.592L1711.82 1358.71M837.034 669.592L1681.59 1358.71M806.806 669.592L1651.37 1358.71M776.577 669.592L1621.14 1358.71M746.35 669.592L1590.91 1358.71M716.12 669.592L1560.68 1358.71M685.892 669.592L1530.45 1358.71M655.665 669.592L1500.23 1358.71M625.437 669.592L1470 1358.71M595.209 669.592L1439.77 1358.71M564.982 669.592L1409.54 1358.71M534.754 669.592L1379.31 1358.71M504.523 669.592L1349.08 1358.71M474.296 669.592L1318.86 1358.71M444.069 669.592L1288.63 1358.71M413.84 669.592L1258.4 1358.71M383.613 669.592L1228.17 1358.71M353.385 669.592L1197.95 1358.71M323.155 669.592L1167.72 1358.71M292.927 669.592L1137.49 1358.71M262.7 669.592L1107.26 1358.71M232.471 669.592L1077.03 1358.71M202.244 669.592L1046.8 1358.71M172.016 669.592L1016.58 1358.71M141.786 669.592L986.347 1358.71M111.558 669.592L956.119 1358.71M81.3312 669.592L925.892 1358.71M51.1027 669.592L895.664 1358.71M20.8761 669.592L865.409 1358.71M-9.35419 669.592L835.179 1358.71M-39.5824 669.592L804.951 1358.71M-69.8092 669.592L774.724 1358.71M-100.038 669.592L744.496 1358.71M-130.266 669.592L714.268 1358.71M-160.493 669.592L684.041 1358.71M-190.723 669.592L653.81 1358.71M-220.951 669.592L623.583 1358.71M-251.178 669.592L593.355 1358.71M-281.406 669.592L563.127 1358.71" stroke="url(#paint1_linear_5831_53)" stroke-width="2" stroke-miterlimit="10"/>
</g>
<mask id="mask2_5831_53" style="mask-type:luminance" maskUnits="userSpaceOnUse" x="-737" y="729" width="2113" height="435">
<mask id="path-7-inside-3_5831_53" fill="white">
<path d="M-736.546 1163.65C-715.777 1159.32 -476.814 904.956 -461.332 898.169C-444.269 890.673 -415.131 871.975 -388.337 869.876C-368.44 868.323 -367.295 875.355 -345.407 877.617C-317.115 880.534 -324.992 871.893 -302.587 869.44C-284.679 867.478 -272.304 882.224 -248.481 880.97C-232.727 880.125 -220.87 871.294 -211.33 867.996C-187.643 859.818 -172.761 851.914 -155.235 840.957C-131.848 826.347 -109.634 810.728 -77.6339 798.463C-66.4041 794.156 -52.639 790.613 -42.9628 785.843C-43.9985 794.647 -37.1027 804.977 -27.8624 813.073C-11.3992 800.807 19.5649 780.882 56.9072 778.729C86.7264 777.011 96.1846 782.763 121.97 773.414C153.561 761.966 168.716 742.995 193.22 729.148C217.806 741.414 229.799 762.184 238.957 777.23C243.155 784.126 242.255 793.475 260.381 797.291C281.969 801.87 319.256 794.783 339.59 800.044C384.019 811.519 372.789 841.556 409.041 855.158C423.188 860.473 442.568 859.301 456.278 863.307C467.48 866.605 467.044 870.994 472.823 876.036C493.048 893.699 572.448 896.97 559.582 913.978C545.736 932.295 588.447 942.298 641.462 935.866C661.932 933.385 679.132 929.324 695.813 931.068C714.321 933.004 721.408 941.481 745.775 937.91C768.59 934.557 788.542 914.578 807.349 907.982C824.221 902.067 842.702 896.643 865.57 894.98C881.134 916.649 916.296 923.028 968.956 930.251C983.212 932.213 1004.06 934.939 1013.77 939.6C1020.58 942.871 1020.55 948.458 1028.05 951.975C1038.49 956.881 1053.78 958.653 1067.57 961.842C1087.14 966.394 1091.45 969.065 1101.48 976.233C1125.47 993.351 1154.55 998.721 1198.41 1008.53C1231.01 1015.84 1361.02 1150.65 1375.22 1163.68"/>
</mask>
<path d="M-736.546 1163.65C-715.777 1159.32 -476.814 904.956 -461.332 898.169C-444.269 890.673 -415.131 871.975 -388.337 869.876C-368.44 868.323 -367.295 875.355 -345.407 877.617C-317.115 880.534 -324.992 871.893 -302.587 869.44C-284.679 867.478 -272.304 882.224 -248.481 880.97C-232.727 880.125 -220.87 871.294 -211.33 867.996C-187.643 859.818 -172.761 851.914 -155.235 840.957C-131.848 826.347 -109.634 810.728 -77.6339 798.463C-66.4041 794.156 -52.639 790.613 -42.9628 785.843C-43.9985 794.647 -37.1027 804.977 -27.8624 813.073C-11.3992 800.807 19.5649 780.882 56.9072 778.729C86.7264 777.011 96.1846 782.763 121.97 773.414C153.561 761.966 168.716 742.995 193.22 729.148C217.806 741.414 229.799 762.184 238.957 777.23C243.155 784.126 242.255 793.475 260.381 797.291C281.969 801.87 319.256 794.783 339.59 800.044C384.019 811.519 372.789 841.556 409.041 855.158C423.188 860.473 442.568 859.301 456.278 863.307C467.48 866.605 467.044 870.994 472.823 876.036C493.048 893.699 572.448 896.97 559.582 913.978C545.736 932.295 588.447 942.298 641.462 935.866C661.932 933.385 679.132 929.324 695.813 931.068C714.321 933.004 721.408 941.481 745.775 937.91C768.59 934.557 788.542 914.578 807.349 907.982C824.221 902.067 842.702 896.643 865.57 894.98C881.134 916.649 916.296 923.028 968.956 930.251C983.212 932.213 1004.06 934.939 1013.77 939.6C1020.58 942.871 1020.55 948.458 1028.05 951.975C1038.49 956.881 1053.78 958.653 1067.57 961.842C1087.14 966.394 1091.45 969.065 1101.48 976.233C1125.47 993.351 1154.55 998.721 1198.41 1008.53C1231.01 1015.84 1361.02 1150.65 1375.22 1163.68" fill="white"/>
<path d="M-461.332 898.169L-460.527 900L-460.529 900.001L-461.332 898.169ZM-388.337 869.876L-388.493 867.882L-388.493 867.882L-388.337 869.876ZM-345.407 877.617L-345.612 879.607L-345.613 879.607L-345.407 877.617ZM-302.587 869.44L-302.369 871.428L-302.369 871.428L-302.587 869.44ZM-248.481 880.97L-248.374 882.967L-248.376 882.967L-248.481 880.97ZM-211.33 867.996L-211.983 866.105L-211.983 866.105L-211.33 867.996ZM-155.235 840.957L-156.295 839.261L-156.294 839.26L-155.235 840.957ZM-77.6339 798.463L-76.9177 800.33L-76.9181 800.33L-77.6339 798.463ZM-42.9628 785.843L-43.8472 784.049L-40.5465 782.422L-40.9766 786.076L-42.9628 785.843ZM-27.8624 813.073L-26.6676 814.676L-27.9642 815.642L-29.1804 814.577L-27.8624 813.073ZM56.9072 778.729L56.792 776.732L56.7922 776.732L56.9072 778.729ZM121.97 773.414L121.288 771.533L121.288 771.533L121.97 773.414ZM193.22 729.148L192.236 727.407L193.161 726.884L194.113 727.358L193.22 729.148ZM238.957 777.23L237.249 778.269L238.957 777.23ZM260.381 797.291L260.793 795.334L260.796 795.334L260.381 797.291ZM339.59 800.044L339.09 801.98L339.089 801.98L339.59 800.044ZM409.041 855.158L409.744 853.285L409.745 853.285L409.041 855.158ZM456.278 863.307L456.839 861.388L456.843 861.389L456.278 863.307ZM472.823 876.036L474.138 874.53L474.138 874.53L472.823 876.036ZM559.582 913.978L557.987 912.772L557.987 912.772L559.582 913.978ZM641.462 935.866L641.222 933.88L641.222 933.88L641.462 935.866ZM695.813 931.068L695.605 933.058H695.605L695.813 931.068ZM745.775 937.91L746.066 939.889L746.065 939.889L745.775 937.91ZM807.349 907.982L806.687 906.094L806.687 906.094L807.349 907.982ZM865.57 894.98L865.425 892.985L866.542 892.904L867.195 893.813L865.57 894.98ZM968.956 930.251L969.228 928.269L969.229 928.269L968.956 930.251ZM1013.77 939.6L1012.9 941.403L1012.9 941.403L1013.77 939.6ZM1028.05 951.975L1028.9 950.164L1028.9 950.165L1028.05 951.975ZM1067.57 961.842L1068.02 959.893L1068.03 959.894L1067.57 961.842ZM1101.48 976.233L1100.32 977.861L1100.32 977.861L1101.48 976.233ZM1198.41 1008.53L1198.84 1006.58L1198.84 1006.58L1198.41 1008.53ZM-736.546 1163.65L-736.955 1161.7C-736.622 1161.63 -735.981 1161.38 -734.968 1160.79C-733.991 1160.23 -732.794 1159.44 -731.378 1158.41C-728.549 1156.36 -724.958 1153.44 -720.699 1149.77C-712.188 1142.42 -701.12 1132.13 -688.345 1119.86C-662.8 1095.31 -630.515 1062.92 -598.378 1030.42C-566.251 997.943 -534.268 965.364 -509.358 940.49C-496.903 928.053 -486.202 917.527 -478.124 909.894C-474.087 906.079 -470.69 902.971 -468.048 900.704C-466.729 899.571 -465.58 898.633 -464.625 897.916C-463.707 897.227 -462.847 896.65 -462.135 896.337L-461.332 898.169L-460.529 900.001C-460.784 900.113 -461.328 900.443 -462.224 901.115C-463.082 901.759 -464.157 902.635 -465.443 903.739C-468.013 905.945 -471.357 909.003 -475.377 912.801C-483.412 920.395 -494.082 930.888 -506.532 943.32C-531.43 968.183 -563.389 1000.74 -595.534 1033.24C-627.67 1065.73 -659.987 1098.16 -685.573 1122.74C-698.364 1135.03 -709.493 1145.38 -718.086 1152.79C-722.379 1156.5 -726.067 1159.5 -729.028 1161.65C-730.507 1162.72 -731.832 1163.61 -732.979 1164.26C-734.089 1164.9 -735.173 1165.41 -736.138 1165.61L-736.546 1163.65ZM-461.332 898.169L-462.136 896.338C-457.937 894.493 -452.976 891.95 -447.407 889.101C-441.86 886.263 -435.746 883.139 -429.319 880.182C-416.495 874.281 -402.251 868.96 -388.493 867.882L-388.337 869.876L-388.181 871.87C-401.217 872.891 -414.939 877.969 -427.648 883.816C-433.988 886.733 -440.031 889.82 -445.585 892.662C-451.116 895.492 -456.195 898.097 -460.527 900L-461.332 898.169ZM-388.337 869.876L-388.493 867.882C-378.218 867.08 -372.684 868.508 -366.983 870.419C-361.446 872.275 -355.892 874.523 -345.202 875.628L-345.407 877.617L-345.613 879.607C-356.81 878.449 -362.772 876.05 -368.254 874.212C-373.571 872.43 -378.559 871.119 -388.182 871.87L-388.337 869.876ZM-345.407 877.617L-345.202 875.628C-331.269 877.064 -326.574 875.626 -322.656 873.74C-320.687 872.792 -318.411 871.44 -315.475 870.299C-312.435 869.117 -308.553 868.081 -302.804 867.452L-302.587 869.44L-302.369 871.428C-307.823 872.025 -311.358 872.99 -314.026 874.027C-316.799 875.105 -318.523 876.19 -320.922 877.345C-325.74 879.663 -331.253 881.087 -345.612 879.607L-345.407 877.617ZM-302.587 869.44L-302.804 867.452C-293.268 866.407 -285.217 869.838 -277.017 873.079C-268.738 876.351 -260.035 879.575 -248.586 878.973L-248.481 880.97L-248.376 882.967C-260.75 883.618 -270.146 880.096 -278.487 876.799C-286.907 873.471 -293.997 870.511 -302.369 871.428L-302.587 869.44ZM-248.481 880.97L-248.588 878.973C-241.059 878.569 -234.412 876.256 -228.388 873.575C-225.364 872.23 -222.548 870.816 -219.814 869.495C-217.112 868.188 -214.49 866.972 -211.983 866.105L-211.33 867.996L-210.676 869.886C-212.94 870.668 -215.377 871.792 -218.073 873.096C-220.739 874.385 -223.661 875.85 -226.762 877.23C-232.99 880.001 -240.149 882.526 -248.374 882.967L-248.481 880.97ZM-211.33 867.996L-211.983 866.105C-188.468 857.987 -173.722 850.156 -156.295 839.261L-155.235 840.957L-154.175 842.652C-171.8 853.672 -186.819 861.65 -210.677 869.886L-211.33 867.996ZM-155.235 840.957L-156.294 839.26C-132.996 824.706 -110.577 808.948 -78.3497 796.595L-77.6339 798.463L-76.9181 800.33C-108.69 812.509 -130.7 827.988 -154.175 842.653L-155.235 840.957ZM-77.6339 798.463L-78.3501 796.595C-72.6803 794.421 -66.3539 792.433 -60.3489 790.429C-54.2944 788.409 -48.5505 786.367 -43.8472 784.049L-42.9628 785.843L-42.0785 787.637C-47.0514 790.088 -53.0281 792.203 -59.0826 794.224C-65.1866 796.261 -71.3577 798.198 -76.9177 800.33L-77.6339 798.463ZM-42.9628 785.843L-40.9766 786.076C-41.4247 789.886 -40.1687 794.225 -37.5403 798.713C-34.9244 803.179 -31.0452 807.625 -26.5446 811.568L-27.8624 813.073L-29.1804 814.577C-33.9199 810.425 -38.1088 805.657 -40.9919 800.734C-43.8627 795.832 -45.5367 790.604 -44.9491 785.609L-42.9628 785.843ZM-27.8624 813.073L-29.0574 811.469C-12.5096 799.14 18.8479 778.92 56.792 776.732L56.9072 778.729L57.0223 780.725C20.2821 782.844 -10.2887 802.474 -26.6676 814.676L-27.8624 813.073ZM56.9072 778.729L56.7922 776.732C71.7662 775.87 81.8685 776.88 90.963 776.933C100.073 776.986 108.645 776.117 121.288 771.533L121.97 773.414L122.651 775.294C109.509 780.059 100.46 780.989 90.9396 780.933C81.4037 780.877 71.8673 779.87 57.0221 780.725L56.9072 778.729ZM121.97 773.414L121.288 771.533C136.83 765.901 148.342 758.419 159.071 750.566C169.755 742.747 179.847 734.407 192.236 727.407L193.22 729.148L194.204 730.889C182.088 737.735 172.351 745.804 161.433 753.794C150.562 761.751 138.7 769.478 122.651 775.294L121.97 773.414ZM193.22 729.148L194.113 727.358C219.284 739.916 231.54 761.197 240.666 776.19L238.957 777.23L237.249 778.269C228.058 763.17 216.327 742.911 192.327 730.938L193.22 729.148ZM238.957 777.23L240.666 776.19C241.815 778.078 242.613 780.132 243.374 781.972C244.159 783.866 244.938 785.625 246.086 787.271C248.293 790.433 252.1 793.503 260.793 795.334L260.381 797.291L259.969 799.248C250.536 797.262 245.73 793.749 242.806 789.56C241.389 787.529 240.473 785.419 239.679 783.502C238.862 781.53 238.198 779.829 237.249 778.269L238.957 777.23ZM260.381 797.291L260.796 795.334C271.29 797.56 285.713 796.959 300.382 796.413C314.838 795.875 329.578 795.388 340.091 798.107L339.59 800.044L339.089 801.98C329.268 799.439 315.198 799.865 300.53 800.41C286.074 800.948 271.06 801.6 259.966 799.247L260.381 797.291ZM339.59 800.044L340.09 798.107C351.435 801.037 359.33 805.182 365.342 810.026C371.34 814.859 375.368 820.315 379.033 825.674C386.343 836.365 392.284 846.734 409.744 853.285L409.041 855.158L408.339 857.03C389.546 849.979 382.977 838.529 375.731 827.932C372.118 822.648 368.358 817.593 362.833 813.141C357.322 808.701 349.96 804.788 339.09 801.98L339.59 800.044ZM409.041 855.158L409.745 853.285C416.544 855.84 424.678 856.859 433.031 857.734C441.266 858.596 449.766 859.321 456.839 861.388L456.278 863.307L455.717 865.227C449.08 863.287 441.035 862.594 432.615 861.712C424.314 860.843 415.685 859.79 408.338 857.03L409.041 855.158ZM456.278 863.307L456.843 861.389C462.729 863.122 465.747 865.21 468.041 867.647C469.117 868.79 470.047 870.033 470.931 871.127C471.843 872.256 472.817 873.377 474.138 874.53L472.823 876.036L471.508 877.543C469.94 876.175 468.801 874.856 467.819 873.641C466.81 872.391 466.066 871.385 465.128 870.388C463.394 868.546 461.029 866.791 455.713 865.226L456.278 863.307ZM472.823 876.036L474.138 874.53C478.838 878.634 487.209 882.053 497.3 885.11C507.322 888.147 518.651 890.722 529.093 893.311C539.43 895.875 549.007 898.478 555.192 901.569C558.243 903.094 560.836 904.911 562.123 907.213C562.799 908.422 563.113 909.763 562.935 911.191C562.76 912.592 562.131 913.925 561.177 915.185L559.582 913.978L557.987 912.772C558.642 911.906 558.9 911.22 558.966 910.695C559.028 910.198 558.935 909.708 558.632 909.165C557.961 907.964 556.303 906.597 553.404 905.147C547.687 902.29 538.562 899.781 528.13 897.194C517.802 894.632 506.292 892.014 496.141 888.939C486.059 885.884 476.921 882.27 471.507 877.543L472.823 876.036ZM559.582 913.978L561.178 915.184C559.614 917.253 558.989 919.018 558.95 920.495C558.911 921.937 559.424 923.34 560.607 924.739C563.072 927.655 568.249 930.296 575.945 932.266C591.192 936.168 614.853 937.08 641.222 933.88L641.462 935.866L641.703 937.851C615.057 941.084 590.854 940.211 574.953 936.141C567.075 934.124 560.857 931.231 557.552 927.321C555.849 925.307 554.882 922.974 554.951 920.388C555.019 917.837 556.089 915.283 557.987 912.772L559.582 913.978ZM641.462 935.866L641.222 933.88C646.31 933.264 651.2 932.548 655.952 931.846C660.696 931.145 665.312 930.455 669.813 929.898C678.813 928.784 687.458 928.184 696.021 929.079L695.813 931.068L695.605 933.058C687.487 932.209 679.192 932.767 670.304 933.868C665.861 934.418 661.297 935.099 656.537 935.803C651.786 936.505 646.849 937.228 641.703 937.851L641.462 935.866ZM695.813 931.068L696.021 929.079C705.484 930.069 712.231 932.774 719.115 934.622C726.024 936.478 733.611 937.671 745.485 935.931L745.775 937.91L746.065 939.889C733.572 941.72 725.431 940.46 718.078 938.486C710.7 936.504 704.65 934.003 695.605 933.058L695.813 931.068ZM745.775 937.91L745.485 935.931C756.452 934.32 766.839 928.69 777.021 922.456C787.054 916.314 797.02 909.485 806.687 906.094L807.349 907.982L808.011 909.869C798.87 913.075 789.457 919.533 779.109 925.868C768.909 932.112 757.913 938.148 746.066 939.889L745.775 937.91ZM807.349 907.982L806.687 906.094C823.639 900.152 842.307 894.666 865.425 892.985L865.57 894.98L865.715 896.975C843.096 898.619 824.804 903.982 808.011 909.869L807.349 907.982ZM865.57 894.98L867.195 893.813C874.6 904.124 886.782 910.963 903.928 916.117C921.074 921.272 942.877 924.655 969.228 928.269L968.956 930.251L968.685 932.232C942.375 928.624 920.267 925.206 902.776 919.948C885.285 914.69 872.104 907.506 863.946 896.147L865.57 894.98ZM968.956 930.251L969.229 928.269C976.341 929.248 985.168 930.427 993.43 931.946C1001.64 933.456 1009.52 935.339 1014.63 937.797L1013.77 939.6L1012.9 941.403C1008.32 939.2 1000.92 937.39 992.707 935.88C984.553 934.381 975.827 933.216 968.684 932.232L968.956 930.251ZM1013.77 939.6L1014.63 937.797C1018.5 939.653 1020.45 942.216 1022.22 944.452C1023.96 946.646 1025.59 948.611 1028.9 950.164L1028.05 951.975L1027.2 953.785C1023.01 951.822 1020.91 949.236 1019.09 946.939C1017.3 944.684 1015.85 942.818 1012.9 941.403L1013.77 939.6ZM1028.05 951.975L1028.9 950.165C1033.9 952.514 1040.14 954.146 1046.97 955.596C1053.68 957.02 1061.14 958.302 1068.02 959.893L1067.57 961.842L1067.12 963.79C1060.21 962.192 1053.14 960.994 1046.14 959.508C1039.26 958.049 1032.64 956.342 1027.2 953.785L1028.05 951.975ZM1067.57 961.842L1068.03 959.894C1077.84 962.177 1083.96 964.017 1088.92 966.23C1093.9 968.452 1097.62 971.019 1102.64 974.606L1101.48 976.233L1100.32 977.861C1095.31 974.28 1091.86 971.926 1087.29 969.883C1082.69 967.83 1076.87 966.058 1067.12 963.79L1067.57 961.842ZM1101.48 976.233L1102.64 974.605C1126.22 991.429 1154.79 996.726 1198.84 1006.58L1198.41 1008.53L1197.97 1010.48C1154.3 1000.72 1124.72 995.273 1100.32 977.861L1101.48 976.233ZM1198.41 1008.53L1198.84 1006.58C1203.3 1007.58 1209.16 1010.67 1215.88 1015.09C1222.66 1019.56 1230.53 1025.52 1239.05 1032.47C1256.11 1046.39 1275.9 1064.37 1295.09 1082.51C1314.28 1100.65 1332.9 1118.96 1347.6 1133.55C1362.33 1148.17 1373.06 1158.98 1376.58 1162.21L1375.22 1163.68L1373.87 1165.15C1370.28 1161.86 1359.44 1150.93 1344.78 1136.39C1330.09 1121.81 1311.5 1103.52 1292.34 1085.41C1273.18 1067.3 1253.46 1049.4 1236.53 1035.57C1228.05 1028.66 1220.3 1022.79 1213.68 1018.43C1207 1014.04 1201.66 1011.31 1197.97 1010.48L1198.41 1008.53Z" fill="white" mask="url(#path-7-inside-3_5831_53)"/>
</mask>
<g mask="url(#mask2_5831_53)">
<path d="M1320.38 669.592L2164.94 1358.71M1290.15 669.592L2134.71 1358.71M1259.92 669.592L2104.48 1358.71M1229.7 669.592L2074.26 1358.71M1199.47 669.592L2044.03 1358.71M1169.24 669.592L2013.8 1358.71M1139.01 669.592L1983.57 1358.71M1108.78 669.592L1953.34 1358.71M1078.55 669.592L1923.11 1358.71M1048.33 669.592L1892.89 1358.71M1018.1 669.592L1862.66 1358.71M987.869 669.592L1832.43 1358.71M957.641 669.592L1802.2 1358.71M927.413 669.592L1771.97 1358.71M897.185 669.592L1741.75 1358.71M866.958 669.592L1711.52 1358.71M836.728 669.592L1681.29 1358.71M806.5 669.592L1651.06 1358.71M776.273 669.592L1620.81 1358.71M746.045 669.592L1590.58 1358.71M715.818 669.592L1560.35 1358.71M685.587 669.592L1530.12 1358.71M655.36 669.592L1499.89 1358.71M625.132 669.592L1469.67 1358.71M594.904 669.592L1439.44 1358.71M564.677 669.592L1409.21 1358.71M534.449 669.592L1378.98 1358.71M504.219 669.592L1348.75 1358.71M473.991 669.592L1318.52 1358.71M443.764 669.592L1288.3 1358.71M413.535 669.592L1258.07 1358.71M383.307 669.592L1227.84 1358.71M353.08 669.592L1197.61 1358.71M322.85 669.592L1167.38 1358.71M292.622 669.592L1137.16 1358.71M262.395 669.592L1106.93 1358.71M232.167 669.592L1076.7 1358.71M201.939 669.592L1046.47 1358.71M171.711 669.592L1016.24 1358.71M141.456 669.592L986.017 1358.71M111.226 669.592L955.787 1358.71M80.999 669.592L925.56 1358.71M50.7709 669.592L895.332 1358.71M20.5428 669.592L865.103 1358.71M-9.68477 669.592L834.876 1358.71M-39.9123 669.592L804.648 1358.71M-70.1427 669.592L774.418 1358.71M-100.37 669.592L744.19 1358.71M-130.598 669.592L713.963 1358.71M-160.826 669.592L683.735 1358.71M-191.053 669.592L653.507 1358.71M-221.281 669.592L623.28 1358.71M-251.511 669.592L593.049 1358.71M-281.739 669.592L562.822 1358.71M-311.966 669.592L532.594 1358.71M-342.194 669.592L502.366 1358.71M-372.423 669.592L472.138 1358.71M-402.65 669.592L441.911 1358.71M-432.88 669.592L411.681 1358.71M-463.108 669.592L381.453 1358.71M-493.335 669.592L351.226 1358.71M-523.563 669.592L320.997 1358.71M-553.791 669.592L290.77 1358.71M-584.018 669.592L260.542 1358.71M-614.246 669.592L230.314 1358.71M-644.477 669.592L200.084 1358.71M-674.704 669.592L169.857 1358.71M-704.931 669.592L139.629 1358.71M-735.16 669.592L109.401 1358.71M-765.387 669.592L79.1734 1358.71M-795.615 669.592L48.9458 1358.71M-825.845 669.592L18.7154 1358.71M-856.073 669.592L-11.5122 1358.71M-886.3 669.592L-41.7396 1358.71M-916.529 669.592L-71.9678 1358.71M-946.756 669.592L-102.195 1358.71M-976.984 669.592L-132.423 1358.71M-1007.21 669.592L-162.653 1358.71M-1037.44 669.592L-192.881 1358.71M-1067.67 669.592L-223.108 1358.71M-1097.9 669.592L-253.336 1358.71M-1128.12 669.592L-283.591 1358.71M-1158.35 669.592L-313.821 1358.71M-1188.58 669.592L-344.049 1358.71M-1218.81 669.592L-374.276 1358.71M-1249.04 669.592L-404.504 1358.71M-1279.27 669.592L-434.732 1358.71M-1309.49 669.592L-464.959 1358.71M-1339.72 669.592L-495.19 1358.71M-1369.95 669.592L-525.417 1358.71M-1400.18 669.592L-555.645 1358.71M-1430.41 669.592L-585.873 1358.71" stroke="url(#paint2_linear_5831_53)" stroke-width="2" stroke-miterlimit="10"/>
</g>
</g>
<defs>
<linearGradient id="paint0_linear_5831_53" x1="824.478" y1="569.451" x2="824.478" y2="962.394" gradientUnits="userSpaceOnUse">
<stop offset="0.00961538" stop-color="#1F3131"/>
<stop offset="0.211538" stop-color="#98C441"/>
<stop offset="0.879808" stop-color="#98C441" stop-opacity="0"/>
</linearGradient>
<linearGradient id="paint1_linear_5831_53" x1="1437.17" y1="728.461" x2="1437.17" y2="1162.28" gradientUnits="userSpaceOnUse">
<stop stop-color="#006155"/>
<stop offset="0.240385" stop-color="#98C441"/>
<stop offset="0.701923" stop-color="#98C441" stop-opacity="0"/>
</linearGradient>
<linearGradient id="paint2_linear_5831_53" x1="288.167" y1="728.461" x2="288.167" y2="1162.28" gradientUnits="userSpaceOnUse">
<stop stop-color="#006155"/>
<stop offset="0.331731" stop-color="#98C441"/>
<stop offset="0.701923" stop-color="#98C441" stop-opacity="0"/>
</linearGradient>
<clipPath id="clip0_5831_53">
<rect width="1440" height="953" fill="white"/>
</clipPath>
</defs>
</svg>
