<svg width="1440" height="647" viewBox="0 0 1440 647" fill="none" xmlns="http://www.w3.org/2000/svg">
<mask id="mask0_4975_2837" style="mask-type:luminance" maskUnits="userSpaceOnUse" x="-131" y="0" width="1824" height="392">
<mask id="path-1-inside-1_4975_2837" fill="white">
<path d="M-130.492 391.193C-86.8806 133.205 1.07791 101.369 58.7539 95.0995C75.1627 93.3278 87.9462 100.142 108.662 94.7179C133.52 88.2034 156.661 71.0587 181.738 65.6073C212.457 58.9293 236.77 73.3756 264.79 76.4011C317.506 82.1251 369.921 46.064 414.105 26.875C460.987 6.54119 511.44 -11.6393 561.02 9.29415C604.196 27.5291 649.306 40.5035 701.149 38.432C731.105 37.2327 755.827 22.8137 785.319 20.3878C822.825 17.3077 854.715 31.5904 889.768 37.5325C950.987 47.8902 1008.64 11.2567 1071.74 8.47645C1106.84 6.92279 1147.76 4.98754 1181.66 12.2924C1210.99 18.6161 1235.93 36.5785 1265.34 42.1389C1297.4 48.2173 1330.87 35.9243 1363.47 43.3383C1397.21 51.0248 1423 73.3756 1454.94 85.723C1535.43 116.878 1715.74 275.514 1690.28 391.166"/>
</mask>
<path d="M-130.492 391.193C-86.8806 133.205 1.07791 101.369 58.7539 95.0995C75.1627 93.3278 87.9462 100.142 108.662 94.7179C133.52 88.2034 156.661 71.0587 181.738 65.6073C212.457 58.9293 236.77 73.3756 264.79 76.4011C317.506 82.1251 369.921 46.064 414.105 26.875C460.987 6.54119 511.44 -11.6393 561.02 9.29415C604.196 27.5291 649.306 40.5035 701.149 38.432C731.105 37.2327 755.827 22.8137 785.319 20.3878C822.825 17.3077 854.715 31.5904 889.768 37.5325C950.987 47.8902 1008.64 11.2567 1071.74 8.47645C1106.84 6.92279 1147.76 4.98754 1181.66 12.2924C1210.99 18.6161 1235.93 36.5785 1265.34 42.1389C1297.4 48.2173 1330.87 35.9243 1363.47 43.3383C1397.21 51.0248 1423 73.3756 1454.94 85.723C1535.43 116.878 1715.74 275.514 1690.28 391.166" fill="white"/>
<path d="M58.7539 95.0995L58.5392 93.111L58.5378 93.1112L58.7539 95.0995ZM108.662 94.7179L109.168 96.6526L109.169 96.6525L108.662 94.7179ZM181.738 65.6073L181.313 63.6529L181.738 65.6073ZM264.79 76.4011L265.006 74.4128L265.005 74.4127L264.79 76.4011ZM414.105 26.875L413.309 25.0401L413.308 25.0405L414.105 26.875ZM561.02 9.29415L561.798 7.45173L561.798 7.45164L561.02 9.29415ZM701.149 38.432L701.229 40.4304L701.229 40.4304L701.149 38.432ZM785.319 20.3878L785.155 18.3945L785.155 18.3945L785.319 20.3878ZM889.768 37.5325L889.434 39.5044L889.434 39.5045L889.768 37.5325ZM1071.74 8.47645L1071.82 10.4745L1071.82 10.4745L1071.74 8.47645ZM1181.66 12.2924L1182.09 10.3374L1182.09 10.3373L1181.66 12.2924ZM1265.34 42.1389L1265.72 40.174L1265.71 40.1738L1265.34 42.1389ZM1363.47 43.3383L1363.91 41.3882L1363.91 41.3881L1363.47 43.3383ZM1454.94 85.723L1455.67 83.8579L1455.66 83.8575L1454.94 85.723ZM-130.492 391.193L-128.52 391.527C-106.741 262.69 -73.9338 190.641 -39.6159 150.043C-5.39104 109.555 30.4759 100.185 58.97 97.0877L58.7539 95.0995L58.5378 93.1112C29.3559 96.2831 -7.5944 105.966 -42.6707 147.46C-77.6538 188.845 -110.632 261.708 -132.464 390.86L-130.492 391.193ZM58.7539 95.0995L58.9686 97.0879C66.9005 96.2315 73.8874 97.4469 81.8886 98.2679C89.8363 99.0834 98.481 99.451 109.168 96.6526L108.662 94.7179L108.155 92.7831C98.1268 95.4089 90.0221 95.0814 82.2969 94.2888C74.6254 93.5016 67.0161 92.1957 58.5392 93.111L58.7539 95.0995ZM108.662 94.7179L109.169 96.6525C121.823 93.3364 134.011 87.3228 145.985 81.5665C158.036 75.7727 169.888 70.23 182.163 67.5616L181.738 65.6073L181.313 63.6529C168.511 66.436 156.254 72.1913 144.251 77.9614C132.171 83.7689 120.359 89.5849 108.155 92.7832L108.662 94.7179ZM181.738 65.6073L182.163 67.5616C197.098 64.3149 210.516 66.1852 223.818 69.3123C237.001 72.4114 250.406 76.8596 264.576 78.3895L264.79 76.4011L265.005 74.4127C251.154 72.9171 238.392 68.6294 224.734 65.4184C211.194 62.2356 197.097 60.2217 181.313 63.6529L181.738 65.6073ZM264.79 76.4011L264.574 78.3894C291.439 81.3065 318.101 73.5667 343.428 62.8215C356.102 57.4445 368.495 51.2901 380.443 45.3017C392.413 39.3026 403.917 33.4798 414.901 28.7094L414.105 26.875L413.308 25.0405C402.2 29.8646 390.583 35.7454 378.651 41.7257C366.698 47.7168 354.408 53.8179 341.866 59.1393C316.76 69.7909 290.857 77.2197 265.006 74.4128L264.79 76.4011ZM414.105 26.875L414.9 28.7098C461.837 8.3524 511.534 -9.42841 560.242 11.1367L561.02 9.29415L561.798 7.45164C511.345 -13.8502 460.136 4.72998 413.309 25.0401L414.105 26.875ZM561.02 9.29415L560.242 11.1366C603.568 29.435 648.984 42.518 701.229 40.4304L701.149 38.432L701.069 36.4336C649.628 38.4891 604.823 25.6232 561.798 7.45173L561.02 9.29415ZM701.149 38.432L701.229 40.4304C716.488 39.8195 730.378 35.8412 743.979 31.7865C757.641 27.7136 770.984 23.5736 785.483 22.3811L785.319 20.3878L785.155 18.3945C770.161 19.6278 756.398 23.9103 742.836 27.9532C729.214 32.0143 715.766 35.8452 701.069 36.4336L701.149 38.432ZM785.319 20.3878L785.483 22.3811C803.935 20.8657 821.052 23.6158 838.014 27.5258C854.869 31.411 871.846 36.5229 889.434 39.5044L889.768 37.5325L890.102 35.5606C872.638 32.6001 856.142 27.5995 838.913 23.628C821.79 19.681 804.208 16.8298 785.155 18.3945L785.319 20.3878ZM889.768 37.5325L889.434 39.5045C920.514 44.7628 950.605 38.0762 980.576 29.86C1010.67 21.6111 1040.56 11.852 1071.82 10.4745L1071.74 8.47645L1071.65 6.47838C1039.81 7.88114 1009.33 17.8289 979.518 26.0024C949.584 34.2086 920.241 40.6598 890.102 35.5605L889.768 37.5325ZM1071.74 8.47645L1071.82 10.4745C1107.01 8.91755 1147.64 7.00797 1181.24 14.2476L1181.66 12.2924L1182.09 10.3373C1147.87 2.96711 1106.68 4.92803 1071.65 6.4784L1071.74 8.47645ZM1181.66 12.2924L1181.24 14.2475C1195.67 17.3587 1209.05 23.3379 1222.67 29.3324C1236.22 35.2983 1250.01 41.2752 1264.97 44.1041L1265.34 42.1389L1265.71 40.1738C1251.27 37.4422 1237.88 31.6578 1224.28 25.6714C1210.74 19.7137 1196.99 13.5499 1182.09 10.3374L1181.66 12.2924ZM1265.34 42.1389L1264.97 44.1039C1281.32 47.2039 1297.99 45.6114 1314.37 44.2307C1330.85 42.8413 1347.07 41.66 1363.03 45.2885L1363.47 43.3383L1363.91 41.3881C1347.27 37.6026 1330.45 38.8608 1314.03 40.2448C1297.51 41.6375 1281.42 43.1523 1265.72 40.174L1265.34 42.1389ZM1363.47 43.3383L1363.02 45.2883C1379.61 49.0653 1394.28 56.4555 1408.91 64.5337C1423.48 72.5769 1438.09 81.3513 1454.22 87.5885L1454.94 85.723L1455.66 83.8575C1439.86 77.7472 1425.59 69.1725 1410.85 61.0319C1396.17 52.9262 1381.08 45.2977 1363.91 41.3882L1363.47 43.3383ZM1454.94 85.723L1454.22 87.5882C1494.07 103.013 1559.02 150.222 1610.85 208.092C1636.75 237.003 1659.28 268.483 1673.75 299.868C1688.23 331.268 1694.56 362.404 1688.33 390.736L1690.28 391.166L1692.23 391.596C1698.73 362.102 1692.07 330.039 1677.39 298.194C1662.69 266.334 1639.9 234.523 1613.83 205.424C1561.75 147.275 1496.31 99.588 1455.67 83.8579L1454.94 85.723Z" fill="white" mask="url(#path-1-inside-1_4975_2837)"/>
</mask>
<g mask="url(#mask0_4975_2837)">
<path d="M-523.018 -153.513L-1367.58 535.601M-492.79 -153.513L-1337.35 535.601M-462.563 -153.513L-1307.12 535.601M-432.335 -153.513L-1276.9 535.601M-402.105 -153.513L-1246.67 535.601M-371.878 -153.513L-1216.44 535.601M-341.65 -153.513L-1186.21 535.601M-311.422 -153.513L-1155.98 535.601M-281.194 -153.513L-1125.76 535.601M-250.967 -153.513L-1095.53 535.601M-220.736 -153.513L-1065.3 535.601M-190.509 -153.513L-1035.07 535.601M-160.281 -153.513L-1004.84 535.601M-130.053 -153.513L-974.614 535.601M-99.8256 -153.513L-944.386 535.601M-69.5979 -153.513L-914.159 535.601M-39.3675 -153.513L-883.928 535.601M-9.13986 -153.513L-853.701 535.601M21.0875 -153.513L-823.473 535.601M51.3156 -153.513L-793.245 535.601M81.5438 -153.513L-763.017 535.601M111.771 -153.513L-732.79 535.601M142.001 -153.513L-702.56 535.601M172.229 -153.513L-672.332 535.601M202.456 -153.513L-642.105 535.601M232.684 -153.513L-611.876 535.601M262.912 -153.513L-581.648 535.601M293.14 -153.513L-551.421 535.601M323.367 -153.513L-521.193 535.601M353.598 -153.513L-490.963 535.601M383.825 -153.513L-460.736 535.601M414.053 -153.513L-430.508 535.601M444.281 -153.513L-400.28 535.601M474.508 -153.513L-370.052 535.601M504.736 -153.513L-339.825 535.601M534.966 -153.513L-309.594 535.601M565.194 -153.513L-279.367 535.601M595.421 -153.513L-249.139 535.601M625.65 -153.513L-218.911 535.601M655.877 -153.513L-188.684 535.601M686.107 -153.513L-158.427 535.601M716.334 -153.513L-128.2 535.601M746.562 -153.513L-97.9714 535.601M776.79 -153.513L-67.7433 535.601M807.017 -153.513L-37.516 535.601M837.245 -153.513L-7.28832 535.601M867.475 -153.513L22.942 535.601M897.703 -153.513L53.1697 535.601M927.931 -153.513L83.3972 535.601M958.159 -153.513L113.625 535.601M988.386 -153.513L143.853 535.601M1018.61 -153.513L174.08 535.601M1048.84 -153.513L204.311 535.601M1079.07 -153.513L234.538 535.601M1109.3 -153.513L264.766 535.601M1139.53 -153.513L294.994 535.601M1169.76 -153.513L325.222 535.601M1199.98 -153.513L355.449 535.601M1230.21 -153.513L385.677 535.601M1260.44 -153.513L415.907 535.601M1290.67 -153.513L446.134 535.601M1320.9 -153.513L476.363 535.601M1351.15 -153.513L506.591 535.601M1381.38 -153.513L536.818 535.601M1411.61 -153.513L567.048 535.601M1441.84 -153.513L597.276 535.601M1472.06 -153.513L627.503 535.601M1502.29 -153.513L657.731 535.601M1532.52 -153.513L687.959 535.601M1562.75 -153.513L718.187 535.601M1592.97 -153.513L748.414 535.601M1623.21 -153.513L778.645 535.601M1653.43 -153.513L808.872 535.601M1683.66 -153.513L839.1 535.601M1713.89 -153.513L869.328 535.601M1744.12 -153.513L899.555 535.601M1774.34 -153.513L929.783 535.601M1804.57 -153.513L960.013 535.601M1834.8 -153.513L990.241 535.601M1865.03 -153.513L1020.47 535.601M1895.26 -153.513L1050.7 535.601M1925.49 -153.513L1080.92 535.601M1955.71 -153.513L1111.15 535.601M1985.94 -153.513L1141.38 535.601M2016.17 -153.513L1171.61 535.601M2046.4 -153.513L1201.84 535.601M2076.63 -153.513L1232.07 535.601M2106.85 -153.513L1262.29 535.601M2137.08 -153.513L1292.52 535.601M2167.31 -153.513L1322.75 535.601M2197.54 -153.513L1352.98 535.601M2227.77 -153.513L1383.21 535.601M1765.68 717.406H-705.614V-198.896H1765.68V717.406Z" stroke="url(#paint0_linear_4975_2837)" stroke-width="2" stroke-miterlimit="10"/>
</g>
<mask id="mask1_4975_2837" style="mask-type:luminance" maskUnits="userSpaceOnUse" x="-1191" y="159" width="2113" height="435">
<mask id="path-4-inside-2_4975_2837" fill="white">
<path d="M921.218 593.548C900.448 589.214 661.485 334.851 646.003 328.064C628.94 320.568 599.802 301.87 573.009 299.771C553.111 298.217 551.966 305.25 530.079 307.512C501.786 310.429 509.663 301.788 487.258 299.335C469.35 297.373 456.975 312.119 433.153 310.865C417.398 310.02 405.541 301.189 396.001 297.89C372.315 289.713 357.432 281.809 339.906 270.851C316.52 256.242 294.305 240.623 262.305 228.358C251.075 224.051 237.31 220.508 227.634 215.738C228.67 224.542 221.774 234.872 212.534 242.967C196.071 230.702 165.106 210.777 127.764 208.623C97.9449 206.906 88.4868 212.658 62.7015 203.308C31.1106 191.86 15.9558 172.889 -8.54834 159.043C-33.1342 171.309 -45.1274 192.078 -54.2858 207.124C-58.4834 214.02 -57.5839 223.37 -75.7098 227.186C-97.2974 231.765 -134.585 224.678 -154.919 229.939C-199.348 241.414 -188.118 271.451 -224.37 285.052C-238.516 290.367 -257.896 289.195 -271.606 293.202C-282.809 296.5 -282.373 300.889 -288.151 305.931C-308.376 323.594 -387.776 326.865 -374.911 343.873C-361.064 362.19 -403.776 372.193 -456.791 365.761C-477.261 363.28 -494.46 359.219 -511.142 360.963C-529.649 362.899 -536.736 371.376 -561.104 367.805C-583.918 364.452 -603.87 344.473 -622.678 337.877C-639.55 331.962 -658.03 326.538 -680.899 324.875C-696.463 346.544 -731.624 352.922 -784.285 360.146C-798.54 362.108 -819.392 364.834 -829.096 369.495C-835.91 372.766 -835.883 378.353 -843.378 381.869C-853.818 386.776 -869.109 388.547 -882.901 391.737C-902.472 396.288 -906.778 398.96 -916.809 406.128C-940.795 423.246 -969.878 428.615 -1013.74 438.428C-1046.33 445.733 -1176.35 580.546 -1190.55 593.575"/>
</mask>
<path d="M921.218 593.548C900.448 589.214 661.485 334.851 646.003 328.064C628.94 320.568 599.802 301.87 573.009 299.771C553.111 298.217 551.966 305.25 530.079 307.512C501.786 310.429 509.663 301.788 487.258 299.335C469.35 297.373 456.975 312.119 433.153 310.865C417.398 310.02 405.541 301.189 396.001 297.89C372.315 289.713 357.432 281.809 339.906 270.851C316.52 256.242 294.305 240.623 262.305 228.358C251.075 224.051 237.31 220.508 227.634 215.738C228.67 224.542 221.774 234.872 212.534 242.967C196.071 230.702 165.106 210.777 127.764 208.623C97.9449 206.906 88.4868 212.658 62.7015 203.308C31.1106 191.86 15.9558 172.889 -8.54834 159.043C-33.1342 171.309 -45.1274 192.078 -54.2858 207.124C-58.4834 214.02 -57.5839 223.37 -75.7098 227.186C-97.2974 231.765 -134.585 224.678 -154.919 229.939C-199.348 241.414 -188.118 271.451 -224.37 285.052C-238.516 290.367 -257.896 289.195 -271.606 293.202C-282.809 296.5 -282.373 300.889 -288.151 305.931C-308.376 323.594 -387.776 326.865 -374.911 343.873C-361.064 362.19 -403.776 372.193 -456.791 365.761C-477.261 363.28 -494.46 359.219 -511.142 360.963C-529.649 362.899 -536.736 371.376 -561.104 367.805C-583.918 364.452 -603.87 344.473 -622.678 337.877C-639.55 331.962 -658.03 326.538 -680.899 324.875C-696.463 346.544 -731.624 352.922 -784.285 360.146C-798.54 362.108 -819.392 364.834 -829.096 369.495C-835.91 372.766 -835.883 378.353 -843.378 381.869C-853.818 386.776 -869.109 388.547 -882.901 391.737C-902.472 396.288 -906.778 398.96 -916.809 406.128C-940.795 423.246 -969.878 428.615 -1013.74 438.428C-1046.33 445.733 -1176.35 580.546 -1190.55 593.575" fill="white"/>
<path d="M646.003 328.064L645.199 329.895L645.2 329.896L646.003 328.064ZM573.009 299.771L573.165 297.777L573.164 297.777L573.009 299.771ZM530.079 307.512L530.284 309.502L530.284 309.502L530.079 307.512ZM487.258 299.335L487.04 301.323L487.04 301.323L487.258 299.335ZM433.153 310.865L433.046 312.862L433.048 312.862L433.153 310.865ZM396.001 297.89L396.655 296L396.654 296L396.001 297.89ZM339.906 270.851L340.966 269.156L340.966 269.155L339.906 270.851ZM262.305 228.358L261.589 230.225L261.589 230.225L262.305 228.358ZM227.634 215.738L228.519 213.944L225.218 212.317L225.648 215.971L227.634 215.738ZM212.534 242.967L211.339 244.571L212.636 245.537L213.852 244.472L212.534 242.967ZM127.764 208.623L127.879 206.627L127.879 206.627L127.764 208.623ZM62.7015 203.308L63.3833 201.428L63.3829 201.428L62.7015 203.308ZM-8.54834 159.043L-7.56433 157.302L-8.48987 156.779L-9.44116 157.253L-8.54834 159.043ZM-54.2858 207.124L-52.5774 208.164L-54.2858 207.124ZM-75.7098 227.186L-76.1218 225.228L-76.1248 225.229L-75.7098 227.186ZM-154.919 229.939L-154.419 231.875L-154.418 231.875L-154.919 229.939ZM-224.37 285.052L-225.072 283.18L-225.073 283.18L-224.37 285.052ZM-271.606 293.202L-272.167 291.282L-272.171 291.284L-271.606 293.202ZM-288.151 305.931L-289.466 304.424L-289.467 304.425L-288.151 305.931ZM-374.911 343.873L-373.315 342.667L-373.316 342.667L-374.911 343.873ZM-456.791 365.761L-456.55 363.775L-456.55 363.775L-456.791 365.761ZM-511.142 360.963L-510.934 362.952H-510.934L-511.142 360.963ZM-561.104 367.805L-561.395 369.784L-561.394 369.784L-561.104 367.805ZM-622.678 337.877L-622.016 335.989L-622.016 335.989L-622.678 337.877ZM-680.899 324.875L-680.754 322.88L-681.87 322.799L-682.523 323.708L-680.899 324.875ZM-784.285 360.146L-784.557 358.164L-784.558 358.164L-784.285 360.146ZM-829.096 369.495L-828.23 371.298L-828.23 371.298L-829.096 369.495ZM-843.378 381.869L-844.228 380.059L-844.229 380.059L-843.378 381.869ZM-882.901 391.737L-883.352 389.788L-883.354 389.789L-882.901 391.737ZM-916.809 406.128L-915.647 407.756L-915.646 407.755L-916.809 406.128ZM-1013.74 438.428L-1014.17 436.476L-1014.17 436.476L-1013.74 438.428ZM921.218 593.548L921.626 591.59C921.293 591.521 920.653 591.27 919.639 590.689C918.663 590.129 917.465 589.337 916.05 588.309C913.22 586.254 909.629 583.337 905.371 579.661C896.86 572.313 885.791 562.024 873.016 549.75C847.471 525.208 815.186 492.811 783.049 460.319C750.922 427.838 718.939 395.259 694.029 370.384C681.574 357.948 670.873 347.422 662.796 339.789C658.759 335.974 655.361 332.866 652.72 330.599C651.4 329.466 650.252 328.528 649.296 327.811C648.378 327.122 647.518 326.544 646.806 326.232L646.003 328.064L645.2 329.896C645.456 330.008 646 330.338 646.896 331.01C647.753 331.654 648.828 332.53 650.114 333.634C652.685 335.84 656.029 338.898 660.048 342.696C668.084 350.289 678.753 360.783 691.203 373.215C716.102 398.078 748.061 430.633 780.206 463.132C812.341 495.622 844.659 528.053 870.245 552.634C883.035 564.923 894.164 575.27 902.757 582.688C907.051 586.395 910.738 589.395 913.699 591.545C915.178 592.62 916.503 593.502 917.65 594.16C918.761 594.796 919.844 595.304 920.809 595.506L921.218 593.548ZM646.003 328.064L646.807 326.233C642.608 324.388 637.647 321.845 632.078 318.996C626.532 316.158 620.417 313.034 613.991 310.077C601.166 304.176 586.922 298.855 573.165 297.777L573.009 299.771L572.852 301.765C585.888 302.786 599.611 307.864 612.319 313.711C618.659 316.628 624.703 319.715 630.256 322.557C635.787 325.387 640.867 327.992 645.199 329.895L646.003 328.064ZM573.009 299.771L573.164 297.777C562.889 296.975 557.356 298.403 551.654 300.314C546.117 302.17 540.563 304.418 529.873 305.523L530.079 307.512L530.284 309.502C541.482 308.344 547.443 305.944 552.925 304.107C558.242 302.325 563.23 301.014 572.853 301.765L573.009 299.771ZM530.079 307.512L529.874 305.523C515.94 306.959 511.246 305.521 507.328 303.635C505.359 302.687 503.082 301.335 500.147 300.194C497.107 299.012 493.224 297.976 487.476 297.347L487.258 299.335L487.04 301.323C492.494 301.92 496.029 302.885 498.698 303.922C501.471 305 503.195 306.085 505.593 307.239C510.411 309.558 515.924 310.982 530.284 309.502L530.079 307.512ZM487.258 299.335L487.476 297.347C477.939 296.302 469.888 299.733 461.688 302.974C453.409 306.246 444.707 309.47 433.258 308.868L433.153 310.865L433.048 312.862C445.421 313.513 454.817 309.991 463.158 306.694C471.578 303.366 478.669 300.406 487.04 301.323L487.258 299.335ZM433.153 310.865L433.26 308.868C425.73 308.464 419.083 306.15 413.06 303.47C410.035 302.125 407.219 300.711 404.486 299.39C401.784 298.083 399.161 296.867 396.655 296L396.001 297.89L395.348 299.781C397.611 300.563 400.048 301.687 402.745 302.991C405.41 304.279 408.332 305.745 411.433 307.125C417.662 309.896 424.821 312.421 433.046 312.862L433.153 310.865ZM396.001 297.89L396.654 296C373.139 287.882 358.393 280.051 340.966 269.156L339.906 270.851L338.846 272.547C356.472 283.567 371.491 291.545 395.349 299.781L396.001 297.89ZM339.906 270.851L340.966 269.155C317.668 254.601 295.249 238.843 263.021 226.49L262.305 228.358L261.589 230.225C293.362 242.404 315.371 257.882 338.846 272.548L339.906 270.851ZM262.305 228.358L263.021 226.49C257.352 224.316 251.025 222.328 245.02 220.324C238.966 218.304 233.222 216.262 228.519 213.944L227.634 215.738L226.75 217.531C231.723 219.983 237.699 222.098 243.754 224.118C249.858 226.155 256.029 228.093 261.589 230.225L262.305 228.358ZM227.634 215.738L225.648 215.971C226.096 219.781 224.84 224.119 222.212 228.608C219.596 233.074 215.717 237.52 211.216 241.463L212.534 242.967L213.852 244.472C218.591 240.319 222.78 235.552 225.663 230.629C228.534 225.727 230.208 220.498 229.62 215.504L227.634 215.738ZM212.534 242.967L213.729 241.364C197.181 229.035 165.823 208.815 127.879 206.627L127.764 208.623L127.649 210.62C164.389 212.739 194.96 232.368 211.339 244.571L212.534 242.967ZM127.764 208.623L127.879 206.627C112.905 205.764 102.803 206.775 93.7084 206.828C84.5984 206.881 76.026 206.012 63.3833 201.428L62.7015 203.308L62.0199 205.189C75.1624 209.954 84.2117 210.884 93.7318 210.828C103.268 210.772 112.804 209.765 127.649 210.62L127.764 208.623ZM62.7015 203.308L63.3829 201.428C47.8412 195.796 36.3296 188.314 25.6002 180.461C14.9166 172.642 4.8241 164.302 -7.56433 157.302L-8.54834 159.043L-9.53223 160.784C2.58337 167.63 12.3203 175.699 23.2379 183.689C34.1097 191.646 45.9711 199.373 62.0201 205.189L62.7015 203.308ZM-8.54834 159.043L-9.44116 157.253C-34.6128 169.811 -46.8685 191.092 -55.9941 206.084L-54.2858 207.124L-52.5774 208.164C-43.3862 193.065 -31.6556 172.806 -7.65552 160.832L-8.54834 159.043ZM-54.2858 207.124L-55.9941 206.084C-57.1438 207.973 -57.9412 210.027 -58.703 211.866C-59.4874 213.761 -60.2662 215.52 -61.4148 217.165C-63.6221 220.328 -67.4286 223.398 -76.1218 225.228L-75.7098 227.186L-75.2977 229.143C-65.8651 227.157 -61.0583 223.644 -58.1345 219.455C-56.7175 217.424 -55.8013 215.314 -55.0073 213.397C-54.1908 211.425 -53.5266 209.724 -52.5774 208.164L-54.2858 207.124ZM-75.7098 227.186L-76.1248 225.229C-86.6187 227.455 -101.042 226.854 -115.71 226.308C-130.167 225.77 -144.907 225.282 -155.42 228.002L-154.919 229.939L-154.418 231.875C-144.597 229.334 -130.527 229.759 -115.859 230.305C-101.403 230.843 -86.3885 231.495 -75.2948 229.142L-75.7098 227.186ZM-154.919 229.939L-155.419 228.002C-166.763 230.932 -174.659 235.077 -180.671 239.921C-186.669 244.754 -190.697 250.209 -194.362 255.569C-201.672 266.26 -207.613 276.629 -225.072 283.18L-224.37 285.052L-223.667 286.925C-204.875 279.874 -198.305 268.424 -191.06 257.827C-187.447 252.543 -183.687 247.488 -178.161 243.036C-172.651 238.596 -165.289 234.683 -154.419 231.875L-154.919 229.939ZM-224.37 285.052L-225.073 283.18C-231.872 285.735 -240.007 286.754 -248.36 287.629C-256.594 288.491 -265.094 289.215 -272.167 291.282L-271.606 293.202L-271.045 295.122C-264.408 293.182 -256.363 292.489 -247.943 291.607C-239.643 290.738 -231.014 289.685 -223.666 286.925L-224.37 285.052ZM-271.606 293.202L-272.171 291.284C-278.058 293.017 -281.076 295.105 -283.37 297.542C-284.445 298.685 -285.376 299.928 -286.26 301.022C-287.172 302.151 -288.145 303.271 -289.466 304.424L-288.151 305.931L-286.836 307.438C-285.268 306.07 -284.13 304.751 -283.148 303.536C-282.138 302.286 -281.394 301.28 -280.457 300.283C-278.723 298.441 -276.358 296.686 -271.042 295.121L-271.606 293.202ZM-288.151 305.931L-289.467 304.425C-294.166 308.529 -302.537 311.947 -312.629 315.005C-322.651 318.042 -333.979 320.616 -344.421 323.206C-354.759 325.77 -364.336 328.373 -370.521 331.464C-373.571 332.989 -376.165 334.805 -377.452 337.108C-378.128 338.317 -378.442 339.658 -378.263 341.086C-378.088 342.487 -377.459 343.819 -376.506 345.08L-374.911 343.873L-373.316 342.667C-373.971 341.801 -374.229 341.115 -374.294 340.59C-374.356 340.093 -374.264 339.603 -373.961 339.06C-373.289 337.859 -371.632 336.492 -368.732 335.042C-363.016 332.185 -353.891 329.676 -343.458 327.089C-333.131 324.527 -321.621 321.909 -311.469 318.833C-301.388 315.779 -292.249 312.165 -286.836 307.438L-288.151 305.931ZM-374.911 343.873L-376.506 345.079C-374.943 347.147 -374.318 348.913 -374.279 350.39C-374.24 351.831 -374.753 353.235 -375.935 354.634C-378.401 357.55 -383.578 360.19 -391.274 362.16C-406.521 366.063 -430.181 366.975 -456.55 363.775L-456.791 365.761L-457.032 367.746C-430.386 370.979 -406.183 370.105 -390.282 366.035C-382.404 364.019 -376.186 361.126 -372.88 357.216C-371.177 355.202 -370.211 352.869 -370.28 350.283C-370.348 347.731 -371.417 345.178 -373.315 342.667L-374.911 343.873ZM-456.791 365.761L-456.55 363.775C-461.639 363.158 -466.529 362.443 -471.281 361.741C-476.025 361.04 -480.641 360.35 -485.141 359.793C-494.141 358.678 -502.786 358.079 -511.35 358.974L-511.142 360.963L-510.934 362.952C-502.816 362.104 -494.521 362.662 -485.633 363.762C-481.189 364.313 -476.625 364.994 -471.866 365.698C-467.115 366.4 -462.178 367.122 -457.032 367.746L-456.791 365.761ZM-511.142 360.963L-511.35 358.974C-520.812 359.964 -527.559 362.669 -534.444 364.517C-541.353 366.372 -548.939 367.566 -560.814 365.826L-561.104 367.805L-561.394 369.784C-548.901 371.614 -540.76 370.355 -533.407 368.38C-526.029 366.399 -519.978 363.898 -510.934 362.952L-511.142 360.963ZM-561.104 367.805L-560.813 365.826C-571.78 364.214 -582.167 358.584 -592.349 352.351C-602.383 346.209 -612.349 339.38 -622.016 335.989L-622.678 337.877L-623.34 339.764C-614.199 342.97 -604.785 349.428 -594.438 355.763C-584.238 362.007 -573.242 368.043 -561.395 369.784L-561.104 367.805ZM-622.678 337.877L-622.016 335.989C-638.967 330.047 -657.636 324.561 -680.754 322.88L-680.899 324.875L-681.044 326.87C-658.425 328.514 -640.132 333.877 -623.339 339.764L-622.678 337.877ZM-680.899 324.875L-682.523 323.708C-689.929 334.019 -702.111 340.858 -719.256 346.012C-736.402 351.167 -758.206 354.55 -784.557 358.164L-784.285 360.146L-784.013 362.127C-757.704 358.518 -735.596 355.101 -718.105 349.843C-700.614 344.585 -687.433 337.401 -679.274 326.042L-680.899 324.875ZM-784.285 360.146L-784.558 358.164C-791.669 359.143 -800.497 360.322 -808.759 361.841C-816.966 363.35 -824.844 365.234 -829.962 367.692L-829.096 369.495L-828.23 371.298C-823.644 369.095 -816.244 367.285 -808.036 365.775C-799.882 364.276 -791.156 363.11 -784.012 362.127L-784.285 360.146ZM-829.096 369.495L-829.961 367.692C-833.828 369.548 -835.774 372.111 -837.548 374.347C-839.289 376.54 -840.918 378.506 -844.228 380.059L-843.378 381.869L-842.529 383.68C-838.343 381.717 -836.238 379.13 -834.415 376.833C-832.625 374.578 -831.178 372.713 -828.23 371.298L-829.096 369.495ZM-843.378 381.869L-844.229 380.059C-849.227 382.408 -855.468 384.04 -862.298 385.491C-869.004 386.914 -876.47 388.197 -883.352 389.788L-882.901 391.737L-882.451 393.685C-875.54 392.087 -868.465 390.889 -861.467 389.403C-854.593 387.944 -847.969 386.237 -842.528 383.68L-843.378 381.869ZM-882.901 391.737L-883.354 389.789C-893.172 392.072 -899.292 393.912 -904.248 396.125C-909.225 398.347 -912.952 400.914 -917.972 404.501L-916.809 406.128L-915.646 407.755C-910.635 404.174 -907.193 401.821 -902.617 399.777C-898.019 397.724 -892.201 395.953 -882.448 393.685L-882.901 391.737ZM-916.809 406.128L-917.971 404.5C-941.545 421.324 -970.123 426.621 -1014.17 436.476L-1013.74 438.428L-1013.3 440.38C-969.633 430.61 -940.045 425.168 -915.647 407.756L-916.809 406.128ZM-1013.74 438.428L-1014.17 436.476C-1018.63 437.475 -1024.49 440.563 -1031.21 444.987C-1037.99 449.45 -1045.86 455.414 -1054.38 462.37C-1071.43 476.285 -1091.23 494.267 -1110.42 512.401C-1129.61 530.541 -1148.23 548.855 -1162.93 563.445C-1177.66 578.069 -1188.39 588.88 -1191.9 592.102L-1190.55 593.575L-1189.2 595.049C-1185.61 591.756 -1174.76 580.829 -1160.11 566.284C-1145.42 551.703 -1126.83 533.415 -1107.67 515.309C-1088.5 497.198 -1068.79 479.293 -1051.85 465.469C-1043.38 458.555 -1035.63 452.686 -1029.01 448.328C-1022.33 443.93 -1016.99 441.207 -1013.3 440.379L-1013.74 438.428Z" fill="white" mask="url(#path-4-inside-2_4975_2837)"/>
</mask>
<g mask="url(#mask1_4975_2837)">
<path d="M-1135.71 99.4868L-1980.27 788.6M-1105.48 99.4868L-1950.04 788.6M-1075.25 99.4868L-1919.81 788.6M-1045.02 99.4868L-1889.58 788.6M-1014.79 99.4868L-1859.35 788.6M-984.567 99.4868L-1829.13 788.6M-954.338 99.4868L-1798.9 788.6M-924.11 99.4868L-1768.67 788.6M-893.883 99.4868L-1738.44 788.6M-863.655 99.4868L-1708.22 788.6M-833.425 99.4868L-1677.99 788.6M-803.198 99.4868L-1647.76 788.6M-772.97 99.4868L-1617.53 788.6M-742.742 99.4868L-1587.3 788.6M-712.514 99.4868L-1557.07 788.6M-682.286 99.4868L-1526.85 788.6M-652.056 99.4868L-1496.62 788.6M-621.828 99.4868L-1466.39 788.6M-591.601 99.4868L-1436.13 788.6M-561.374 99.4868L-1405.91 788.6M-531.146 99.4868L-1375.68 788.6M-500.916 99.4868L-1345.45 788.6M-470.689 99.4868L-1315.22 788.6M-440.461 99.4868L-1284.99 788.6M-410.233 99.4868L-1254.77 788.6M-380.005 99.4868L-1224.54 788.6M-349.777 99.4868L-1194.31 788.6M-319.547 99.4868L-1164.08 788.6M-289.319 99.4868L-1133.85 788.6M-259.092 99.4868L-1103.63 788.6M-228.864 99.4868L-1073.4 788.6M-198.636 99.4868L-1043.17 788.6M-168.409 99.4868L-1012.94 788.6M-138.178 99.4868L-982.712 788.6M-107.951 99.4868L-952.484 788.6M-77.7234 99.4868L-922.257 788.6M-47.4954 99.4868L-892.029 788.6M-17.2672 99.4868L-861.801 788.6M12.9599 99.4868L-831.573 788.6M43.2151 99.4868L-801.346 788.6M73.4453 99.4868L-771.115 788.6M103.672 99.4868L-740.888 788.6M133.9 99.4868L-710.66 788.6M164.129 99.4868L-680.432 788.6M194.356 99.4868L-650.205 788.6M224.584 99.4868L-619.977 788.6M254.814 99.4868L-589.747 788.6M285.042 99.4868L-559.519 788.6M315.269 99.4868L-529.292 788.6M345.497 99.4868L-499.063 788.6M375.725 99.4868L-468.836 788.6M405.953 99.4868L-438.608 788.6M436.183 99.4868L-408.378 788.6M466.411 99.4868L-378.15 788.6M496.638 99.4868L-347.923 788.6M526.866 99.4868L-317.695 788.6M557.094 99.4868L-287.467 788.6M587.321 99.4868L-257.239 788.6M617.552 99.4868L-227.009 788.6M647.779 99.4868L-196.782 788.6M678.006 99.4868L-166.554 788.6M708.235 99.4868L-136.326 788.6M738.463 99.4868L-106.098 788.6M768.69 99.4868L-75.8708 788.6M798.917 99.4868L-45.6431 788.6M829.148 99.4868L-15.4128 788.6M859.375 99.4868L14.8145 788.6M889.603 99.4868L45.0424 788.6M919.831 99.4868L75.2706 788.6M950.059 99.4868L105.498 788.6M980.286 99.4868L135.726 788.6M1010.52 99.4868L165.956 788.6M1040.74 99.4868L196.184 788.6M1070.97 99.4868L226.411 788.6M1101.2 99.4868L256.639 788.6M1131.43 99.4868L286.867 788.6M1161.66 99.4868L317.094 788.6M1191.89 99.4868L347.325 788.6M1222.11 99.4868L377.552 788.6M1252.34 99.4868L407.78 788.6M1282.57 99.4868L438.008 788.6M1312.8 99.4868L468.262 788.6M1343.03 99.4868L498.492 788.6M1373.25 99.4868L528.72 788.6M1403.48 99.4868L558.948 788.6M1433.71 99.4868L589.176 788.6M1463.94 99.4868L619.403 788.6M1494.16 99.4868L649.631 788.6M1524.39 99.4868L679.861 788.6M1554.62 99.4868L710.089 788.6M1584.85 99.4868L740.316 788.6M1615.08 99.4868L770.544 788.6" stroke="url(#paint1_linear_4975_2837)" stroke-width="2" stroke-miterlimit="10"/>
</g>
<mask id="mask2_4975_2837" style="mask-type:luminance" maskUnits="userSpaceOnUse" x="-42" y="159" width="2113" height="435">
<mask id="path-7-inside-3_4975_2837" fill="white">
<path d="M2070.22 593.548C2049.45 589.214 1810.49 334.851 1795 328.064C1777.94 320.568 1748.8 301.87 1722.01 299.771C1702.11 298.217 1700.97 305.25 1679.08 307.512C1650.79 310.429 1658.66 301.788 1636.26 299.335C1618.35 297.373 1605.98 312.119 1582.15 310.865C1566.4 310.02 1554.54 301.189 1545 297.89C1521.31 289.713 1506.43 281.809 1488.91 270.851C1465.52 256.242 1443.31 240.623 1411.31 228.358C1400.08 224.051 1386.31 220.508 1376.63 215.738C1377.67 224.542 1370.77 234.872 1361.53 242.967C1345.07 230.702 1314.11 210.777 1276.76 208.623C1246.94 206.906 1237.49 212.658 1211.7 203.308C1180.11 191.86 1164.96 172.889 1140.45 159.043C1115.87 171.309 1103.87 192.078 1094.71 207.124C1090.52 214.02 1091.42 223.37 1073.29 227.186C1051.7 231.765 1014.41 224.678 994.081 229.939C949.652 241.414 960.882 271.451 924.63 285.052C910.484 290.367 891.104 289.195 877.394 293.202C866.191 296.5 866.627 300.889 860.849 305.931C840.624 323.594 761.224 326.865 774.089 343.873C787.936 362.19 745.224 372.193 692.209 365.761C671.739 363.28 654.54 359.219 637.858 360.963C619.351 362.899 612.264 371.376 587.896 367.805C565.082 364.452 545.13 344.473 526.322 337.877C509.45 331.962 490.97 326.538 468.101 324.875C452.537 346.544 417.376 352.922 364.715 360.146C350.46 362.108 329.608 364.834 319.904 369.495C313.09 372.766 313.117 378.353 305.622 381.869C295.182 386.776 279.891 388.547 266.099 391.737C246.528 396.288 242.222 398.96 232.191 406.128C208.205 423.246 179.122 428.615 135.265 438.428C102.665 445.733 -27.3508 580.546 -41.5518 593.575"/>
</mask>
<path d="M2070.22 593.548C2049.45 589.214 1810.49 334.851 1795 328.064C1777.94 320.568 1748.8 301.87 1722.01 299.771C1702.11 298.217 1700.97 305.25 1679.08 307.512C1650.79 310.429 1658.66 301.788 1636.26 299.335C1618.35 297.373 1605.98 312.119 1582.15 310.865C1566.4 310.02 1554.54 301.189 1545 297.89C1521.31 289.713 1506.43 281.809 1488.91 270.851C1465.52 256.242 1443.31 240.623 1411.31 228.358C1400.08 224.051 1386.31 220.508 1376.63 215.738C1377.67 224.542 1370.77 234.872 1361.53 242.967C1345.07 230.702 1314.11 210.777 1276.76 208.623C1246.94 206.906 1237.49 212.658 1211.7 203.308C1180.11 191.86 1164.96 172.889 1140.45 159.043C1115.87 171.309 1103.87 192.078 1094.71 207.124C1090.52 214.02 1091.42 223.37 1073.29 227.186C1051.7 231.765 1014.41 224.678 994.081 229.939C949.652 241.414 960.882 271.451 924.63 285.052C910.484 290.367 891.104 289.195 877.394 293.202C866.191 296.5 866.627 300.889 860.849 305.931C840.624 323.594 761.224 326.865 774.089 343.873C787.936 362.19 745.224 372.193 692.209 365.761C671.739 363.28 654.54 359.219 637.858 360.963C619.351 362.899 612.264 371.376 587.896 367.805C565.082 364.452 545.13 344.473 526.322 337.877C509.45 331.962 490.97 326.538 468.101 324.875C452.537 346.544 417.376 352.922 364.715 360.146C350.46 362.108 329.608 364.834 319.904 369.495C313.09 372.766 313.117 378.353 305.622 381.869C295.182 386.776 279.891 388.547 266.099 391.737C246.528 396.288 242.222 398.96 232.191 406.128C208.205 423.246 179.122 428.615 135.265 438.428C102.665 445.733 -27.3508 580.546 -41.5518 593.575" fill="white"/>
<path d="M1795 328.064L1794.2 329.895L1794.2 329.896L1795 328.064ZM1722.01 299.771L1722.16 297.777L1722.16 297.777L1722.01 299.771ZM1679.08 307.512L1679.28 309.502L1679.28 309.502L1679.08 307.512ZM1636.26 299.335L1636.04 301.323L1636.04 301.323L1636.26 299.335ZM1582.15 310.865L1582.05 312.862L1582.05 312.862L1582.15 310.865ZM1545 297.89L1545.65 296L1545.65 296L1545 297.89ZM1488.91 270.851L1489.97 269.156L1489.97 269.155L1488.91 270.851ZM1411.31 228.358L1410.59 230.225L1410.59 230.225L1411.31 228.358ZM1376.63 215.738L1377.52 213.944L1374.22 212.317L1374.65 215.971L1376.63 215.738ZM1361.53 242.967L1360.34 244.571L1361.64 245.537L1362.85 244.472L1361.53 242.967ZM1276.76 208.623L1276.88 206.627L1276.88 206.627L1276.76 208.623ZM1211.7 203.308L1212.38 201.428L1212.38 201.428L1211.7 203.308ZM1140.45 159.043L1141.44 157.302L1140.51 156.779L1139.56 157.253L1140.45 159.043ZM1094.71 207.124L1096.42 208.164L1094.71 207.124ZM1073.29 227.186L1072.88 225.228L1072.88 225.229L1073.29 227.186ZM994.081 229.939L994.581 231.875L994.582 231.875L994.081 229.939ZM924.63 285.052L923.928 283.18L923.927 283.18L924.63 285.052ZM877.394 293.202L876.833 291.282L876.829 291.284L877.394 293.202ZM860.849 305.931L859.534 304.424L859.533 304.425L860.849 305.931ZM774.089 343.873L775.685 342.667L775.684 342.667L774.089 343.873ZM692.209 365.761L692.45 363.775L692.45 363.775L692.209 365.761ZM637.858 360.963L638.066 362.952H638.066L637.858 360.963ZM587.896 367.805L587.605 369.784L587.606 369.784L587.896 367.805ZM526.322 337.877L526.984 335.989L526.984 335.989L526.322 337.877ZM468.101 324.875L468.246 322.88L467.13 322.799L466.477 323.708L468.101 324.875ZM364.715 360.146L364.443 358.164L364.442 358.164L364.715 360.146ZM319.904 369.495L320.77 371.298L320.77 371.298L319.904 369.495ZM305.622 381.869L304.772 380.059L304.771 380.059L305.622 381.869ZM266.099 391.737L265.648 389.788L265.646 389.789L266.099 391.737ZM232.191 406.128L233.353 407.756L233.354 407.755L232.191 406.128ZM135.265 438.428L134.828 436.476L134.828 436.476L135.265 438.428ZM2070.22 593.548L2070.63 591.59C2070.29 591.521 2069.65 591.27 2068.64 590.689C2067.66 590.129 2066.47 589.337 2065.05 588.309C2062.22 586.254 2058.63 583.337 2054.37 579.661C2045.86 572.313 2034.79 562.024 2022.02 549.75C1996.47 525.208 1964.19 492.811 1932.05 460.319C1899.92 427.838 1867.94 395.259 1843.03 370.384C1830.57 357.948 1819.87 347.422 1811.8 339.789C1807.76 335.974 1804.36 332.866 1801.72 330.599C1800.4 329.466 1799.25 328.528 1798.3 327.811C1797.38 327.122 1796.52 326.544 1795.81 326.232L1795 328.064L1794.2 329.896C1794.46 330.008 1795 330.338 1795.9 331.01C1796.75 331.654 1797.83 332.53 1799.11 333.634C1801.68 335.84 1805.03 338.898 1809.05 342.696C1817.08 350.289 1827.75 360.783 1840.2 373.215C1865.1 398.078 1897.06 430.633 1929.21 463.132C1961.34 495.622 1993.66 528.053 2019.24 552.634C2032.04 564.923 2043.16 575.27 2051.76 582.688C2056.05 586.395 2059.74 589.395 2062.7 591.545C2064.18 592.62 2065.5 593.502 2066.65 594.16C2067.76 594.796 2068.84 595.304 2069.81 595.506L2070.22 593.548ZM1795 328.064L1795.81 326.233C1791.61 324.388 1786.65 321.845 1781.08 318.996C1775.53 316.158 1769.42 313.034 1762.99 310.077C1750.17 304.176 1735.92 298.855 1722.16 297.777L1722.01 299.771L1721.85 301.765C1734.89 302.786 1748.61 307.864 1761.32 313.711C1767.66 316.628 1773.7 319.715 1779.26 322.557C1784.79 325.387 1789.87 327.992 1794.2 329.895L1795 328.064ZM1722.01 299.771L1722.16 297.777C1711.89 296.975 1706.36 298.403 1700.65 300.314C1695.12 302.17 1689.56 304.418 1678.87 305.523L1679.08 307.512L1679.28 309.502C1690.48 308.344 1696.44 305.944 1701.93 304.107C1707.24 302.325 1712.23 301.014 1721.85 301.765L1722.01 299.771ZM1679.08 307.512L1678.87 305.523C1664.94 306.959 1660.25 305.521 1656.33 303.635C1654.36 302.687 1652.08 301.335 1649.15 300.194C1646.11 299.012 1642.22 297.976 1636.48 297.347L1636.26 299.335L1636.04 301.323C1641.49 301.92 1645.03 302.885 1647.7 303.922C1650.47 305 1652.19 306.085 1654.59 307.239C1659.41 309.558 1664.92 310.982 1679.28 309.502L1679.08 307.512ZM1636.26 299.335L1636.48 297.347C1626.94 296.302 1618.89 299.733 1610.69 302.974C1602.41 306.246 1593.71 309.47 1582.26 308.868L1582.15 310.865L1582.05 312.862C1594.42 313.513 1603.82 309.991 1612.16 306.694C1620.58 303.366 1627.67 300.406 1636.04 301.323L1636.26 299.335ZM1582.15 310.865L1582.26 308.868C1574.73 308.464 1568.08 306.15 1562.06 303.47C1559.04 302.125 1556.22 300.711 1553.49 299.39C1550.78 298.083 1548.16 296.867 1545.65 296L1545 297.89L1544.35 299.781C1546.61 300.563 1549.05 301.687 1551.74 302.991C1554.41 304.279 1557.33 305.745 1560.43 307.125C1566.66 309.896 1573.82 312.421 1582.05 312.862L1582.15 310.865ZM1545 297.89L1545.65 296C1522.14 287.882 1507.39 280.051 1489.97 269.156L1488.91 270.851L1487.85 272.547C1505.47 283.567 1520.49 291.545 1544.35 299.781L1545 297.89ZM1488.91 270.851L1489.97 269.155C1466.67 254.601 1444.25 238.843 1412.02 226.49L1411.31 228.358L1410.59 230.225C1442.36 242.404 1464.37 257.882 1487.85 272.548L1488.91 270.851ZM1411.31 228.358L1412.02 226.49C1406.35 224.316 1400.03 222.328 1394.02 220.324C1387.97 218.304 1382.22 216.262 1377.52 213.944L1376.63 215.738L1375.75 217.531C1380.72 219.983 1386.7 222.098 1392.75 224.118C1398.86 226.155 1405.03 228.093 1410.59 230.225L1411.31 228.358ZM1376.63 215.738L1374.65 215.971C1375.1 219.781 1373.84 224.119 1371.21 228.608C1368.6 233.074 1364.72 237.52 1360.22 241.463L1361.53 242.967L1362.85 244.472C1367.59 240.319 1371.78 235.552 1374.66 230.629C1377.53 225.727 1379.21 220.498 1378.62 215.504L1376.63 215.738ZM1361.53 242.967L1362.73 241.364C1346.18 229.035 1314.82 208.815 1276.88 206.627L1276.76 208.623L1276.65 210.62C1313.39 212.739 1343.96 232.368 1360.34 244.571L1361.53 242.967ZM1276.76 208.623L1276.88 206.627C1261.91 205.764 1251.8 206.775 1242.71 206.828C1233.6 206.881 1225.03 206.012 1212.38 201.428L1211.7 203.308L1211.02 205.189C1224.16 209.954 1233.21 210.884 1242.73 210.828C1252.27 210.772 1261.8 209.765 1276.65 210.62L1276.76 208.623ZM1211.7 203.308L1212.38 201.428C1196.84 195.796 1185.33 188.314 1174.6 180.461C1163.92 172.642 1153.82 164.302 1141.44 157.302L1140.45 159.043L1139.47 160.784C1151.58 167.63 1161.32 175.699 1172.24 183.689C1183.11 191.646 1194.97 199.373 1211.02 205.189L1211.7 203.308ZM1140.45 159.043L1139.56 157.253C1114.39 169.811 1102.13 191.092 1093.01 206.084L1094.71 207.124L1096.42 208.164C1105.61 193.065 1117.34 172.806 1141.34 160.832L1140.45 159.043ZM1094.71 207.124L1093.01 206.084C1091.86 207.973 1091.06 210.027 1090.3 211.866C1089.51 213.761 1088.73 215.52 1087.59 217.165C1085.38 220.328 1081.57 223.398 1072.88 225.228L1073.29 227.186L1073.7 229.143C1083.13 227.157 1087.94 223.644 1090.87 219.455C1092.28 217.424 1093.2 215.314 1093.99 213.397C1094.81 211.425 1095.47 209.724 1096.42 208.164L1094.71 207.124ZM1073.29 227.186L1072.88 225.229C1062.38 227.455 1047.96 226.854 1033.29 226.308C1018.83 225.77 1004.09 225.282 993.58 228.002L994.081 229.939L994.582 231.875C1004.4 229.334 1018.47 229.759 1033.14 230.305C1047.6 230.843 1062.61 231.495 1073.71 229.142L1073.29 227.186ZM994.081 229.939L993.581 228.002C982.237 230.932 974.341 235.077 968.329 239.921C962.331 244.754 958.303 250.209 954.638 255.569C947.328 266.26 941.387 276.629 923.928 283.18L924.63 285.052L925.333 286.925C944.125 279.874 950.695 268.424 957.94 257.827C961.553 252.543 965.313 247.488 970.839 243.036C976.349 238.596 983.711 234.683 994.581 231.875L994.081 229.939ZM924.63 285.052L923.927 283.18C917.128 285.735 908.993 286.754 900.64 287.629C892.406 288.491 883.906 289.215 876.833 291.282L877.394 293.202L877.955 295.122C884.592 293.182 892.637 292.489 901.057 291.607C909.357 290.738 917.986 289.685 925.334 286.925L924.63 285.052ZM877.394 293.202L876.829 291.284C870.942 293.017 867.924 295.105 865.63 297.542C864.555 298.685 863.624 299.928 862.74 301.022C861.828 302.151 860.855 303.271 859.534 304.424L860.849 305.931L862.164 307.438C863.732 306.07 864.87 304.751 865.852 303.536C866.862 302.286 867.606 301.28 868.543 300.283C870.277 298.441 872.642 296.686 877.958 295.121L877.394 293.202ZM860.849 305.931L859.533 304.425C854.834 308.529 846.463 311.947 836.371 315.005C826.349 318.042 815.021 320.616 804.579 323.206C794.241 325.77 784.664 328.373 778.479 331.464C775.429 332.989 772.835 334.805 771.548 337.108C770.872 338.317 770.558 339.658 770.737 341.086C770.912 342.487 771.541 343.819 772.494 345.08L774.089 343.873L775.684 342.667C775.029 341.801 774.771 341.115 774.706 340.59C774.644 340.093 774.736 339.603 775.039 339.06C775.711 337.859 777.368 336.492 780.268 335.042C785.984 332.185 795.109 329.676 805.542 327.089C815.869 324.527 827.379 321.909 837.531 318.833C847.612 315.779 856.751 312.165 862.164 307.438L860.849 305.931ZM774.089 343.873L772.494 345.079C774.057 347.147 774.682 348.913 774.721 350.39C774.76 351.831 774.247 353.235 773.065 354.634C770.599 357.55 765.422 360.19 757.726 362.16C742.479 366.063 718.819 366.975 692.45 363.775L692.209 365.761L691.968 367.746C718.614 370.979 742.817 370.105 758.718 366.035C766.596 364.019 772.814 361.126 776.12 357.216C777.823 355.202 778.789 352.869 778.72 350.283C778.652 347.731 777.583 345.178 775.685 342.667L774.089 343.873ZM692.209 365.761L692.45 363.775C687.361 363.158 682.471 362.443 677.719 361.741C672.975 361.04 668.359 360.35 663.859 359.793C654.859 358.678 646.214 358.079 637.65 358.974L637.858 360.963L638.066 362.952C646.184 362.104 654.479 362.662 663.367 363.762C667.811 364.313 672.375 364.994 677.134 365.698C681.885 366.4 686.822 367.122 691.968 367.746L692.209 365.761ZM637.858 360.963L637.65 358.974C628.188 359.964 621.441 362.669 614.556 364.517C607.647 366.372 600.061 367.566 588.186 365.826L587.896 367.805L587.606 369.784C600.099 371.614 608.24 370.355 615.593 368.38C622.971 366.399 629.022 363.898 638.066 362.952L637.858 360.963ZM587.896 367.805L588.187 365.826C577.22 364.214 566.833 358.584 556.651 352.351C546.617 346.209 536.651 339.38 526.984 335.989L526.322 337.877L525.66 339.764C534.801 342.97 544.215 349.428 554.562 355.763C564.762 362.007 575.758 368.043 587.605 369.784L587.896 367.805ZM526.322 337.877L526.984 335.989C510.033 330.047 491.364 324.561 468.246 322.88L468.101 324.875L467.956 326.87C490.575 328.514 508.868 333.877 525.661 339.764L526.322 337.877ZM468.101 324.875L466.477 323.708C459.071 334.019 446.889 340.858 429.744 346.012C412.598 351.167 390.794 354.55 364.443 358.164L364.715 360.146L364.987 362.127C391.296 358.518 413.404 355.101 430.895 349.843C448.386 344.585 461.567 337.401 469.726 326.042L468.101 324.875ZM364.715 360.146L364.442 358.164C357.331 359.143 348.503 360.322 340.241 361.841C332.034 363.35 324.156 365.234 319.038 367.692L319.904 369.495L320.77 371.298C325.356 369.095 332.756 367.285 340.964 365.775C349.118 364.276 357.844 363.11 364.988 362.127L364.715 360.146ZM319.904 369.495L319.039 367.692C315.172 369.548 313.226 372.111 311.452 374.347C309.711 376.54 308.082 378.506 304.772 380.059L305.622 381.869L306.471 383.68C310.657 381.717 312.762 379.13 314.585 376.833C316.375 374.578 317.822 372.713 320.77 371.298L319.904 369.495ZM305.622 381.869L304.771 380.059C299.773 382.408 293.532 384.04 286.702 385.491C279.996 386.914 272.53 388.197 265.648 389.788L266.099 391.737L266.549 393.685C273.46 392.087 280.535 390.889 287.533 389.403C294.407 387.944 301.031 386.237 306.472 383.68L305.622 381.869ZM266.099 391.737L265.646 389.789C255.828 392.072 249.708 393.912 244.752 396.125C239.775 398.347 236.048 400.914 231.028 404.501L232.191 406.128L233.354 407.755C238.365 404.174 241.807 401.821 246.383 399.777C250.981 397.724 256.799 395.953 266.552 393.685L266.099 391.737ZM232.191 406.128L231.029 404.5C207.455 421.324 178.877 426.621 134.828 436.476L135.265 438.428L135.702 440.38C179.367 430.61 208.955 425.168 233.353 407.756L232.191 406.128ZM135.265 438.428L134.828 436.476C130.371 437.475 124.513 440.563 117.791 444.987C111.008 449.45 103.141 455.414 94.6169 462.37C77.5658 476.285 57.7728 494.267 38.5835 512.401C19.3888 530.541 0.77327 548.855 -13.9263 563.445C-28.6615 578.069 -39.3922 588.88 -42.9038 592.102L-41.5518 593.575L-40.1997 595.049C-36.6109 591.756 -25.7641 580.829 -11.1086 566.284C3.58267 551.703 22.1714 533.415 41.3308 515.309C60.4956 497.198 80.2066 479.293 97.146 465.469C105.617 458.555 113.367 452.686 119.99 448.328C126.672 443.93 132.009 441.207 135.702 440.379L135.265 438.428Z" fill="white" mask="url(#path-7-inside-3_4975_2837)"/>
</mask>
<g mask="url(#mask2_4975_2837)">
<path d="M13.293 99.4868L-831.268 788.6M43.5211 99.4868L-801.039 788.6M73.7484 99.4868L-770.812 788.6M103.976 99.4868L-740.585 788.6M134.206 99.4868L-710.354 788.6M164.434 99.4868L-680.127 788.6M194.662 99.4868L-649.899 788.6M224.89 99.4868L-619.671 788.6M255.117 99.4868L-589.443 788.6M285.345 99.4868L-559.216 788.6M315.575 99.4868L-528.985 788.6M345.802 99.4868L-498.758 788.6M376.03 99.4868L-468.53 788.6M406.258 99.4868L-438.302 788.6M436.486 99.4868L-408.074 788.6M466.714 99.4868L-377.847 788.6M496.944 99.4868L-347.617 788.6M527.172 99.4868L-317.389 788.6M557.399 99.4868L-287.134 788.6M587.626 99.4868L-256.907 788.6M617.854 99.4868L-226.679 788.6M648.084 99.4868L-196.449 788.6M678.311 99.4868L-166.222 788.6M708.539 99.4868L-135.994 788.6M738.768 99.4868L-105.766 788.6M768.995 99.4868L-75.5384 788.6M799.223 99.4868L-45.3107 788.6M829.453 99.4868L-15.0803 788.6M859.681 99.4868L15.1473 788.6M889.908 99.4868L45.3747 788.6M920.136 99.4868L75.6028 788.6M950.364 99.4868L105.831 788.6M980.591 99.4868L136.058 788.6M1010.82 99.4868L166.288 788.6M1041.05 99.4868L196.516 788.6M1071.28 99.4868L226.743 788.6M1101.5 99.4868L256.971 788.6M1131.73 99.4868L287.199 788.6M1161.96 99.4868L317.427 788.6M1192.22 99.4868L347.654 788.6M1222.45 99.4868L377.885 788.6M1252.67 99.4868L408.112 788.6M1282.9 99.4868L438.34 788.6M1313.13 99.4868L468.568 788.6M1343.36 99.4868L498.796 788.6M1373.58 99.4868L529.023 788.6M1403.81 99.4868L559.254 788.6M1434.04 99.4868L589.481 788.6M1464.27 99.4868L619.709 788.6M1494.5 99.4868L649.937 788.6M1524.72 99.4868L680.164 788.6M1554.95 99.4868L710.392 788.6M1585.18 99.4868L740.622 788.6M1615.41 99.4868L770.85 788.6M1645.64 99.4868L801.077 788.6M1675.87 99.4868L831.305 788.6M1706.09 99.4868L861.533 788.6M1736.32 99.4868L891.761 788.6M1766.55 99.4868L921.991 788.6M1796.78 99.4868L952.219 788.6M1827.01 99.4868L982.446 788.6M1857.23 99.4868L1012.67 788.6M1887.46 99.4868L1042.9 788.6M1917.69 99.4868L1073.13 788.6M1947.92 99.4868L1103.36 788.6M1978.15 99.4868L1133.59 788.6M2008.38 99.4868L1163.81 788.6M2038.6 99.4868L1194.04 788.6M2068.83 99.4868L1224.27 788.6M2099.06 99.4868L1254.5 788.6M2129.29 99.4868L1284.73 788.6M2159.52 99.4868L1314.96 788.6M2189.74 99.4868L1345.18 788.6M2219.97 99.4868L1375.41 788.6M2250.2 99.4868L1405.64 788.6M2280.43 99.4868L1435.87 788.6M2310.66 99.4868L1466.09 788.6M2340.89 99.4868L1496.32 788.6M2371.11 99.4868L1526.55 788.6M2401.34 99.4868L1556.78 788.6M2431.57 99.4868L1587.01 788.6M2461.8 99.4868L1617.26 788.6M2492.03 99.4868L1647.49 788.6M2522.25 99.4868L1677.72 788.6M2552.48 99.4868L1707.95 788.6M2582.71 99.4868L1738.18 788.6M2612.94 99.4868L1768.4 788.6M2643.16 99.4868L1798.63 788.6M2673.39 99.4868L1828.86 788.6M2703.62 99.4868L1859.09 788.6M2733.85 99.4868L1889.32 788.6M2764.08 99.4868L1919.54 788.6" stroke="url(#paint2_linear_4975_2837)" stroke-width="2" stroke-miterlimit="10"/>
</g>
<mask id="mask3_4975_2837" style="mask-type:luminance" maskUnits="userSpaceOnUse" x="-168" y="421" width="1824" height="460">
<mask id="path-10-inside-4_4975_2837" fill="white">
<path d="M1655.5 880.059C1611.89 577.38 1523.93 540.028 1466.25 532.673C1449.85 530.595 1437.06 538.589 1416.35 532.226C1391.49 524.583 1368.35 504.468 1343.27 498.072C1312.55 490.237 1288.24 507.186 1260.22 510.736C1207.5 517.451 1155.09 475.143 1110.9 452.63C1064.02 428.774 1013.57 407.444 963.988 432.004C920.813 453.398 875.702 468.62 823.859 466.189C793.904 464.782 769.182 447.865 739.689 445.019C702.184 441.406 670.293 458.162 635.24 465.134C574.021 477.286 516.372 434.306 453.272 431.044C418.165 429.222 377.252 426.951 343.344 435.521C314.015 442.941 289.075 464.015 259.665 470.538C227.611 477.67 194.139 463.247 161.539 471.945C128.94 480.644 102.01 507.186 70.0645 521.672C-10.4256 558.224 -190.731 744.341 -165.273 880.027"/>
</mask>
<path d="M1655.5 880.059C1611.89 577.38 1523.93 540.028 1466.25 532.673C1449.85 530.595 1437.06 538.589 1416.35 532.226C1391.49 524.583 1368.35 504.468 1343.27 498.072C1312.55 490.237 1288.24 507.186 1260.22 510.736C1207.5 517.451 1155.09 475.143 1110.9 452.63C1064.02 428.774 1013.57 407.444 963.988 432.004C920.813 453.398 875.702 468.62 823.859 466.189C793.904 464.782 769.182 447.865 739.689 445.019C702.184 441.406 670.293 458.162 635.24 465.134C574.021 477.286 516.372 434.306 453.272 431.044C418.165 429.222 377.252 426.951 343.344 435.521C314.015 442.941 289.075 464.015 259.665 470.538C227.611 477.67 194.139 463.247 161.539 471.945C128.94 480.644 102.01 507.186 70.0645 521.672C-10.4256 558.224 -190.731 744.341 -165.273 880.027" fill="white"/>
<path d="M1466.25 532.673L1466.51 530.689L1466.51 530.689L1466.25 532.673ZM1416.35 532.226L1415.76 534.137L1415.76 534.137L1416.35 532.226ZM1343.27 498.072L1343.76 496.134L1343.27 498.072ZM1260.22 510.736L1259.97 508.752L1259.97 508.752L1260.22 510.736ZM1110.9 452.63L1111.81 450.848L1111.81 450.848L1110.9 452.63ZM963.988 432.004L963.1 430.212L963.1 430.212L963.988 432.004ZM823.859 466.189L823.765 468.187L823.766 468.187L823.859 466.189ZM739.689 445.019L739.881 443.028L739.881 443.028L739.689 445.019ZM635.24 465.134L635.63 467.096L635.63 467.095L635.24 465.134ZM453.272 431.044L453.168 433.042L453.169 433.042L453.272 431.044ZM343.344 435.521L342.854 433.582L342.853 433.583L343.344 435.521ZM259.665 470.538L259.232 468.586L259.23 468.586L259.665 470.538ZM70.0645 521.672L69.2386 519.851L69.2376 519.851L70.0645 521.672ZM1655.5 880.059L1657.48 879.774C1635.66 728.312 1602.7 642.928 1567.77 594.45C1532.74 545.822 1495.78 534.422 1466.51 530.689L1466.25 532.673L1466 534.657C1494.41 538.279 1530.26 549.233 1564.53 596.789C1598.9 644.495 1631.73 729.127 1653.52 880.345L1655.5 880.059ZM1466.25 532.673L1466.51 530.689C1457.98 529.609 1450.32 531.151 1442.68 532.071C1434.97 532.998 1426.91 533.379 1416.93 530.314L1416.35 532.226L1415.76 534.137C1426.5 537.436 1435.19 537.001 1443.15 536.042C1451.18 535.075 1458.12 533.658 1466 534.657L1466.25 532.673ZM1416.35 532.226L1416.93 530.314C1404.76 526.569 1392.96 519.757 1380.87 512.939C1368.88 506.174 1356.6 499.408 1343.76 496.134L1343.27 498.072L1342.78 500.01C1355.02 503.132 1366.85 509.622 1378.91 516.423C1390.87 523.172 1403.08 530.239 1415.76 534.137L1416.35 532.226ZM1343.27 498.072L1343.76 496.134C1327.91 492.091 1313.76 494.468 1300.2 498.207C1286.51 501.984 1273.79 507 1259.97 508.752L1260.22 510.736L1260.47 512.72C1274.66 510.922 1288.12 505.689 1301.26 502.063C1314.55 498.398 1327.91 496.219 1342.78 500.01L1343.27 498.072ZM1260.22 510.736L1259.97 508.752C1234.2 512.034 1208.36 503.351 1183.25 490.853C1170.71 484.612 1158.43 477.456 1146.47 470.427C1134.54 463.412 1122.92 456.51 1111.81 450.848L1110.9 452.63L1110 454.412C1120.98 460.007 1132.48 466.836 1144.45 473.875C1156.39 480.901 1168.79 488.123 1181.47 494.434C1206.8 507.04 1233.52 516.153 1260.47 512.72L1260.22 510.736ZM1110.9 452.63L1111.81 450.848C1065.01 427.035 1013.68 405.158 963.1 430.212L963.988 432.004L964.876 433.796C1013.46 409.73 1063.03 430.513 1110 454.413L1110.9 452.63ZM963.988 432.004L963.1 430.212C920.082 451.528 875.323 466.6 823.953 464.191L823.859 466.189L823.766 468.187C876.081 470.64 921.543 455.268 964.876 433.796L963.988 432.004ZM823.859 466.189L823.953 464.191C809.303 463.503 795.889 459.023 782.261 454.256C768.709 449.516 754.915 444.479 739.881 443.028L739.689 445.019L739.497 447.01C753.956 448.405 767.269 453.25 780.94 458.032C794.536 462.787 808.46 467.468 823.765 468.187L823.859 466.189ZM739.689 445.019L739.881 443.028C720.776 441.188 703.155 444.543 686.023 449.177C668.767 453.843 652.305 459.701 634.85 463.172L635.24 465.134L635.63 467.095C653.228 463.596 670.238 457.589 687.067 453.038C704.02 448.453 721.097 445.237 739.498 447.01L739.689 445.019ZM635.24 465.134L634.851 463.172C604.791 469.139 575.512 461.594 545.574 451.965C515.782 442.383 485.259 430.695 453.375 429.047L453.272 431.044L453.169 433.042C484.385 434.655 514.237 446.088 544.349 455.773C574.315 465.411 604.47 473.281 635.63 467.096L635.24 465.134ZM453.272 431.044L453.375 429.047C418.354 427.229 377.113 424.923 342.854 433.582L343.344 435.521L343.834 437.461C377.391 428.979 417.975 431.215 453.168 433.042L453.272 431.044ZM343.344 435.521L342.853 433.583C327.924 437.359 314.145 444.603 300.617 451.589C287.01 458.616 273.645 465.389 259.232 468.586L259.665 470.538L260.098 472.491C275.095 469.164 288.906 462.138 302.453 455.143C316.08 448.106 329.435 441.103 343.834 437.46L343.344 435.521ZM259.665 470.538L259.23 468.586C243.576 472.069 227.536 470.299 211.003 468.664C194.59 467.041 177.723 465.557 161.024 470.013L161.539 471.945L162.055 473.878C177.955 469.635 194.124 471.014 210.61 472.645C226.976 474.263 243.699 476.139 260.099 472.491L259.665 470.538ZM161.539 471.945L161.024 470.013C144.395 474.45 129.284 483.417 114.474 492.957C99.5832 502.549 85.0382 512.686 69.2386 519.851L70.0645 521.672L70.8905 523.494C87.0362 516.172 101.929 505.796 116.64 496.32C131.431 486.792 146.085 478.139 162.055 473.878L161.539 471.945ZM70.0645 521.672L69.2376 519.851C28.5722 538.318 -36.868 594.269 -88.9247 662.461C-114.979 696.591 -137.754 733.88 -152.422 771.2C-167.085 808.509 -173.696 845.98 -167.239 880.396L-165.273 880.027L-163.307 879.659C-169.579 846.232 -163.199 809.556 -148.699 772.664C-134.204 735.783 -111.646 698.817 -85.7452 664.888C-33.8911 596.962 31.0668 541.579 70.8915 523.493L70.0645 521.672Z" fill="white" mask="url(#path-10-inside-4_4975_2837)"/>
</mask>
<g mask="url(#mask3_4975_2837)">
<path d="M133.628 322.1L-710.933 1011.21M163.856 322.1L-680.705 1011.21M194.083 322.1L-650.477 1011.21M224.314 322.1L-620.247 1011.21M254.541 322.1L-590.019 1011.21M284.768 322.1L-559.792 1011.21M314.997 322.1L-529.564 1011.21M345.225 322.1L-499.336 1011.21M375.452 322.1L-469.109 1011.21M405.68 322.1L-438.881 1011.21M435.91 322.1L-408.651 1011.21M466.138 322.1L-378.423 1011.21M496.365 322.1L-348.196 1011.21M526.593 322.1L-317.967 1011.21M556.821 322.1L-287.74 1011.21M587.049 322.1L-257.512 1011.21M617.279 322.1L-227.282 1011.21M647.507 322.1L-197.054 1011.21M677.734 322.1L-166.827 1011.21M707.962 322.1L-136.599 1011.21M738.19 322.1L-106.371 1011.21M768.417 322.1L-76.1435 1011.21M798.648 322.1L-45.9132 1011.21M828.875 322.1L-15.6855 1011.21M859.103 322.1L14.5419 1011.21M889.331 322.1L44.7698 1011.21M919.559 322.1L74.998 1011.21M949.786 322.1L105.225 1011.21M980.016 322.1L135.456 1011.21M1010.24 322.1L165.683 1011.21M1040.47 322.1L195.91 1011.21M1070.7 322.1L226.138 1011.21M1100.93 322.1L256.367 1011.21M1131.15 322.1L286.594 1011.21M1161.38 322.1L316.822 1011.21M1191.61 322.1L347.052 1011.21M1221.84 322.1L377.28 1011.21M1252.07 322.1L407.507 1011.21M1282.3 322.1L437.735 1011.21M1312.53 322.1L467.992 1011.21M1342.75 322.1L498.22 1011.21M1372.98 322.1L528.447 1011.21M1403.21 322.1L558.675 1011.21M1433.44 322.1L588.903 1011.21M1463.66 322.1L619.13 1011.21M1493.89 322.1L649.358 1011.21M1524.12 322.1L679.588 1011.21M1554.35 322.1L709.816 1011.21M1584.58 322.1L740.044 1011.21M1614.81 322.1L770.272 1011.21M1645.03 322.1L800.499 1011.21M1675.26 322.1L830.727 1011.21M1705.49 322.1L860.957 1011.21M1735.72 322.1L891.185 1011.21M1765.95 322.1L921.412 1011.21M1796.17 322.1L951.64 1011.21M1826.4 322.1L981.868 1011.21M1856.63 322.1L1012.1 1011.21M1886.86 322.1L1042.32 1011.21M1917.09 322.1L1072.55 1011.21M1947.34 322.1L1102.78 1011.21M1977.57 322.1L1133.01 1011.21M2007.8 322.1L1163.24 1011.21M2038.03 322.1L1193.46 1011.21M2068.26 322.1L1223.69 1011.21M2098.48 322.1L1253.92 1011.21M2128.71 322.1L1284.15 1011.21M2158.94 322.1L1314.38 1011.21M2189.17 322.1L1344.61 1011.21M2219.39 322.1L1374.83 1011.21M2249.62 322.1L1405.06 1011.21M2279.85 322.1L1435.29 1011.21M2310.08 322.1L1465.52 1011.21M2340.31 322.1L1495.75 1011.21M2370.54 322.1L1525.97 1011.21M2400.76 322.1L1556.2 1011.21M2430.99 322.1L1586.43 1011.21M2461.22 322.1L1616.66 1011.21M2491.45 322.1L1646.89 1011.21M2521.68 322.1L1677.11 1011.21M2551.9 322.1L1707.34 1011.21M2582.13 322.1L1737.57 1011.21M2612.36 322.1L1767.8 1011.21M2642.59 322.1L1798.03 1011.21M2672.82 322.1L1828.26 1011.21M2703.04 322.1L1858.48 1011.21M2733.27 322.1L1888.71 1011.21M2763.5 322.1L1918.94 1011.21M2793.73 322.1L1949.17 1011.21M2823.96 322.1L1979.4 1011.21M2854.19 322.1L2009.62 1011.21M2884.41 322.1L2039.85 1011.21M-248.843 222.176H2222.45V1138.48H-248.843V222.176Z" stroke="url(#paint3_linear_4975_2837)" stroke-width="2" stroke-miterlimit="10"/>
</g>
<defs>
<linearGradient id="paint0_linear_4975_2837" x1="509.193" y1="-0.65385" x2="509.193" y2="392.289" gradientUnits="userSpaceOnUse">
<stop stop-color="#006155"/>
<stop offset="0.461538" stop-color="#98C441"/>
<stop offset="0.8" stop-color="#98C441" stop-opacity="0"/>
</linearGradient>
<linearGradient id="paint1_linear_4975_2837" x1="-103.496" y1="158.355" x2="-103.496" y2="592.175" gradientUnits="userSpaceOnUse">
<stop stop-color="#006155"/>
<stop offset="0.240385" stop-color="#98C441"/>
<stop offset="0.701923" stop-color="#98C441" stop-opacity="0"/>
</linearGradient>
<linearGradient id="paint2_linear_4975_2837" x1="1045.5" y1="158.355" x2="1045.5" y2="592.175" gradientUnits="userSpaceOnUse">
<stop stop-color="#006155"/>
<stop offset="0.240385" stop-color="#98C441"/>
<stop offset="0.701923" stop-color="#98C441" stop-opacity="0"/>
</linearGradient>
<linearGradient id="paint3_linear_4975_2837" x1="1165.84" y1="420.417" x2="1165.84" y2="878.991" gradientUnits="userSpaceOnUse">
<stop stop-color="#006155"/>
<stop offset="0.115385" stop-color="#98C441"/>
<stop offset="0.552885" stop-color="#98C441" stop-opacity="0"/>
</linearGradient>
</defs>
</svg>
