<svg width="1440" height="423" viewBox="0 0 1440 423" fill="none" xmlns="http://www.w3.org/2000/svg">
<g clip-path="url(#clip0_4761_333)">
<rect width="1440" height="589" fill="url(#paint0_linear_4761_333)"/>
<mask id="mask0_4761_333" style="mask-type:luminance" maskUnits="userSpaceOnUse" x="-137" y="0" width="1713" height="548">
<mask id="path-1-inside-1_4761_333" fill="white">
<path d="M-136.527 547.115C-95.5761 186.582 -12.9842 142.092 41.1728 133.331C56.5804 130.855 68.584 140.378 88.0355 132.798C111.377 123.694 133.107 99.7346 156.653 92.1164C185.498 82.784 208.328 102.972 234.638 107.2C284.137 115.2 333.354 64.805 374.842 37.9888C418.864 9.57281 466.239 -15.834 512.794 13.42C553.335 38.903 595.694 57.0344 644.374 54.1395C672.501 52.4634 695.715 32.3132 723.408 28.9231C758.625 24.6188 788.57 44.5786 821.484 52.8824C878.968 67.3571 933.1 16.1626 992.35 12.2773C1025.32 10.1061 1063.73 7.40162 1095.57 17.6101C1123.11 26.4472 1146.53 51.5493 1174.14 59.3199C1204.24 67.8142 1235.67 50.6351 1266.28 60.9959C1297.97 71.7376 1322.18 102.972 1352.18 120.228C1427.76 163.766 1597.06 385.456 1573.16 547.077"/>
</mask>
<path d="M-136.527 547.115C-95.5761 186.582 -12.9842 142.092 41.1728 133.331C56.5804 130.855 68.584 140.378 88.0355 132.798C111.377 123.694 133.107 99.7346 156.653 92.1164C185.498 82.784 208.328 102.972 234.638 107.2C284.137 115.2 333.354 64.805 374.842 37.9888C418.864 9.57281 466.239 -15.834 512.794 13.42C553.335 38.903 595.694 57.0344 644.374 54.1395C672.501 52.4634 695.715 32.3132 723.408 28.9231C758.625 24.6188 788.57 44.5786 821.484 52.8824C878.968 67.3571 933.1 16.1626 992.35 12.2773C1025.32 10.1061 1063.73 7.40162 1095.57 17.6101C1123.11 26.4472 1146.53 51.5493 1174.14 59.3199C1204.24 67.8142 1235.67 50.6351 1266.28 60.9959C1297.97 71.7376 1322.18 102.972 1352.18 120.228C1427.76 163.766 1597.06 385.456 1573.16 547.077" fill="white"/>
<path d="M41.1728 133.331L40.8555 131.356L40.8534 131.357L41.1728 133.331ZM88.0355 132.798L88.7617 134.661L88.7622 134.661L88.0355 132.798ZM156.653 92.1164L156.037 90.2135L156.653 92.1164ZM234.638 107.2L234.957 105.226L234.956 105.226L234.638 107.2ZM374.842 37.9888L373.758 36.3085L373.757 36.3091L374.842 37.9888ZM512.794 13.42L513.859 11.7267L513.859 11.7266L512.794 13.42ZM644.374 54.1395L644.492 56.1359L644.492 56.1359L644.374 54.1395ZM723.408 28.9231L723.165 26.9379L723.165 26.938L723.408 28.9231ZM821.484 52.8824L820.995 54.8217L820.996 54.8219L821.484 52.8824ZM992.35 12.2773L992.481 14.273L992.482 14.273L992.35 12.2773ZM1095.57 17.6101L1096.18 15.7057L1096.18 15.7055L1095.57 17.6101ZM1174.14 59.3199L1174.69 57.395L1174.69 57.3946L1174.14 59.3199ZM1266.28 60.9959L1266.93 59.1018L1266.92 59.1015L1266.28 60.9959ZM1352.18 120.228L1353.18 118.495L1353.17 118.494L1352.18 120.228ZM-136.527 547.115L-134.539 547.341C-114.074 367.158 -83.225 266.226 -50.8903 209.296C-34.7388 180.86 -18.2477 163.459 -2.54591 152.627C13.1444 141.804 28.1581 137.462 41.4922 135.305L41.1728 133.331L40.8534 131.357C27.109 133.58 11.4898 138.086 -4.81723 149.335C-21.1127 160.576 -37.9835 178.473 -54.3684 207.321C-87.1066 264.96 -118.029 366.54 -138.514 546.89L-136.527 547.115ZM41.1728 133.331L41.4901 135.306C48.791 134.132 55.1822 135.794 62.7858 136.956C70.3141 138.105 78.5754 138.631 88.7617 134.661L88.0355 132.798L87.3093 130.934C78.0441 134.545 70.5779 134.099 63.3896 133.001C56.2766 131.915 48.9621 130.054 40.8555 131.356L41.1728 133.331ZM88.0355 132.798L88.7622 134.661C100.718 129.998 112.21 121.555 123.431 113.527C134.77 105.414 145.841 97.7167 157.269 94.0192L156.653 92.1164L156.037 90.2135C143.919 94.1342 132.352 102.226 121.104 110.273C109.738 118.405 98.6948 126.494 87.3088 130.934L88.0355 132.798ZM156.653 92.1164L157.269 94.0192C171.076 89.5522 183.49 92.1066 195.935 96.461C202.248 98.6696 208.276 101.226 214.712 103.622C221.047 105.98 227.551 108.087 234.321 109.175L234.638 107.2L234.956 105.226C228.57 104.2 222.354 102.198 216.107 99.8731C209.961 97.5857 203.546 94.8859 197.256 92.6854C184.498 88.2218 171.075 85.3482 156.037 90.2135L156.653 92.1164ZM234.638 107.2L234.319 109.175C259.826 113.297 285.045 102.349 308.812 87.3415C320.725 79.8192 332.372 71.2117 343.589 62.8442C354.832 54.4578 365.626 46.3277 375.928 39.6685L374.842 37.9888L373.757 36.3091C363.315 43.0581 352.398 51.2833 341.198 59.638C329.972 68.0116 318.441 76.5308 306.677 83.9593C283.089 98.8532 258.949 109.103 234.957 105.226L234.638 107.2ZM374.842 37.9888L375.927 39.6692C397.933 25.4643 420.553 12.1673 443.389 6.00917C466.131 -0.123442 489.016 0.840662 511.73 15.1134L512.794 13.42L513.859 11.7266C490.017 -3.25467 465.937 -4.21416 442.348 2.14713C418.852 8.48294 395.774 22.0973 373.758 36.3085L374.842 37.9888ZM512.794 13.42L511.73 15.1133C552.425 40.6928 595.21 59.0667 644.492 56.1359L644.374 54.1395L644.255 52.143C596.177 55.0021 554.246 37.1132 513.859 11.7267L512.794 13.42ZM644.374 54.1395L644.492 56.1359C658.966 55.2735 672.113 49.6601 684.865 44.0022C697.724 38.2966 710.16 32.5599 723.651 30.9083L723.408 28.9231L723.165 26.938C708.963 28.6765 695.945 34.7099 683.243 40.346C670.432 46.0298 657.909 51.3294 644.255 52.143L644.374 54.1395ZM723.408 28.9231L723.65 30.9084C740.812 28.8109 756.76 32.6116 772.661 38.0665C788.408 43.4689 804.451 50.6477 820.995 54.8217L821.484 52.8824L821.973 50.9432C805.604 46.8133 790.217 39.8603 773.959 34.2829C757.854 28.758 741.221 24.7311 723.165 26.9379L723.408 28.9231ZM821.484 52.8824L820.996 54.8219C850.43 62.2335 878.886 52.7915 907.01 41.3166C935.334 29.7604 963.272 16.1884 992.481 14.273L992.35 12.2773L992.219 10.2816C962.178 12.2515 933.425 26.2194 905.499 37.613C877.374 49.0881 850.022 58.006 821.973 50.943L821.484 52.8824ZM992.35 12.2773L992.482 14.273C1025.55 12.0948 1063.56 9.44528 1094.96 19.5146L1095.57 17.6101L1096.18 15.7055C1063.91 5.35796 1025.08 8.11739 992.219 10.2816L992.35 12.2773ZM1095.57 17.6101L1094.96 19.5144C1108.42 23.8337 1120.92 32.1455 1133.73 40.5379C1146.44 48.8608 1159.45 57.2626 1173.6 61.2451L1174.14 59.3199L1174.69 57.3946C1161.22 53.6065 1148.72 45.5719 1135.92 37.1919C1123.24 28.8814 1110.26 20.2235 1096.18 15.7057L1095.57 17.6101ZM1174.14 59.3199L1173.6 61.2447C1189.12 65.623 1204.93 63.3672 1220.27 61.4424C1235.76 59.499 1250.83 57.8769 1265.64 62.8903L1266.28 60.9959L1266.92 59.1015C1251.13 53.7541 1235.18 55.5411 1219.77 57.4735C1204.22 59.4245 1189.27 61.511 1174.69 57.395L1174.14 59.3199ZM1266.28 60.9959L1265.64 62.89C1281.11 68.133 1294.84 78.4106 1308.59 89.7144C1322.26 100.942 1335.99 113.226 1351.18 121.961L1352.18 120.228L1353.17 118.494C1338.36 109.974 1324.99 98.0132 1311.13 86.6239C1297.36 75.311 1283.15 64.6004 1266.93 59.1018L1266.28 60.9959ZM1352.18 120.228L1351.18 121.961C1369.8 132.686 1394.38 154.517 1420.46 183.89C1446.5 213.229 1473.93 249.974 1498.26 290.403C1546.98 371.358 1583.03 466.68 1571.18 546.785L1573.16 547.077L1575.13 547.37C1587.19 465.854 1550.54 369.52 1501.69 288.34C1477.23 247.702 1449.66 210.759 1423.45 181.235C1397.27 151.746 1372.35 129.539 1353.18 118.495L1352.18 120.228Z" fill="white" mask="url(#path-1-inside-1_4761_333)"/>
</mask>
<g mask="url(#mask0_4761_333)">
<path d="M-505.104 -214.099L-1298.14 748.922M-476.72 -214.099L-1269.75 748.922M-448.337 -214.099L-1241.37 748.922M-419.954 -214.099L-1212.99 748.922M-391.568 -214.099L-1184.6 748.922M-363.185 -214.099L-1156.22 748.922M-334.801 -214.099L-1127.83 748.922M-306.417 -214.099L-1099.45 748.922M-278.034 -214.099L-1071.07 748.922M-249.651 -214.099L-1042.68 748.922M-221.265 -214.099L-1014.3 748.922M-192.882 -214.099L-985.914 748.922M-164.498 -214.099L-957.53 748.922M-136.115 -214.099L-929.146 748.922M-107.731 -214.099L-900.763 748.922M-79.348 -214.099L-872.38 748.922M-50.9621 -214.099L-843.994 748.922M-22.5787 -214.099L-815.61 748.922M5.80437 -214.099L-787.227 748.922M34.1882 -214.099L-758.843 748.922M62.572 -214.099L-730.46 748.922M90.9548 -214.099L-702.077 748.922M119.341 -214.099L-673.691 748.922M147.724 -214.099L-645.307 748.922M176.107 -214.099L-616.924 748.922M204.491 -214.099L-588.541 748.922M232.875 -214.099L-560.157 748.922M261.258 -214.099L-531.774 748.922M289.641 -214.099L-503.39 748.922M318.027 -214.099L-475.004 748.922M346.41 -214.099L-446.622 748.922M374.794 -214.099L-418.238 748.922M403.177 -214.099L-389.854 748.922M431.561 -214.099L-361.471 748.922M459.944 -214.099L-333.087 748.922M488.33 -214.099L-304.702 748.922M516.713 -214.099L-276.318 748.922M545.096 -214.099L-247.935 748.922M573.48 -214.099L-219.551 748.922M601.863 -214.099L-191.168 748.922M630.249 -214.099L-162.757 748.922M658.632 -214.099L-134.374 748.922M687.016 -214.099L-105.99 748.922M715.399 -214.099L-77.6066 748.922M743.782 -214.099L-49.2235 748.922M772.166 -214.099L-20.8401 748.922M800.552 -214.099L7.54576 748.922M828.935 -214.099L35.9292 748.922M857.318 -214.099L64.3124 748.922M885.702 -214.099L92.6961 748.922M914.085 -214.099L121.079 748.922M942.469 -214.099L149.463 748.922M970.855 -214.099L177.849 748.922M999.238 -214.099L206.232 748.922M1027.62 -214.099L234.615 748.922M1056 -214.099L262.999 748.922M1084.39 -214.099L291.383 748.922M1112.77 -214.099L319.766 748.922M1141.16 -214.099L348.149 748.922M1169.54 -214.099L376.535 748.922M1197.92 -214.099L404.918 748.922M1226.31 -214.099L433.302 748.922M1254.72 -214.099L461.686 748.922M1283.1 -214.099L490.069 748.922M1311.49 -214.099L518.454 748.922M1339.87 -214.099L546.838 748.922M1368.25 -214.099L575.221 748.922M1396.64 -214.099L603.604 748.922M1425.02 -214.099L631.988 748.922M1453.4 -214.099L660.371 748.922M1481.79 -214.099L688.755 748.922M1510.17 -214.099L717.141 748.922M1538.56 -214.099L745.524 748.922M1566.94 -214.099L773.907 748.922M1595.32 -214.099L802.291 748.922M1623.71 -214.099L830.674 748.922M1652.09 -214.099L859.058 748.922M1680.48 -214.099L887.444 748.922M1708.86 -214.099L915.827 748.922M1737.24 -214.099L944.21 748.922M1765.63 -214.099L972.594 748.922M1794.01 -214.099L1000.98 748.922M1822.39 -214.099L1029.36 748.922M1850.78 -214.099L1057.74 748.922M1879.16 -214.099L1086.13 748.922M1907.54 -214.099L1114.51 748.922M1935.93 -214.099L1142.9 748.922M1964.31 -214.099L1171.28 748.922M1992.69 -214.099L1199.66 748.922M2021.08 -214.099L1228.05 748.922M2049.46 -214.099L1256.43 748.922M2077.85 -214.099L1284.82 748.922M1643.95 1002.99H-676.559V-277.521H1643.95V1002.99Z" stroke="url(#paint1_linear_4761_333)" stroke-width="2" stroke-miterlimit="10"/>
</g>
<mask id="mask1_4761_333" style="mask-type:luminance" maskUnits="userSpaceOnUse" x="-268" y="94" width="1984" height="608">
<path d="M-267.307 701.647C-247.804 695.59 -23.4211 340.124 -8.88367 330.639C7.13818 320.164 34.4982 294.033 59.6572 291.1C78.3408 288.929 79.4158 298.757 99.9678 301.918C126.534 305.994 119.138 293.919 140.176 290.491C156.991 287.748 168.611 308.356 190.98 306.603C205.774 305.423 216.907 293.081 225.865 288.472C248.106 277.045 262.081 265.998 278.538 250.686C300.497 230.269 321.356 208.442 351.404 191.301C361.948 185.283 374.874 180.331 383.959 173.665C382.987 185.969 389.462 200.405 398.138 211.718C413.597 194.577 442.672 166.733 477.736 163.723C505.736 161.324 514.617 169.361 538.829 156.296C568.492 140.297 582.723 113.786 605.732 94.4355C628.818 111.577 640.079 140.602 648.679 161.628C652.62 171.265 651.775 184.331 668.795 189.663C689.066 196.063 724.079 186.159 743.172 193.511C784.89 209.547 774.345 251.524 808.385 270.531C821.669 277.959 839.866 276.321 852.74 281.92C863.259 286.529 862.849 292.662 868.276 299.709C887.266 324.392 937.661 328.963 949.741 352.732C962.743 378.329 976.845 392.308 1026.63 383.319C1045.85 379.853 1062 374.177 1077.66 376.615C1095.04 379.319 1101.69 391.166 1124.57 386.176C1146 381.491 1164.73 353.57 1182.39 344.352C1198.23 336.086 1215.59 328.506 1237.06 326.182C1251.67 356.465 1284.69 365.378 1334.14 375.472C1347.52 378.215 1367.1 382.024 1376.21 388.537C1382.61 393.108 1382.59 400.917 1389.63 405.831C1399.43 412.687 1413.79 415.163 1426.74 419.62C1445.11 425.981 1449.16 429.714 1458.58 439.732C1481.1 463.653 1508.41 471.157 1549.59 484.87C1580.2 495.078 1702.28 683.477 1715.62 701.685" fill="white"/>
</mask>
<g mask="url(#mask1_4761_333)">
<path d="M-208.131 11.2061L-1001.16 974.227M-179.747 11.2061L-972.778 974.227M-151.364 11.2061L-944.395 974.227M-122.98 11.2061L-916.012 974.227M-94.5945 11.2061L-887.626 974.227M-66.2116 11.2061L-859.243 974.227M-37.8278 11.2061L-830.859 974.227M-9.44406 11.2061L-802.476 974.227M18.9392 11.2061L-774.092 974.227M47.3224 11.2061L-745.709 974.227M75.7085 11.2061L-717.323 974.227M104.091 11.2061L-688.94 974.227M132.475 11.2061L-660.557 974.227M160.859 11.2061L-632.173 974.227M189.243 11.2061L-603.789 974.227M217.625 11.2061L-575.406 974.227M246.011 11.2061L-547.02 974.227M274.395 11.2061L-518.637 974.227M302.778 11.2061L-490.228 974.227M331.161 11.2061L-461.845 974.227M359.544 11.2061L-433.462 974.227M387.93 11.2061L-405.076 974.227M416.313 11.2061L-376.693 974.227M444.697 11.2061L-348.309 974.227M473.081 11.2061L-319.925 974.227M501.464 11.2061L-291.542 974.227M529.847 11.2061L-263.159 974.227M558.233 11.2061L-234.773 974.227M586.616 11.2061L-206.389 974.227M614.999 11.2061L-178.006 974.227M643.383 11.2061L-149.623 974.227M671.767 11.2061L-121.239 974.227M700.15 11.2061L-92.8559 974.227M728.536 11.2061L-64.47 974.227M756.919 11.2061L-36.0866 974.227M785.302 11.2061L-7.70368 974.227M813.686 11.2061L20.6802 974.227M842.07 11.2061L49.0639 974.227M870.453 11.2061L77.447 974.227M898.862 11.2061L105.83 974.227M927.248 11.2061L134.216 974.227M955.631 11.2061L162.599 974.227M984.014 11.2061L190.983 974.227M1012.4 11.2061L219.367 974.227M1040.78 11.2061L247.75 974.227M1069.16 11.2061L276.133 974.227M1097.55 11.2061L304.519 974.227M1125.93 11.2061L332.903 974.227M1154.32 11.2061L361.286 974.227M1182.7 11.2061L389.67 974.227M1211.08 11.2061L418.053 974.227M1239.47 11.2061L446.436 974.227M1267.85 11.2061L474.822 974.227M1296.24 11.2061L503.205 974.227M1324.62 11.2061L531.589 974.227M1353 11.2061L559.972 974.227M1381.39 11.2061L588.356 974.227M1409.77 11.2061L616.739 974.227M1438.16 11.2061L645.125 974.227M1466.54 11.2061L673.508 974.227M1494.92 11.2061L701.891 974.227M1523.31 11.2061L730.275 974.227M1551.69 11.2061L758.659 974.227M1580.07 11.2061L787.042 974.227M1608.46 11.2061L815.425 974.227M1636.84 11.2061L843.811 974.227M1665.23 11.2061L872.194 974.227M1693.61 11.2061L900.578 974.227M1721.99 11.2061L928.962 974.227M1750.38 11.2061L957.345 974.227M1778.76 11.2061L985.728 974.227M1807.15 11.2061L1014.11 974.227M1835.53 11.2061L1042.5 974.227M1863.91 11.2061L1070.88 974.227M1892.3 11.2061L1099.26 974.227M1920.68 11.2061L1127.65 974.227M1949.06 11.2061L1156.03 974.227M1977.45 11.2061L1184.42 974.227M2005.83 11.2061L1212.8 974.227M2034.21 11.2061L1241.18 974.227M2062.6 11.2061L1269.57 974.227M2090.98 11.2061L1297.98 974.227M2119.37 11.2061L1326.36 974.227M2147.75 11.2061L1354.74 974.227M2176.13 11.2061L1383.13 974.227M2204.52 11.2061L1411.51 974.227M2232.9 11.2061L1439.9 974.227M2261.28 11.2061L1468.28 974.227M2289.67 11.2061L1496.66 974.227M2318.05 11.2061L1525.05 974.227M2346.44 11.2061L1553.43 974.227M2374.82 11.2061L1581.81 974.227" stroke="url(#paint2_linear_4761_333)" stroke-width="2" stroke-miterlimit="10"/>
</g>
</g>
<rect width="1440" height="589" fill="url(#paint3_linear_4761_333)"/>
<defs>
<linearGradient id="paint0_linear_4761_333" x1="720" y1="589" x2="720" y2="153.283" gradientUnits="userSpaceOnUse">
<stop offset="0.456731" stop-color="#F9F8F6"/>
<stop offset="0.764423" stop-color="#F9F8F6" stop-opacity="0"/>
</linearGradient>
<linearGradient id="paint1_linear_4761_333" x1="464.129" y1="-0.482147" x2="464.129" y2="548.647" gradientUnits="userSpaceOnUse">
<stop stop-color="#006155"/>
<stop offset="0.408654" stop-color="#98C441"/>
<stop offset="0.8" stop-color="#98C441" stop-opacity="0"/>
</linearGradient>
<linearGradient id="paint2_linear_4761_333" x1="761.103" y1="96.0312" x2="761.103" y2="702.25" gradientUnits="userSpaceOnUse">
<stop stop-color="#98C441"/>
<stop offset="0.413462" stop-color="#006155"/>
<stop offset="0.745192" stop-color="#006155" stop-opacity="0"/>
</linearGradient>
<linearGradient id="paint3_linear_4761_333" x1="720" y1="589" x2="720" y2="153.283" gradientUnits="userSpaceOnUse">
<stop offset="0.456731" stop-color="#F9F8F6"/>
<stop offset="0.764423" stop-color="#F9F8F6" stop-opacity="0"/>
</linearGradient>
<clipPath id="clip0_4761_333">
<rect width="1440" height="589" fill="white"/>
</clipPath>
</defs>
</svg>
