<svg width="1440" height="194" viewBox="0 0 1440 194" fill="none" xmlns="http://www.w3.org/2000/svg">
<mask id="mask0_4759_4029" style="mask-type:luminance" maskUnits="userSpaceOnUse" x="-131" y="0" width="1824" height="392">
<mask id="path-1-inside-1_4759_4029" fill="white">
<path d="M-130.492 391.193C-86.8806 133.205 1.07791 101.369 58.7539 95.0995C75.1627 93.3278 87.9462 100.142 108.662 94.7179C133.52 88.2034 156.661 71.0587 181.738 65.6073C212.457 58.9293 236.77 73.3756 264.79 76.4011C317.506 82.1251 369.921 46.064 414.105 26.875C460.987 6.54119 511.44 -11.6393 561.02 9.29415C604.196 27.5291 649.306 40.5035 701.149 38.432C731.105 37.2327 755.827 22.8137 785.319 20.3878C822.825 17.3077 854.715 31.5904 889.768 37.5325C950.987 47.8902 1008.64 11.2567 1071.74 8.47645C1106.84 6.92279 1147.76 4.98754 1181.66 12.2924C1210.99 18.6161 1235.93 36.5785 1265.34 42.1389C1297.4 48.2173 1330.87 35.9243 1363.47 43.3383C1397.21 51.0248 1423 73.3756 1454.94 85.723C1535.43 116.878 1715.74 275.514 1690.28 391.166"/>
</mask>
<path d="M-130.492 391.193C-86.8806 133.205 1.07791 101.369 58.7539 95.0995C75.1627 93.3278 87.9462 100.142 108.662 94.7179C133.52 88.2034 156.661 71.0587 181.738 65.6073C212.457 58.9293 236.77 73.3756 264.79 76.4011C317.506 82.1251 369.921 46.064 414.105 26.875C460.987 6.54119 511.44 -11.6393 561.02 9.29415C604.196 27.5291 649.306 40.5035 701.149 38.432C731.105 37.2327 755.827 22.8137 785.319 20.3878C822.825 17.3077 854.715 31.5904 889.768 37.5325C950.987 47.8902 1008.64 11.2567 1071.74 8.47645C1106.84 6.92279 1147.76 4.98754 1181.66 12.2924C1210.99 18.6161 1235.93 36.5785 1265.34 42.1389C1297.4 48.2173 1330.87 35.9243 1363.47 43.3383C1397.21 51.0248 1423 73.3756 1454.94 85.723C1535.43 116.878 1715.74 275.514 1690.28 391.166" fill="white"/>
<path d="M58.7539 95.0995L58.3856 91.6883L58.3832 91.6885L58.7539 95.0995ZM108.662 94.7179L109.531 98.037L109.531 98.0368L108.662 94.7179ZM181.738 65.6073L181.009 62.2546L181.738 65.6073ZM264.79 76.4011L265.161 72.9901L265.159 72.9899L264.79 76.4011ZM414.105 26.875L412.739 23.7273L412.738 23.7279L414.105 26.875ZM561.02 9.29415L562.355 6.13347L562.355 6.13332L561.02 9.29415ZM701.149 38.432L701.286 41.8602L701.286 41.8602L701.149 38.432ZM785.319 20.3878L785.038 16.9683L785.038 16.9683L785.319 20.3878ZM889.768 37.5325L889.195 40.9152L889.196 40.9154L889.768 37.5325ZM1071.74 8.47645L1071.89 11.9041L1071.89 11.9041L1071.74 8.47645ZM1181.66 12.2924L1182.39 8.93851L1182.39 8.93839L1181.66 12.2924ZM1265.34 42.1389L1265.98 38.768L1265.98 38.7677L1265.34 42.1389ZM1363.47 43.3383L1364.23 39.9929L1364.23 39.9927L1363.47 43.3383ZM1454.94 85.723L1456.18 82.5233L1456.18 82.5227L1454.94 85.723ZM-130.492 391.193L-127.109 391.765C-105.349 263.041 -72.603 191.283 -38.523 150.967C-4.60278 110.839 30.8765 101.581 59.1247 98.5104L58.7539 95.0995L58.3832 91.6885C28.9553 94.8872 -8.38265 104.681 -43.7635 146.537C-78.9846 188.203 -112.024 261.357 -133.875 390.621L-130.492 391.193ZM58.7539 95.0995L59.1222 98.5106C66.8591 97.6753 73.6233 98.8583 81.7426 99.6914C89.7698 100.515 98.6078 100.897 109.531 98.037L108.662 94.7179L107.793 91.3988C98.0001 93.9628 90.0886 93.6497 82.443 92.8652C74.8894 92.0902 67.0575 90.7519 58.3856 91.6883L58.7539 95.0995ZM108.662 94.7179L109.531 98.0368C122.346 94.6785 134.669 88.5942 146.605 82.8562C158.674 77.054 170.381 71.5874 182.467 68.96L181.738 65.6073L181.009 62.2546C168.019 65.0786 155.616 70.9101 143.631 76.6717C131.513 82.4975 119.835 88.2428 107.792 91.3989L108.662 94.7179ZM181.738 65.6073L182.467 68.96C197.098 65.7793 210.273 67.5981 223.491 70.7053C236.503 73.7644 250.138 78.27 264.422 79.8123L264.79 76.4011L265.159 72.9899C251.422 71.5067 238.89 67.2764 225.061 64.0254C211.437 60.8226 197.097 58.7573 181.009 62.2546L181.738 65.6073ZM264.79 76.4011L264.42 79.8121C291.647 82.7685 318.581 74.9175 343.987 64.1389C356.707 58.742 369.138 52.5685 381.085 46.581C393.068 40.5752 404.531 34.7732 415.471 30.022L414.105 26.875L412.738 23.7279C401.586 28.5713 389.929 34.4728 378.01 40.4464C366.054 46.4384 353.802 52.5204 341.307 57.8219C316.28 68.4401 290.648 75.7577 265.161 72.9901L264.79 76.4011ZM414.105 26.875L415.47 30.0227C462.445 9.64833 511.602 -7.84651 559.686 12.455L561.02 9.29415L562.355 6.13332C511.277 -15.4321 459.528 3.43405 412.739 23.7273L414.105 26.875ZM561.02 9.29415L559.685 12.4548C603.119 30.7987 648.754 43.9593 701.286 41.8602L701.149 38.432L701.012 35.0037C649.858 37.0477 605.273 24.2595 562.355 6.13347L561.02 9.29415ZM701.149 38.432L701.286 41.8602C716.746 41.2413 730.795 37.2102 744.388 33.1579C758.086 29.0743 771.279 24.9853 785.6 23.8073L785.319 20.3878L785.038 16.9683C769.867 18.2162 755.953 22.5496 742.427 26.5818C728.797 30.6453 715.508 34.4234 701.012 35.0037L701.149 38.432ZM785.319 20.3878L785.6 23.8073C803.838 22.3096 820.788 25.0235 837.693 28.9202C854.414 32.7746 871.562 37.9262 889.195 40.9152L889.768 37.5325L890.341 34.1497C872.921 31.1967 856.598 26.236 839.234 22.2335C822.054 18.2734 804.306 15.386 785.038 16.9683L785.319 20.3878ZM889.768 37.5325L889.196 40.9154C920.612 46.2307 950.971 39.4598 980.954 31.2401C1011.14 22.9642 1040.83 13.2725 1071.89 11.9041L1071.74 8.47645L1071.59 5.04876C1039.54 6.46057 1008.86 16.4758 979.14 24.6223C949.219 32.825 920.144 39.192 890.34 34.1496L889.768 37.5325ZM1071.74 8.47645L1071.89 11.9041C1107.12 10.3448 1147.55 8.45359 1180.94 15.6465L1181.66 12.2924L1182.39 8.93839C1147.96 1.52149 1106.56 3.50077 1071.58 5.04879L1071.74 8.47645ZM1181.66 12.2924L1180.94 15.6464C1195.2 18.7213 1208.44 24.6344 1222.09 30.6422C1235.63 36.6007 1249.56 42.6465 1264.71 45.5102L1265.34 42.1389L1265.98 38.7677C1251.72 36.071 1238.47 30.3554 1224.86 24.3616C1211.35 18.4171 1197.45 12.1872 1182.39 8.93851L1181.66 12.2924ZM1265.34 42.1389L1264.7 45.5099C1281.28 48.6533 1298.16 47.033 1314.49 45.6566C1330.99 44.2653 1347 43.1115 1362.71 46.6838L1363.47 43.3383L1364.23 39.9927C1347.34 36.1511 1330.31 37.4368 1313.91 38.8189C1297.34 40.2159 1281.46 41.7029 1265.98 38.768L1265.34 42.1389ZM1363.47 43.3383L1362.71 46.6836C1379.08 50.4132 1393.61 57.7181 1408.22 65.7865C1422.73 73.7948 1437.45 82.6407 1453.71 88.9233L1454.94 85.723L1456.18 82.5227C1440.49 76.4579 1426.35 67.9546 1411.54 59.7791C1396.84 51.6635 1381.6 43.9498 1364.23 39.9929L1363.47 43.3383ZM1454.94 85.723L1453.71 88.9227C1493.27 104.238 1558.05 151.276 1609.79 209.047C1635.62 237.89 1658.06 269.251 1672.45 300.468C1686.86 331.707 1693.08 362.512 1686.93 390.428L1690.28 391.166L1693.63 391.904C1700.22 361.994 1693.44 329.6 1678.68 297.594C1663.92 265.566 1641.02 233.636 1614.9 204.469C1562.73 146.22 1497.1 98.3627 1456.18 82.5233L1454.94 85.723Z" fill="white" mask="url(#path-1-inside-1_4759_4029)"/>
</mask>
<g mask="url(#mask0_4759_4029)">
<path d="M-523.018 -153.513L-1367.58 535.601M-492.79 -153.513L-1337.35 535.601M-462.563 -153.513L-1307.12 535.601M-432.335 -153.513L-1276.9 535.601M-402.105 -153.513L-1246.67 535.601M-371.878 -153.513L-1216.44 535.601M-341.65 -153.513L-1186.21 535.601M-311.422 -153.513L-1155.98 535.601M-281.194 -153.513L-1125.76 535.601M-250.967 -153.513L-1095.53 535.601M-220.736 -153.513L-1065.3 535.601M-190.509 -153.513L-1035.07 535.601M-160.281 -153.513L-1004.84 535.601M-130.053 -153.513L-974.614 535.601M-99.8256 -153.513L-944.386 535.601M-69.5979 -153.513L-914.159 535.601M-39.3675 -153.513L-883.928 535.601M-9.13986 -153.513L-853.701 535.601M21.0875 -153.513L-823.473 535.601M51.3156 -153.513L-793.245 535.601M81.5438 -153.513L-763.017 535.601M111.771 -153.513L-732.79 535.601M142.001 -153.513L-702.56 535.601M172.229 -153.513L-672.332 535.601M202.456 -153.513L-642.105 535.601M232.684 -153.513L-611.876 535.601M262.912 -153.513L-581.648 535.601M293.14 -153.513L-551.421 535.601M323.367 -153.513L-521.193 535.601M353.598 -153.513L-490.963 535.601M383.825 -153.513L-460.736 535.601M414.053 -153.513L-430.508 535.601M444.281 -153.513L-400.28 535.601M474.508 -153.513L-370.052 535.601M504.736 -153.513L-339.825 535.601M534.966 -153.513L-309.594 535.601M565.194 -153.513L-279.367 535.601M595.421 -153.513L-249.139 535.601M625.65 -153.513L-218.911 535.601M655.877 -153.513L-188.684 535.601M686.107 -153.513L-158.427 535.601M716.334 -153.513L-128.2 535.601M746.562 -153.513L-97.9714 535.601M776.79 -153.513L-67.7433 535.601M807.017 -153.513L-37.516 535.601M837.245 -153.513L-7.28832 535.601M867.475 -153.513L22.942 535.601M897.703 -153.513L53.1697 535.601M927.931 -153.513L83.3972 535.601M958.159 -153.513L113.625 535.601M988.386 -153.513L143.853 535.601M1018.61 -153.513L174.08 535.601M1048.84 -153.513L204.311 535.601M1079.07 -153.513L234.538 535.601M1109.3 -153.513L264.766 535.601M1139.53 -153.513L294.994 535.601M1169.76 -153.513L325.222 535.601M1199.98 -153.513L355.449 535.601M1230.21 -153.513L385.677 535.601M1260.44 -153.513L415.907 535.601M1290.67 -153.513L446.134 535.601M1320.9 -153.513L476.363 535.601M1351.15 -153.513L506.591 535.601M1381.38 -153.513L536.818 535.601M1411.61 -153.513L567.048 535.601M1441.84 -153.513L597.276 535.601M1472.06 -153.513L627.503 535.601M1502.29 -153.513L657.731 535.601M1532.52 -153.513L687.959 535.601M1562.75 -153.513L718.187 535.601M1592.97 -153.513L748.414 535.601M1623.21 -153.513L778.645 535.601M1653.43 -153.513L808.872 535.601M1683.66 -153.513L839.1 535.601M1713.89 -153.513L869.328 535.601M1744.12 -153.513L899.555 535.601M1774.34 -153.513L929.783 535.601M1804.57 -153.513L960.013 535.601M1834.8 -153.513L990.241 535.601M1865.03 -153.513L1020.47 535.601M1895.26 -153.513L1050.7 535.601M1925.49 -153.513L1080.92 535.601M1955.71 -153.513L1111.15 535.601M1985.94 -153.513L1141.38 535.601M2016.17 -153.513L1171.61 535.601M2046.4 -153.513L1201.84 535.601M2076.63 -153.513L1232.07 535.601M2106.85 -153.513L1262.29 535.601M2137.08 -153.513L1292.52 535.601M2167.31 -153.513L1322.75 535.601M2197.54 -153.513L1352.98 535.601M2227.77 -153.513L1383.21 535.601M1765.68 717.406H-705.614V-198.896H1765.68V717.406Z" stroke="url(#paint0_linear_4759_4029)" stroke-width="2" stroke-miterlimit="10"/>
</g>
<mask id="mask1_4759_4029" style="mask-type:luminance" maskUnits="userSpaceOnUse" x="-1191" y="159" width="2113" height="435">
<mask id="path-4-inside-2_4759_4029" fill="white">
<path d="M921.218 593.548C900.448 589.214 661.485 334.851 646.003 328.064C628.94 320.568 599.802 301.87 573.009 299.771C553.111 298.217 551.966 305.25 530.079 307.512C501.786 310.429 509.663 301.788 487.258 299.335C469.35 297.373 456.975 312.119 433.153 310.865C417.398 310.02 405.541 301.189 396.001 297.89C372.315 289.713 357.432 281.809 339.906 270.851C316.52 256.242 294.305 240.623 262.305 228.358C251.075 224.051 237.31 220.508 227.634 215.738C228.67 224.542 221.774 234.872 212.534 242.967C196.071 230.702 165.106 210.777 127.764 208.623C97.9449 206.906 88.4868 212.658 62.7015 203.308C31.1106 191.86 15.9558 172.889 -8.54834 159.043C-33.1342 171.309 -45.1274 192.078 -54.2858 207.124C-58.4834 214.02 -57.5839 223.37 -75.7098 227.186C-97.2974 231.765 -134.585 224.678 -154.919 229.939C-199.348 241.414 -188.118 271.451 -224.37 285.052C-238.516 290.367 -257.896 289.195 -271.606 293.202C-282.809 296.5 -282.373 300.889 -288.151 305.931C-308.376 323.594 -387.776 326.865 -374.911 343.873C-361.064 362.19 -403.776 372.193 -456.791 365.761C-477.261 363.28 -494.46 359.219 -511.142 360.963C-529.649 362.899 -536.736 371.376 -561.104 367.805C-583.918 364.452 -603.87 344.473 -622.678 337.877C-639.55 331.962 -658.03 326.538 -680.899 324.875C-696.463 346.544 -731.624 352.922 -784.285 360.146C-798.54 362.108 -819.392 364.834 -829.096 369.495C-835.91 372.766 -835.883 378.353 -843.378 381.869C-853.818 386.776 -869.109 388.547 -882.901 391.737C-902.472 396.288 -906.778 398.96 -916.809 406.128C-940.795 423.246 -969.878 428.615 -1013.74 438.428C-1046.33 445.733 -1176.35 580.546 -1190.55 593.575"/>
</mask>
<path d="M921.218 593.548C900.448 589.214 661.485 334.851 646.003 328.064C628.94 320.568 599.802 301.87 573.009 299.771C553.111 298.217 551.966 305.25 530.079 307.512C501.786 310.429 509.663 301.788 487.258 299.335C469.35 297.373 456.975 312.119 433.153 310.865C417.398 310.02 405.541 301.189 396.001 297.89C372.315 289.713 357.432 281.809 339.906 270.851C316.52 256.242 294.305 240.623 262.305 228.358C251.075 224.051 237.31 220.508 227.634 215.738C228.67 224.542 221.774 234.872 212.534 242.967C196.071 230.702 165.106 210.777 127.764 208.623C97.9449 206.906 88.4868 212.658 62.7015 203.308C31.1106 191.86 15.9558 172.889 -8.54834 159.043C-33.1342 171.309 -45.1274 192.078 -54.2858 207.124C-58.4834 214.02 -57.5839 223.37 -75.7098 227.186C-97.2974 231.765 -134.585 224.678 -154.919 229.939C-199.348 241.414 -188.118 271.451 -224.37 285.052C-238.516 290.367 -257.896 289.195 -271.606 293.202C-282.809 296.5 -282.373 300.889 -288.151 305.931C-308.376 323.594 -387.776 326.865 -374.911 343.873C-361.064 362.19 -403.776 372.193 -456.791 365.761C-477.261 363.28 -494.46 359.219 -511.142 360.963C-529.649 362.899 -536.736 371.376 -561.104 367.805C-583.918 364.452 -603.87 344.473 -622.678 337.877C-639.55 331.962 -658.03 326.538 -680.899 324.875C-696.463 346.544 -731.624 352.922 -784.285 360.146C-798.54 362.108 -819.392 364.834 -829.096 369.495C-835.91 372.766 -835.883 378.353 -843.378 381.869C-853.818 386.776 -869.109 388.547 -882.901 391.737C-902.472 396.288 -906.778 398.96 -916.809 406.128C-940.795 423.246 -969.878 428.615 -1013.74 438.428C-1046.33 445.733 -1176.35 580.546 -1190.55 593.575" fill="white"/>
<path d="M646.003 328.064L644.623 331.205L644.626 331.206L646.003 328.064ZM573.009 299.771L573.276 296.351L573.276 296.351L573.009 299.771ZM530.079 307.512L530.431 310.925L530.431 310.925L530.079 307.512ZM487.258 299.335L486.884 302.746L486.885 302.746L487.258 299.335ZM433.153 310.865L432.969 314.291L432.972 314.291L433.153 310.865ZM396.001 297.89L397.122 294.648L397.121 294.647L396.001 297.89ZM339.906 270.851L341.725 267.942L341.724 267.942L339.906 270.851ZM262.305 228.358L261.077 231.561L261.077 231.561L262.305 228.358ZM227.634 215.738L229.151 212.66L223.489 209.869L224.227 216.138L227.634 215.738ZM212.534 242.967L210.484 245.719L212.708 247.376L214.795 245.548L212.534 242.967ZM127.764 208.623L127.962 205.198L127.961 205.198L127.764 208.623ZM62.7015 203.308L63.8711 200.083L63.8705 200.083L62.7015 203.308ZM-8.54834 159.043L-6.86035 156.056L-8.44812 155.159L-10.08 155.973L-8.54834 159.043ZM-54.2858 207.124L-51.355 208.908L-54.2858 207.124ZM-75.7098 227.186L-76.4166 223.828L-76.4218 223.829L-75.7098 227.186ZM-154.919 229.939L-154.061 233.261L-154.06 233.26L-154.919 229.939ZM-224.37 285.052L-225.575 281.84L-225.577 281.841L-224.37 285.052ZM-271.606 293.202L-272.569 289.909L-272.575 289.911L-271.606 293.202ZM-288.151 305.931L-290.407 303.346L-290.408 303.347L-288.151 305.931ZM-374.911 343.873L-372.174 341.804L-372.174 341.803L-374.911 343.873ZM-456.791 365.761L-456.378 362.355L-456.378 362.354L-456.791 365.761ZM-511.142 360.963L-510.785 364.376L-511.142 360.963ZM-561.104 367.805L-561.603 371.199L-561.601 371.2L-561.104 367.805ZM-622.678 337.877L-621.542 334.639L-621.543 334.639L-622.678 337.877ZM-680.899 324.875L-680.65 321.453L-682.565 321.314L-683.686 322.873L-680.899 324.875ZM-784.285 360.146L-784.751 356.746L-784.753 356.747L-784.285 360.146ZM-829.096 369.495L-827.611 372.588L-827.61 372.587L-829.096 369.495ZM-843.378 381.869L-844.835 378.763L-844.838 378.764L-843.378 381.869ZM-882.901 391.737L-883.674 388.394L-883.678 388.395L-882.901 391.737ZM-916.809 406.128L-914.816 408.921L-914.814 408.92L-916.809 406.128ZM-1013.74 438.428L-1014.48 435.08L-1014.49 435.08L-1013.74 438.428ZM921.218 593.548L921.919 590.189C921.919 590.189 921.91 590.187 921.888 590.181C921.866 590.175 921.836 590.166 921.796 590.152C921.714 590.125 921.603 590.082 921.462 590.02C921.175 589.895 920.807 589.709 920.351 589.448C919.436 588.923 918.283 588.162 916.891 587.151C914.109 585.13 910.552 582.243 906.306 578.577C897.824 571.254 886.777 560.986 874.007 548.718C848.477 524.19 816.204 491.805 784.067 459.313C751.946 426.838 719.955 394.25 695.041 369.372C682.584 356.933 671.871 346.396 663.778 338.749C659.735 334.928 656.319 331.802 653.652 329.513C652.32 328.37 651.146 327.409 650.155 326.666C649.229 325.971 648.256 325.305 647.381 324.922L646.003 328.064L644.626 331.206C644.619 331.204 644.651 331.217 644.729 331.261C644.803 331.303 644.904 331.363 645.033 331.446C645.293 331.613 645.626 331.846 646.037 332.155C646.86 332.772 647.908 333.626 649.182 334.72C651.727 336.904 655.052 339.944 659.065 343.736C667.086 351.315 677.744 361.798 690.192 374.228C715.086 399.086 747.037 431.633 779.188 464.139C811.323 496.628 843.653 529.07 869.253 553.666C882.049 565.96 893.2 576.328 901.822 583.772C906.128 587.489 909.85 590.518 912.858 592.703C914.36 593.794 915.731 594.709 916.939 595.401C918.084 596.058 919.326 596.658 920.517 596.907L921.218 593.548ZM646.003 328.064L647.383 324.923C643.231 323.099 638.312 320.578 632.73 317.722C627.186 314.885 621.047 311.748 614.589 308.777C601.723 302.857 587.292 297.449 573.276 296.351L573.009 299.771L572.741 303.192C585.518 304.193 599.054 309.183 611.721 315.011C618.03 317.913 624.049 320.988 629.604 323.831C635.122 326.654 640.244 329.281 644.623 331.205L646.003 328.064ZM573.009 299.771L573.276 296.351C562.767 295.53 557.039 297 551.199 298.958C545.643 300.82 540.234 303.013 529.726 304.099L530.079 307.512L530.431 310.925C541.811 309.749 547.918 307.295 553.38 305.464C558.56 303.728 563.352 302.459 572.741 303.192L573.009 299.771ZM530.079 307.512L529.727 304.099C515.946 305.52 511.544 304.076 507.948 302.346C506.133 301.472 503.659 300.023 500.665 298.86C497.492 297.626 493.485 296.565 487.631 295.924L487.258 299.335L486.885 302.746C492.233 303.331 495.644 304.27 498.179 305.256C500.894 306.311 502.42 307.3 504.973 308.529C510.113 311.003 515.918 312.421 530.431 310.925L530.079 307.512ZM487.258 299.335L487.632 295.924C477.679 294.834 469.283 298.433 461.162 301.643C452.906 304.907 444.451 308.024 433.333 307.439L433.153 310.865L432.972 314.291C445.677 314.96 455.321 311.331 463.684 308.025C472.183 304.666 478.929 301.874 486.884 302.746L487.258 299.335ZM433.153 310.865L433.336 307.439C426.056 307.048 419.592 304.81 413.641 302.163C410.644 300.829 407.866 299.434 405.109 298.101C402.405 296.794 399.716 295.544 397.122 294.648L396.001 297.89L394.88 301.133C397.057 301.886 399.427 302.977 402.122 304.279C404.763 305.556 407.723 307.04 410.852 308.432C417.153 311.236 424.495 313.836 432.969 314.291L433.153 310.865ZM396.001 297.89L397.121 294.647C373.729 286.572 359.08 278.793 341.725 267.942L339.906 270.851L338.087 273.761C355.784 284.825 370.901 292.855 394.882 301.134L396.001 297.89ZM339.906 270.851L341.724 267.942C318.489 253.427 295.924 237.569 263.533 225.154L262.305 228.358L261.077 231.561C292.687 243.677 314.55 259.057 338.088 273.761L339.906 270.851ZM262.305 228.358L263.534 225.154C257.825 222.965 251.443 220.959 245.473 218.967C239.419 216.946 233.758 214.931 229.151 212.66L227.634 215.738L226.117 218.815C231.186 221.314 237.246 223.455 243.301 225.476C249.44 227.525 255.556 229.444 261.077 231.561L262.305 228.358ZM227.634 215.738L224.227 216.138C224.625 219.524 223.519 223.544 220.977 227.884C218.457 232.188 214.688 236.519 210.273 240.387L212.534 242.967L214.795 245.548C219.62 241.321 223.919 236.439 226.898 231.352C229.856 226.302 231.679 220.755 231.042 215.337L227.634 215.738ZM212.534 242.967L214.584 240.216C197.976 227.843 166.337 207.411 127.962 205.198L127.764 208.623L127.567 212.049C163.876 214.143 194.165 233.561 210.484 245.719L212.534 242.967ZM127.764 208.623L127.961 205.198C112.941 204.333 102.637 205.345 93.7001 205.397C84.7368 205.449 76.335 204.602 63.8711 200.083L62.7015 203.308L61.5321 206.534C74.8534 211.364 84.0732 212.315 93.7402 212.259C103.434 212.202 112.768 211.197 127.567 212.049L127.764 208.623ZM62.7015 203.308L63.8705 200.083C48.5103 194.516 37.1238 187.121 26.4454 179.306C15.8455 171.549 5.62561 163.111 -6.86035 156.056L-8.54834 159.043L-10.2362 162.03C1.78186 168.821 11.3915 176.792 22.3927 184.844C33.3156 192.838 45.302 200.652 61.5326 206.534L62.7015 203.308ZM-8.54834 159.043L-10.08 155.973C-35.6708 168.74 -48.1143 190.387 -57.2166 205.34L-54.2858 207.124L-51.355 208.908C-42.1405 193.77 -30.5977 173.877 -7.0166 162.113L-8.54834 159.043ZM-54.2858 207.124L-57.2166 205.34C-58.4379 207.347 -59.2828 209.526 -60.0251 211.319C-60.8063 213.205 -61.5358 214.838 -62.5883 216.346C-64.5392 219.142 -67.9879 222.054 -76.4166 223.828L-75.7098 227.186L-75.0029 230.543C-65.3058 228.501 -60.1412 224.83 -56.9611 220.273C-55.448 218.105 -54.4824 215.87 -53.6852 213.944C-52.8491 211.925 -52.2325 210.35 -51.355 208.908L-54.2858 207.124ZM-75.7098 227.186L-76.4218 223.829C-86.701 226.01 -100.913 225.426 -115.657 224.878C-130.038 224.343 -145.018 223.833 -155.778 226.617L-154.919 229.939L-154.06 233.26C-144.486 230.783 -130.656 231.187 -115.912 231.735C-101.532 232.27 -86.3062 232.941 -74.9978 230.542L-75.7098 227.186ZM-154.919 229.939L-155.777 226.617C-167.29 229.59 -175.377 233.818 -181.569 238.807C-187.736 243.776 -191.86 249.375 -195.543 254.762C-202.876 265.486 -208.592 275.468 -225.575 281.84L-224.37 285.052L-223.165 288.265C-203.896 281.035 -197.101 269.198 -189.879 258.635C-186.284 253.378 -182.62 248.466 -177.263 244.15C-171.932 239.855 -164.762 236.024 -154.061 233.261L-154.919 229.939ZM-224.37 285.052L-225.577 281.841C-232.179 284.321 -240.137 285.329 -248.509 286.206C-256.677 287.061 -265.34 287.796 -272.569 289.909L-271.606 293.202L-270.644 296.495C-264.163 294.601 -256.28 293.919 -247.794 293.03C-239.513 292.163 -230.707 291.098 -223.163 288.264L-224.37 285.052ZM-271.606 293.202L-272.575 289.911C-278.666 291.704 -281.918 293.911 -284.412 296.561C-285.537 297.757 -286.534 299.085 -287.373 300.123C-288.26 301.221 -289.175 302.27 -290.407 303.346L-288.151 305.931L-285.896 308.516C-284.239 307.071 -283.041 305.681 -282.035 304.435C-280.98 303.129 -280.303 302.208 -279.414 301.264C-277.881 299.635 -275.749 297.998 -270.637 296.494L-271.606 293.202ZM-288.151 305.931L-290.408 303.347C-294.852 307.228 -302.948 310.577 -313.044 313.636C-323.019 316.658 -334.283 319.217 -344.766 321.817C-355.069 324.373 -364.808 327.009 -371.16 330.184C-374.265 331.736 -377.193 333.713 -378.701 336.41C-379.51 337.857 -379.903 339.503 -379.683 341.263C-379.469 342.978 -378.707 344.542 -377.647 345.943L-374.911 343.873L-372.174 341.803C-372.723 341.079 -372.848 340.624 -372.874 340.413C-372.895 340.249 -372.882 340.063 -372.711 339.758C-372.26 338.951 -370.938 337.744 -368.092 336.322C-362.543 333.548 -353.581 331.074 -343.114 328.478C-332.827 325.926 -321.253 323.293 -311.054 320.203C-300.976 317.149 -291.564 313.466 -285.895 308.516L-288.151 305.931ZM-374.911 343.873L-377.648 345.942C-376.204 347.852 -375.738 349.336 -375.709 350.428C-375.681 351.46 -376.032 352.532 -377.028 353.71C-379.193 356.271 -383.998 358.821 -391.629 360.774C-406.641 364.617 -430.108 365.542 -456.378 362.355L-456.791 365.761L-457.204 369.167C-430.459 372.412 -406.062 371.552 -389.927 367.422C-381.984 365.389 -375.393 362.405 -371.788 358.14C-369.898 355.905 -368.77 353.24 -368.849 350.245C-368.928 347.309 -370.156 344.474 -372.174 341.804L-374.911 343.873ZM-456.791 365.761L-456.378 362.354C-461.446 361.74 -466.319 361.028 -471.072 360.325C-475.81 359.625 -480.445 358.932 -484.966 358.373C-494.006 357.253 -502.776 356.639 -511.499 357.551L-511.142 360.963L-510.785 364.376C-502.826 363.543 -494.656 364.087 -485.809 365.183C-481.386 365.73 -476.84 366.409 -472.075 367.113C-467.324 367.816 -462.371 368.541 -457.204 369.167L-456.791 365.761ZM-511.142 360.963L-511.499 357.551C-521.111 358.556 -528.107 361.334 -534.815 363.135C-541.565 364.948 -548.953 366.118 -560.607 364.41L-561.104 367.805L-561.601 371.2C-548.887 373.063 -540.548 371.78 -533.035 369.762C-525.481 367.734 -519.68 365.306 -510.785 364.376L-511.142 360.963ZM-561.104 367.805L-560.605 364.41C-571.258 362.845 -581.426 357.36 -591.602 351.131C-601.523 345.057 -611.687 338.095 -621.542 334.639L-622.678 337.877L-623.813 341.114C-614.861 344.254 -605.645 350.58 -595.185 356.983C-584.979 363.231 -573.764 369.412 -561.603 371.199L-561.104 367.805ZM-622.678 337.877L-621.543 334.639C-638.551 328.676 -657.354 323.147 -680.65 321.453L-680.899 324.875L-681.148 328.297C-658.707 329.928 -640.549 335.247 -623.813 341.114L-622.678 337.877ZM-680.899 324.875L-683.686 322.873C-690.821 332.809 -702.646 339.525 -719.668 344.642C-736.691 349.759 -758.385 353.13 -784.751 356.746L-784.285 360.146L-783.819 363.545C-757.524 359.938 -735.307 356.508 -717.693 351.213C-700.078 345.918 -686.54 338.611 -678.112 326.876L-680.899 324.875ZM-784.285 360.146L-784.753 356.747C-791.853 357.724 -800.717 358.907 -809.018 360.434C-817.224 361.943 -825.273 363.852 -830.581 366.402L-829.096 369.495L-827.61 372.587C-823.215 370.476 -815.986 368.692 -807.777 367.183C-799.662 365.69 -790.972 364.53 -783.817 363.545L-784.285 360.146ZM-829.096 369.495L-830.58 366.402C-834.776 368.415 -836.9 371.228 -838.669 373.457C-840.381 375.614 -841.839 377.358 -844.835 378.763L-843.378 381.869L-841.921 384.976C-837.422 382.865 -835.146 380.057 -833.294 377.723C-831.499 375.461 -830.23 373.845 -827.611 372.588L-829.096 369.495ZM-843.378 381.869L-844.838 378.764C-849.677 381.039 -855.781 382.644 -862.595 384.091C-869.197 385.492 -876.803 386.805 -883.674 388.394L-882.901 391.737L-882.128 395.079C-875.207 393.479 -868.272 392.311 -861.17 390.803C-854.281 389.34 -847.519 387.606 -841.919 384.975L-843.378 381.869ZM-882.901 391.737L-883.678 388.395C-893.52 390.684 -899.747 392.548 -904.831 394.818C-909.952 397.105 -913.781 399.747 -918.804 403.337L-916.809 406.128L-914.814 408.92C-909.806 405.341 -906.466 403.063 -902.034 401.084C-897.564 399.088 -891.853 397.341 -882.124 395.078L-882.901 391.737ZM-916.809 406.128L-918.802 403.335C-942.081 419.948 -970.299 425.194 -1014.48 435.08L-1013.74 438.428L-1012.99 441.776C-969.458 432.037 -939.509 426.543 -914.816 408.921L-916.809 406.128ZM-1013.74 438.428L-1014.49 435.08C-1019.22 436.14 -1025.26 439.358 -1032 443.791C-1038.84 448.292 -1046.75 454.29 -1055.29 461.261C-1072.38 475.209 -1092.2 493.219 -1111.4 511.361C-1130.61 529.512 -1149.23 547.837 -1163.93 562.429C-1178.7 577.082 -1189.39 587.851 -1192.87 591.047L-1190.55 593.575L-1188.23 596.103C-1184.62 592.786 -1173.73 581.817 -1159.1 567.299C-1144.41 552.721 -1125.83 534.443 -1106.69 516.349C-1087.53 498.246 -1067.85 480.369 -1050.95 466.577C-1042.5 459.679 -1034.79 453.844 -1028.22 449.523C-1021.56 445.135 -1016.4 442.542 -1012.98 441.776L-1013.74 438.428Z" fill="white" mask="url(#path-4-inside-2_4759_4029)"/>
</mask>
<g mask="url(#mask1_4759_4029)">
<path d="M-1135.71 99.4868L-1980.27 788.6M-1105.48 99.4868L-1950.04 788.6M-1075.25 99.4868L-1919.81 788.6M-1045.02 99.4868L-1889.58 788.6M-1014.79 99.4868L-1859.35 788.6M-984.566 99.4868L-1829.13 788.6M-954.338 99.4868L-1798.9 788.6M-924.11 99.4868L-1768.67 788.6M-893.883 99.4868L-1738.44 788.6M-863.655 99.4868L-1708.22 788.6M-833.425 99.4868L-1677.99 788.6M-803.198 99.4868L-1647.76 788.6M-772.97 99.4868L-1617.53 788.6M-742.742 99.4868L-1587.3 788.6M-712.514 99.4868L-1557.07 788.6M-682.286 99.4868L-1526.85 788.6M-652.056 99.4868L-1496.62 788.6M-621.828 99.4868L-1466.39 788.6M-591.601 99.4868L-1436.13 788.6M-561.374 99.4868L-1405.91 788.6M-531.146 99.4868L-1375.68 788.6M-500.916 99.4868L-1345.45 788.6M-470.689 99.4868L-1315.22 788.6M-440.461 99.4868L-1284.99 788.6M-410.232 99.4868L-1254.77 788.6M-380.005 99.4868L-1224.54 788.6M-349.777 99.4868L-1194.31 788.6M-319.547 99.4868L-1164.08 788.6M-289.319 99.4868L-1133.85 788.6M-259.092 99.4868L-1103.63 788.6M-228.864 99.4868L-1073.4 788.6M-198.636 99.4868L-1043.17 788.6M-168.409 99.4868L-1012.94 788.6M-138.178 99.4868L-982.712 788.6M-107.951 99.4868L-952.484 788.6M-77.7233 99.4868L-922.257 788.6M-47.4952 99.4868L-892.029 788.6M-17.2671 99.4868L-861.801 788.6M12.9601 99.4868L-831.573 788.6M43.2152 99.4868L-801.346 788.6M73.4454 99.4868L-771.115 788.6M103.673 99.4868L-740.888 788.6M133.901 99.4868L-710.66 788.6M164.129 99.4868L-680.432 788.6M194.356 99.4868L-650.204 788.6M224.584 99.4868L-619.977 788.6M254.814 99.4868L-589.746 788.6M285.042 99.4868L-559.519 788.6M315.269 99.4868L-529.291 788.6M345.497 99.4868L-499.063 788.6M375.725 99.4868L-468.836 788.6M405.953 99.4868L-438.608 788.6M436.183 99.4868L-408.378 788.6M466.411 99.4868L-378.15 788.6M496.638 99.4868L-347.923 788.6M526.866 99.4868L-317.695 788.6M557.094 99.4868L-287.467 788.6M587.321 99.4868L-257.239 788.6M617.552 99.4868L-227.009 788.6M647.779 99.4868L-196.781 788.6M678.006 99.4868L-166.554 788.6M708.235 99.4868L-136.326 788.6M738.463 99.4868L-106.098 788.6M768.69 99.4868L-75.8706 788.6M798.918 99.4868L-45.643 788.6M829.148 99.4868L-15.4127 788.6M859.375 99.4868L14.8146 788.6M889.603 99.4868L45.0425 788.6M919.831 99.4868L75.2707 788.6M950.059 99.4868L105.498 788.6M980.286 99.4868L135.726 788.6M1010.52 99.4868L165.956 788.6M1040.74 99.4868L196.184 788.6M1070.97 99.4868L226.411 788.6M1101.2 99.4868L256.639 788.6M1131.43 99.4868L286.867 788.6M1161.66 99.4868L317.094 788.6M1191.89 99.4868L347.325 788.6M1222.11 99.4868L377.552 788.6M1252.34 99.4868L407.78 788.6M1282.57 99.4868L438.008 788.6M1312.8 99.4868L468.262 788.6M1343.03 99.4868L498.492 788.6M1373.25 99.4868L528.72 788.6M1403.48 99.4868L558.948 788.6M1433.71 99.4868L589.176 788.6M1463.94 99.4868L619.404 788.6M1494.16 99.4868L649.631 788.6M1524.39 99.4868L679.861 788.6M1554.62 99.4868L710.089 788.6M1584.85 99.4868L740.316 788.6M1615.08 99.4868L770.545 788.6" stroke="url(#paint1_linear_4759_4029)" stroke-width="2" stroke-miterlimit="10"/>
</g>
<mask id="mask2_4759_4029" style="mask-type:luminance" maskUnits="userSpaceOnUse" x="-42" y="159" width="2113" height="435">
<mask id="path-7-inside-3_4759_4029" fill="white">
<path d="M2070.22 593.548C2049.45 589.214 1810.49 334.851 1795 328.064C1777.94 320.568 1748.8 301.87 1722.01 299.771C1702.11 298.217 1700.97 305.25 1679.08 307.512C1650.79 310.429 1658.66 301.788 1636.26 299.335C1618.35 297.373 1605.98 312.119 1582.15 310.865C1566.4 310.02 1554.54 301.189 1545 297.89C1521.31 289.713 1506.43 281.809 1488.91 270.851C1465.52 256.242 1443.31 240.623 1411.31 228.358C1400.08 224.051 1386.31 220.508 1376.63 215.738C1377.67 224.542 1370.77 234.872 1361.53 242.967C1345.07 230.702 1314.11 210.777 1276.76 208.623C1246.94 206.906 1237.49 212.658 1211.7 203.308C1180.11 191.86 1164.96 172.889 1140.45 159.043C1115.87 171.309 1103.87 192.078 1094.71 207.124C1090.52 214.02 1091.42 223.37 1073.29 227.186C1051.7 231.765 1014.41 224.678 994.081 229.939C949.652 241.414 960.882 271.451 924.63 285.052C910.484 290.367 891.104 289.195 877.394 293.202C866.191 296.5 866.627 300.889 860.849 305.931C840.624 323.594 761.224 326.865 774.089 343.873C787.936 362.19 745.224 372.193 692.209 365.761C671.739 363.28 654.54 359.219 637.858 360.963C619.351 362.899 612.264 371.376 587.896 367.805C565.082 364.452 545.13 344.473 526.322 337.877C509.45 331.962 490.97 326.538 468.101 324.875C452.537 346.544 417.376 352.922 364.715 360.146C350.46 362.108 329.608 364.834 319.904 369.495C313.09 372.766 313.117 378.353 305.622 381.869C295.182 386.776 279.891 388.547 266.099 391.737C246.528 396.288 242.222 398.96 232.191 406.128C208.205 423.246 179.122 428.615 135.265 438.428C102.665 445.733 -27.3508 580.546 -41.5518 593.575"/>
</mask>
<path d="M2070.22 593.548C2049.45 589.214 1810.49 334.851 1795 328.064C1777.94 320.568 1748.8 301.87 1722.01 299.771C1702.11 298.217 1700.97 305.25 1679.08 307.512C1650.79 310.429 1658.66 301.788 1636.26 299.335C1618.35 297.373 1605.98 312.119 1582.15 310.865C1566.4 310.02 1554.54 301.189 1545 297.89C1521.31 289.713 1506.43 281.809 1488.91 270.851C1465.52 256.242 1443.31 240.623 1411.31 228.358C1400.08 224.051 1386.31 220.508 1376.63 215.738C1377.67 224.542 1370.77 234.872 1361.53 242.967C1345.07 230.702 1314.11 210.777 1276.76 208.623C1246.94 206.906 1237.49 212.658 1211.7 203.308C1180.11 191.86 1164.96 172.889 1140.45 159.043C1115.87 171.309 1103.87 192.078 1094.71 207.124C1090.52 214.02 1091.42 223.37 1073.29 227.186C1051.7 231.765 1014.41 224.678 994.081 229.939C949.652 241.414 960.882 271.451 924.63 285.052C910.484 290.367 891.104 289.195 877.394 293.202C866.191 296.5 866.627 300.889 860.849 305.931C840.624 323.594 761.224 326.865 774.089 343.873C787.936 362.19 745.224 372.193 692.209 365.761C671.739 363.28 654.54 359.219 637.858 360.963C619.351 362.899 612.264 371.376 587.896 367.805C565.082 364.452 545.13 344.473 526.322 337.877C509.45 331.962 490.97 326.538 468.101 324.875C452.537 346.544 417.376 352.922 364.715 360.146C350.46 362.108 329.608 364.834 319.904 369.495C313.09 372.766 313.117 378.353 305.622 381.869C295.182 386.776 279.891 388.547 266.099 391.737C246.528 396.288 242.222 398.96 232.191 406.128C208.205 423.246 179.122 428.615 135.265 438.428C102.665 445.733 -27.3508 580.546 -41.5518 593.575" fill="white"/>
<path d="M1795 328.064L1793.62 331.205L1793.63 331.206L1795 328.064ZM1722.01 299.771L1722.28 296.351L1722.28 296.351L1722.01 299.771ZM1679.08 307.512L1679.43 310.925L1679.43 310.925L1679.08 307.512ZM1636.26 299.335L1635.88 302.746L1635.88 302.746L1636.26 299.335ZM1582.15 310.865L1581.97 314.291L1581.97 314.291L1582.15 310.865ZM1545 297.89L1546.12 294.648L1546.12 294.647L1545 297.89ZM1488.91 270.851L1490.72 267.942L1490.72 267.942L1488.91 270.851ZM1411.31 228.358L1410.08 231.561L1410.08 231.561L1411.31 228.358ZM1376.63 215.738L1378.15 212.66L1372.49 209.869L1373.23 216.138L1376.63 215.738ZM1361.53 242.967L1359.48 245.719L1361.71 247.376L1363.79 245.548L1361.53 242.967ZM1276.76 208.623L1276.96 205.198L1276.96 205.198L1276.76 208.623ZM1211.7 203.308L1212.87 200.083L1212.87 200.083L1211.7 203.308ZM1140.45 159.043L1142.14 156.056L1140.55 155.159L1138.92 155.973L1140.45 159.043ZM1094.71 207.124L1097.65 208.908L1094.71 207.124ZM1073.29 227.186L1072.58 223.828L1072.58 223.829L1073.29 227.186ZM994.081 229.939L994.939 233.261L994.94 233.26L994.081 229.939ZM924.63 285.052L923.425 281.84L923.423 281.841L924.63 285.052ZM877.394 293.202L876.431 289.909L876.425 289.911L877.394 293.202ZM860.849 305.931L858.593 303.346L858.592 303.347L860.849 305.931ZM774.089 343.873L776.826 341.804L776.826 341.803L774.089 343.873ZM692.209 365.761L692.622 362.355L692.622 362.354L692.209 365.761ZM637.858 360.963L638.215 364.376L637.858 360.963ZM587.896 367.805L587.397 371.199L587.399 371.2L587.896 367.805ZM526.322 337.877L527.458 334.639L527.457 334.639L526.322 337.877ZM468.101 324.875L468.35 321.453L466.435 321.314L465.314 322.873L468.101 324.875ZM364.715 360.146L364.249 356.746L364.247 356.747L364.715 360.146ZM319.904 369.495L321.389 372.588L321.39 372.587L319.904 369.495ZM305.622 381.869L304.165 378.763L304.162 378.764L305.622 381.869ZM266.099 391.737L265.326 388.394L265.322 388.395L266.099 391.737ZM232.191 406.128L234.184 408.921L234.186 408.92L232.191 406.128ZM135.265 438.428L134.516 435.08L134.515 435.08L135.265 438.428ZM2070.22 593.548L2070.92 590.189C2070.92 590.189 2070.91 590.187 2070.89 590.181C2070.87 590.175 2070.84 590.166 2070.8 590.152C2070.71 590.125 2070.6 590.082 2070.46 590.02C2070.18 589.895 2069.81 589.709 2069.35 589.448C2068.44 588.923 2067.28 588.162 2065.89 587.151C2063.11 585.13 2059.55 582.243 2055.31 578.577C2046.82 571.254 2035.78 560.986 2023.01 548.718C1997.48 524.19 1965.2 491.805 1933.07 459.313C1900.95 426.838 1868.95 394.25 1844.04 369.372C1831.58 356.933 1820.87 346.396 1812.78 338.749C1808.74 334.928 1805.32 331.802 1802.65 329.513C1801.32 328.37 1800.15 327.409 1799.16 326.666C1798.23 325.971 1797.26 325.305 1796.38 324.922L1795 328.064L1793.63 331.206C1793.62 331.204 1793.65 331.217 1793.73 331.261C1793.8 331.303 1793.9 331.363 1794.03 331.446C1794.29 331.613 1794.63 331.846 1795.04 332.155C1795.86 332.772 1796.91 333.626 1798.18 334.72C1800.73 336.904 1804.05 339.944 1808.07 343.736C1816.09 351.315 1826.74 361.798 1839.19 374.228C1864.09 399.086 1896.04 431.633 1928.19 464.139C1960.32 496.628 1992.65 529.07 2018.25 553.666C2031.05 565.96 2042.2 576.328 2050.82 583.772C2055.13 587.489 2058.85 590.518 2061.86 592.703C2063.36 593.794 2064.73 594.709 2065.94 595.401C2067.08 596.058 2068.33 596.658 2069.52 596.907L2070.22 593.548ZM1795 328.064L1796.38 324.923C1792.23 323.099 1787.31 320.578 1781.73 317.722C1776.19 314.885 1770.05 311.748 1763.59 308.777C1750.72 302.857 1736.29 297.449 1722.28 296.351L1722.01 299.771L1721.74 303.192C1734.52 304.193 1748.05 309.183 1760.72 315.011C1767.03 317.913 1773.05 320.988 1778.6 323.831C1784.12 326.654 1789.24 329.281 1793.62 331.205L1795 328.064ZM1722.01 299.771L1722.28 296.351C1711.77 295.53 1706.04 297 1700.2 298.958C1694.64 300.82 1689.23 303.013 1678.73 304.099L1679.08 307.512L1679.43 310.925C1690.81 309.749 1696.92 307.295 1702.38 305.464C1707.56 303.728 1712.35 302.459 1721.74 303.192L1722.01 299.771ZM1679.08 307.512L1678.73 304.099C1664.95 305.52 1660.54 304.076 1656.95 302.346C1655.13 301.472 1652.66 300.023 1649.67 298.86C1646.49 297.626 1642.49 296.565 1636.63 295.924L1636.26 299.335L1635.88 302.746C1641.23 303.331 1644.64 304.27 1647.18 305.256C1649.89 306.311 1651.42 307.3 1653.97 308.529C1659.11 311.003 1664.92 312.421 1679.43 310.925L1679.08 307.512ZM1636.26 299.335L1636.63 295.924C1626.68 294.834 1618.28 298.433 1610.16 301.643C1601.91 304.907 1593.45 308.024 1582.33 307.439L1582.15 310.865L1581.97 314.291C1594.68 314.96 1604.32 311.331 1612.68 308.025C1621.18 304.666 1627.93 301.874 1635.88 302.746L1636.26 299.335ZM1582.15 310.865L1582.34 307.439C1575.06 307.048 1568.59 304.81 1562.64 302.163C1559.64 300.829 1556.87 299.434 1554.11 298.101C1551.4 296.794 1548.72 295.544 1546.12 294.648L1545 297.89L1543.88 301.133C1546.06 301.886 1548.43 302.977 1551.12 304.279C1553.76 305.556 1556.72 307.04 1559.85 308.432C1566.15 311.236 1573.5 313.836 1581.97 314.291L1582.15 310.865ZM1545 297.89L1546.12 294.647C1522.73 286.572 1508.08 278.793 1490.72 267.942L1488.91 270.851L1487.09 273.761C1504.78 284.825 1519.9 292.855 1543.88 301.134L1545 297.89ZM1488.91 270.851L1490.72 267.942C1467.49 253.427 1444.92 237.569 1412.53 225.154L1411.31 228.358L1410.08 231.561C1441.69 243.677 1463.55 259.057 1487.09 273.761L1488.91 270.851ZM1411.31 228.358L1412.53 225.154C1406.82 222.965 1400.44 220.959 1394.47 218.967C1388.42 216.946 1382.76 214.931 1378.15 212.66L1376.63 215.738L1375.12 218.815C1380.19 221.314 1386.25 223.455 1392.3 225.476C1398.44 227.525 1404.56 229.444 1410.08 231.561L1411.31 228.358ZM1376.63 215.738L1373.23 216.138C1373.62 219.524 1372.52 223.544 1369.98 227.884C1367.46 232.188 1363.69 236.519 1359.27 240.387L1361.53 242.967L1363.79 245.548C1368.62 241.321 1372.92 236.439 1375.9 231.352C1378.86 226.302 1380.68 220.755 1380.04 215.337L1376.63 215.738ZM1361.53 242.967L1363.58 240.216C1346.98 227.843 1315.34 207.411 1276.96 205.198L1276.76 208.623L1276.57 212.049C1312.88 214.143 1343.17 233.561 1359.48 245.719L1361.53 242.967ZM1276.76 208.623L1276.96 205.198C1261.94 204.333 1251.64 205.345 1242.7 205.397C1233.74 205.449 1225.33 204.602 1212.87 200.083L1211.7 203.308L1210.53 206.534C1223.85 211.364 1233.07 212.315 1242.74 212.259C1252.43 212.202 1261.77 211.197 1276.57 212.049L1276.76 208.623ZM1211.7 203.308L1212.87 200.083C1197.51 194.516 1186.12 187.121 1175.45 179.306C1164.85 171.549 1154.63 163.111 1142.14 156.056L1140.45 159.043L1138.76 162.03C1150.78 168.821 1160.39 176.792 1171.39 184.844C1182.32 192.838 1194.3 200.652 1210.53 206.534L1211.7 203.308ZM1140.45 159.043L1138.92 155.973C1113.33 168.74 1100.89 190.387 1091.78 205.34L1094.71 207.124L1097.65 208.908C1106.86 193.77 1118.4 173.877 1141.98 162.113L1140.45 159.043ZM1094.71 207.124L1091.78 205.34C1090.56 207.347 1089.72 209.526 1088.97 211.319C1088.19 213.205 1087.46 214.838 1086.41 216.346C1084.46 219.142 1081.01 222.054 1072.58 223.828L1073.29 227.186L1074 230.543C1083.69 228.501 1088.86 224.83 1092.04 220.273C1093.55 218.105 1094.52 215.87 1095.31 213.944C1096.15 211.925 1096.77 210.35 1097.65 208.908L1094.71 207.124ZM1073.29 227.186L1072.58 223.829C1062.3 226.01 1048.09 225.426 1033.34 224.878C1018.96 224.343 1003.98 223.833 993.222 226.617L994.081 229.939L994.94 233.26C1004.51 230.783 1018.34 231.187 1033.09 231.735C1047.47 232.27 1062.69 232.941 1074 230.542L1073.29 227.186ZM994.081 229.939L993.223 226.617C981.71 229.59 973.623 233.818 967.431 238.807C961.264 243.776 957.14 249.375 953.457 254.762C946.124 265.486 940.408 275.468 923.425 281.84L924.63 285.052L925.835 288.265C945.104 281.035 951.899 269.198 959.121 258.635C962.716 253.378 966.38 248.466 971.737 244.15C977.068 239.855 984.238 236.024 994.939 233.261L994.081 229.939ZM924.63 285.052L923.423 281.841C916.821 284.321 908.863 285.329 900.491 286.206C892.323 287.061 883.66 287.796 876.431 289.909L877.394 293.202L878.356 296.495C884.837 294.601 892.72 293.919 901.206 293.03C909.487 292.163 918.293 291.098 925.837 288.264L924.63 285.052ZM877.394 293.202L876.425 289.911C870.334 291.704 867.082 293.911 864.588 296.561C863.463 297.757 862.466 299.085 861.627 300.123C860.74 301.221 859.825 302.27 858.593 303.346L860.849 305.931L863.104 308.516C864.761 307.071 865.959 305.681 866.965 304.435C868.02 303.129 868.697 302.208 869.586 301.264C871.119 299.635 873.251 297.998 878.363 296.494L877.394 293.202ZM860.849 305.931L858.592 303.347C854.148 307.228 846.052 310.577 835.956 313.636C825.981 316.658 814.717 319.217 804.234 321.817C793.931 324.373 784.192 327.009 777.84 330.184C774.735 331.736 771.807 333.713 770.299 336.41C769.49 337.857 769.097 339.503 769.317 341.263C769.531 342.978 770.293 344.542 771.353 345.943L774.089 343.873L776.826 341.803C776.277 341.079 776.152 340.624 776.126 340.413C776.105 340.249 776.118 340.063 776.289 339.758C776.74 338.951 778.062 337.744 780.908 336.322C786.457 333.548 795.419 331.074 805.886 328.478C816.173 325.926 827.747 323.293 837.946 320.203C848.024 317.149 857.436 313.466 863.105 308.516L860.849 305.931ZM774.089 343.873L771.352 345.942C772.796 347.852 773.262 349.336 773.291 350.428C773.319 351.46 772.968 352.532 771.972 353.71C769.807 356.271 765.002 358.821 757.371 360.774C742.359 364.617 718.892 365.542 692.622 362.355L692.209 365.761L691.796 369.167C718.541 372.412 742.938 371.552 759.073 367.422C767.016 365.389 773.607 362.405 777.212 358.14C779.102 355.905 780.23 353.24 780.151 350.245C780.072 347.309 778.844 344.474 776.826 341.804L774.089 343.873ZM692.209 365.761L692.622 362.354C687.554 361.74 682.681 361.028 677.928 360.325C673.19 359.625 668.555 358.932 664.034 358.373C654.994 357.253 646.224 356.639 637.501 357.551L637.858 360.963L638.215 364.376C646.174 363.543 654.344 364.087 663.191 365.183C667.614 365.73 672.16 366.409 676.925 367.113C681.676 367.816 686.629 368.541 691.796 369.167L692.209 365.761ZM637.858 360.963L637.501 357.551C627.889 358.556 620.893 361.334 614.185 363.135C607.435 364.948 600.047 366.118 588.393 364.41L587.896 367.805L587.399 371.2C600.113 373.063 608.452 371.78 615.965 369.762C623.519 367.734 629.32 365.306 638.215 364.376L637.858 360.963ZM587.896 367.805L588.395 364.41C577.742 362.845 567.574 357.36 557.398 351.131C547.477 345.057 537.313 338.095 527.458 334.639L526.322 337.877L525.187 341.114C534.139 344.254 543.355 350.58 553.815 356.983C564.021 363.231 575.236 369.412 587.397 371.199L587.896 367.805ZM526.322 337.877L527.457 334.639C510.449 328.676 491.646 323.147 468.35 321.453L468.101 324.875L467.852 328.297C490.293 329.928 508.451 335.247 525.187 341.114L526.322 337.877ZM468.101 324.875L465.314 322.873C458.179 332.809 446.354 339.525 429.332 344.642C412.309 349.759 390.615 353.13 364.249 356.746L364.715 360.146L365.181 363.545C391.476 359.938 413.693 356.508 431.307 351.213C448.922 345.918 462.46 338.611 470.888 326.876L468.101 324.875ZM364.715 360.146L364.247 356.747C357.147 357.724 348.283 358.907 339.982 360.434C331.776 361.943 323.727 363.852 318.419 366.402L319.904 369.495L321.39 372.587C325.785 370.476 333.014 368.692 341.223 367.183C349.338 365.69 358.028 364.53 365.183 363.545L364.715 360.146ZM319.904 369.495L318.42 366.402C314.224 368.415 312.1 371.228 310.331 373.457C308.619 375.614 307.161 377.358 304.165 378.763L305.622 381.869L307.079 384.976C311.578 382.865 313.854 380.057 315.706 377.723C317.501 375.461 318.77 373.845 321.389 372.588L319.904 369.495ZM305.622 381.869L304.162 378.764C299.323 381.039 293.219 382.644 286.405 384.091C279.803 385.492 272.197 386.805 265.326 388.394L266.099 391.737L266.872 395.079C273.793 393.479 280.728 392.311 287.83 390.803C294.719 389.34 301.481 387.606 307.081 384.975L305.622 381.869ZM266.099 391.737L265.322 388.395C255.48 390.684 249.253 392.548 244.169 394.818C239.048 397.105 235.219 399.747 230.196 403.337L232.191 406.128L234.186 408.92C239.194 405.341 242.534 403.063 246.966 401.084C251.436 399.088 257.147 397.341 266.876 395.078L266.099 391.737ZM232.191 406.128L230.198 403.335C206.919 419.948 178.701 425.194 134.516 435.08L135.265 438.428L136.014 441.776C179.542 432.037 209.491 426.543 234.184 408.921L232.191 406.128ZM135.265 438.428L134.515 435.08C129.785 436.14 123.741 439.358 117.004 443.791C110.164 448.292 102.255 454.29 93.7121 461.261C76.6211 475.209 56.7988 493.219 37.6006 511.361C18.3933 529.512 -0.2318 547.837 -14.9344 562.429C-29.6981 577.082 -40.3872 587.851 -43.8713 591.047L-41.5518 593.575L-39.2322 596.103C-35.6159 592.786 -24.7276 581.817 -10.1005 567.299C4.58774 552.721 23.1668 534.443 42.3137 516.349C61.4696 498.246 81.1513 480.369 98.0507 466.577C106.503 459.679 114.211 453.844 120.776 449.523C127.445 445.135 132.595 442.542 136.015 441.776L135.265 438.428Z" fill="white" mask="url(#path-7-inside-3_4759_4029)"/>
</mask>
<g mask="url(#mask2_4759_4029)">
<path d="M13.2929 99.4868L-831.268 788.6M43.521 99.4868L-801.04 788.6M73.7482 99.4868L-770.812 788.6M103.976 99.4868L-740.585 788.6M134.206 99.4868L-710.354 788.6M164.433 99.4868L-680.127 788.6M194.662 99.4868L-649.899 788.6M224.89 99.4868L-619.671 788.6M255.117 99.4868L-589.444 788.6M285.345 99.4868L-559.216 788.6M315.575 99.4868L-528.986 788.6M345.802 99.4868L-498.759 788.6M376.03 99.4868L-468.53 788.6M406.258 99.4868L-438.302 788.6M436.486 99.4868L-408.074 788.6M466.714 99.4868L-377.847 788.6M496.944 99.4868L-347.617 788.6M527.172 99.4868L-317.389 788.6M557.399 99.4868L-287.135 788.6M587.626 99.4868L-256.907 788.6M617.854 99.4868L-226.68 788.6M648.084 99.4868L-196.449 788.6M678.311 99.4868L-166.222 788.6M708.539 99.4868L-135.994 788.6M738.767 99.4868L-105.766 788.6M768.995 99.4868L-75.5385 788.6M799.223 99.4868L-45.3108 788.6M829.453 99.4868L-15.0804 788.6M859.681 99.4868L15.1472 788.6M889.908 99.4868L45.3746 788.6M920.136 99.4868L75.6027 788.6M950.364 99.4868L105.831 788.6M980.591 99.4868L136.058 788.6M1010.82 99.4868L166.288 788.6M1041.05 99.4868L196.516 788.6M1071.28 99.4868L226.743 788.6M1101.5 99.4868L256.971 788.6M1131.73 99.4868L287.199 788.6M1161.96 99.4868L317.427 788.6M1192.22 99.4868L347.654 788.6M1222.45 99.4868L377.885 788.6M1252.67 99.4868L408.112 788.6M1282.9 99.4868L438.34 788.6M1313.13 99.4868L468.568 788.6M1343.36 99.4868L498.795 788.6M1373.58 99.4868L529.023 788.6M1403.81 99.4868L559.253 788.6M1434.04 99.4868L589.481 788.6M1464.27 99.4868L619.708 788.6M1494.5 99.4868L649.937 788.6M1524.72 99.4868L680.164 788.6M1554.95 99.4868L710.392 788.6M1585.18 99.4868L740.622 788.6M1615.41 99.4868L770.85 788.6M1645.64 99.4868L801.077 788.6M1675.87 99.4868L831.305 788.6M1706.09 99.4868L861.533 788.6M1736.32 99.4868L891.76 788.6M1766.55 99.4868L921.991 788.6M1796.78 99.4868L952.219 788.6M1827.01 99.4868L982.446 788.6M1857.23 99.4868L1012.67 788.6M1887.46 99.4868L1042.9 788.6M1917.69 99.4868L1073.13 788.6M1947.92 99.4868L1103.36 788.6M1978.15 99.4868L1133.59 788.6M2008.38 99.4868L1163.81 788.6M2038.6 99.4868L1194.04 788.6M2068.83 99.4868L1224.27 788.6M2099.06 99.4868L1254.5 788.6M2129.29 99.4868L1284.73 788.6M2159.52 99.4868L1314.96 788.6M2189.74 99.4868L1345.18 788.6M2219.97 99.4868L1375.41 788.6M2250.2 99.4868L1405.64 788.6M2280.43 99.4868L1435.87 788.6M2310.66 99.4868L1466.09 788.6M2340.89 99.4868L1496.32 788.6M2371.11 99.4868L1526.55 788.6M2401.34 99.4868L1556.78 788.6M2431.57 99.4868L1587.01 788.6M2461.8 99.4868L1617.26 788.6M2492.03 99.4868L1647.49 788.6M2522.25 99.4868L1677.72 788.6M2552.48 99.4868L1707.95 788.6M2582.71 99.4868L1738.18 788.6M2612.94 99.4868L1768.4 788.6M2643.16 99.4868L1798.63 788.6M2673.39 99.4868L1828.86 788.6M2703.62 99.4868L1859.09 788.6M2733.85 99.4868L1889.32 788.6M2764.08 99.4868L1919.54 788.6" stroke="url(#paint2_linear_4759_4029)" stroke-width="2" stroke-miterlimit="10"/>
</g>
<defs>
<linearGradient id="paint0_linear_4759_4029" x1="509.193" y1="-0.65385" x2="509.193" y2="392.289" gradientUnits="userSpaceOnUse">
<stop stop-color="#006155"/>
<stop offset="0.461538" stop-color="#98C441"/>
<stop offset="0.8" stop-color="#98C441" stop-opacity="0"/>
</linearGradient>
<linearGradient id="paint1_linear_4759_4029" x1="-103.495" y1="158.355" x2="-103.495" y2="592.175" gradientUnits="userSpaceOnUse">
<stop stop-color="#006155"/>
<stop offset="0.240385" stop-color="#98C441"/>
<stop offset="0.701923" stop-color="#98C441" stop-opacity="0"/>
</linearGradient>
<linearGradient id="paint2_linear_4759_4029" x1="1045.5" y1="158.355" x2="1045.5" y2="592.175" gradientUnits="userSpaceOnUse">
<stop stop-color="#006155"/>
<stop offset="0.240385" stop-color="#98C441"/>
<stop offset="0.701923" stop-color="#98C441" stop-opacity="0"/>
</linearGradient>
</defs>
</svg>
