<?xml version="1.0" standalone="no"?>
<!DOCTYPE svg PUBLIC "-//W3C//DTD SVG 1.1//EN" "http://www.w3.org/Graphics/SVG/1.1/DTD/svg11.dtd">
<svg xmlns="http://www.w3.org/2000/svg" width="730" height="183" viewBox="0 0 730 183" fill="none">
<path d="M180.197 82.6661H88.8467C66.9202 82.6661 49.1447 101.422 49.1445 124.148C49.1446 146.875 66.9194 164.579 88.8457 164.579H163.815L163.773 115.435H92.9463L84.124 131.816H147.435V148.198H89.0176C75.8618 148.198 65.0255 137.784 65.0254 124.148C65.0256 110.513 75.6901 99.054 88.8457 99.0538H180.197V180.961H32.7656V66.2842H139.46C152.616 66.2842 163.819 55.3272 163.819 41.6915C163.819 28.0555 152.616 17.1457 139.46 17.1456H16.3848V180.961H0.0292969L0 0.764709L180.197 0.763733V82.6661Z" fill="#98C441"/>
<path d="M139.246 33.5215C143.631 33.5216 147.4 37.2899 147.4 41.835C147.4 46.3804 143.889 49.8995 139.504 49.8995H32.7676V33.5206L139.246 33.5215Z" fill="#98C441"/>
<path d="M263.615 98.5491C270.956 98.5491 277.299 99.8171 282.645 102.353C288.07 104.812 292.299 108 295.331 111.919C298.443 115.761 300.517 119.757 301.555 123.906H283.603C282.007 120.602 279.612 117.913 276.421 115.838C273.309 113.687 268.961 112.612 263.376 112.612C258.349 112.612 253.88 113.725 249.971 115.953C246.141 118.182 243.109 121.448 240.875 125.751C238.721 130.054 237.644 135.202 237.644 141.196C237.644 146.882 238.721 151.8 240.875 155.949C243.029 160.099 246.061 163.288 249.971 165.516C253.96 167.744 258.628 168.859 263.974 168.859C267.963 168.859 271.594 168.09 274.865 166.553C278.137 165.016 280.809 162.595 282.884 159.291C284.697 156.403 285.78 152.868 286.13 148.688H254.838L262.817 135.433H301.315V180.961H285.158V172.376C282.933 175.536 279.741 178.013 275.583 179.808C271.035 181.729 265.969 182.69 260.384 182.69C252.485 182.69 245.423 180.961 239.199 177.503C232.976 173.969 228.108 169.05 224.598 162.749C221.087 156.448 219.331 149.264 219.331 141.196C219.331 132.897 221.246 125.52 225.076 119.066C228.906 112.534 234.173 107.502 240.875 103.967C247.577 100.356 255.158 98.5491 263.615 98.5491Z" fill="#1F3131"/>
<path fill-rule="evenodd" clip-rule="evenodd" d="M371.553 119.989C377.537 119.989 383.002 121.333 387.949 124.023C392.896 126.635 396.766 130.362 399.559 135.202C402.431 139.967 403.867 145.346 403.867 151.339C403.867 157.333 402.431 162.75 399.559 167.591C396.766 172.355 392.896 176.081 387.949 178.771C383.002 181.383 377.537 182.69 371.553 182.69C365.569 182.69 360.103 181.383 355.156 178.771C350.209 176.081 346.299 172.355 343.427 167.591C340.634 162.75 339.237 157.333 339.237 151.339C339.237 145.346 340.634 139.967 343.427 135.202C346.299 130.362 350.209 126.635 355.156 124.023C360.103 121.333 365.569 119.989 371.553 119.989ZM371.553 132.667C368.361 132.667 365.608 133.397 363.294 134.857C360.98 136.24 359.185 138.354 357.908 141.197C356.711 143.963 356.113 147.344 356.113 151.339C356.113 155.335 356.711 158.754 357.908 161.597C359.185 164.363 360.98 166.477 363.294 167.937C365.608 169.32 368.361 170.011 371.553 170.011C374.744 170.011 377.497 169.32 379.811 167.937C382.124 166.477 383.88 164.363 385.077 161.597C386.354 158.754 386.992 155.335 386.992 151.339C386.992 147.593 386.431 144.387 385.309 141.722L384.846 140.671C383.658 138.092 381.98 136.153 379.811 134.857C377.497 133.397 374.744 132.667 371.553 132.667Z" fill="#1F3131"/>
<path fill-rule="evenodd" clip-rule="evenodd" d="M429.539 128.527C430.936 126.132 433.049 124.169 435.882 122.639C439.233 120.872 443.143 119.988 447.611 119.988C452.798 119.988 457.465 121.256 461.614 123.791C465.843 126.327 469.154 129.977 471.548 134.741C474.021 139.429 475.259 144.961 475.259 151.338C475.259 157.716 474.021 163.287 471.548 168.051C469.154 172.738 465.843 176.35 461.614 178.886C457.465 181.422 452.798 182.69 447.611 182.69C443.303 182.69 439.472 181.767 436.121 179.923C433.199 178.248 431.005 176.193 429.539 173.758V180.96H413.022V100.278H429.539V128.527ZM444.021 132.436C441.068 132.436 438.475 133.243 436.241 134.857C434.007 136.47 432.292 138.737 431.095 141.656C429.898 144.499 429.3 147.727 429.3 151.338C429.3 154.95 429.898 158.216 431.095 161.136C432.292 163.979 434.007 166.207 436.241 167.821C438.475 169.434 441.068 170.241 444.021 170.241C447.132 170.241 449.766 169.473 451.92 167.936C454.074 166.399 455.67 164.248 456.707 161.482C457.824 158.639 458.383 155.257 458.383 151.338C458.383 145.422 457.146 140.811 454.673 137.507C452.279 134.126 448.728 132.436 444.021 132.436Z" fill="#1F3131"/>
<path fill-rule="evenodd" clip-rule="evenodd" d="M512.021 119.989C517.686 119.989 522.434 120.68 526.264 122.063C530.094 123.446 532.927 125.521 534.762 128.287C536.676 131.054 537.634 134.511 537.634 138.66V166.668C537.634 168.973 537.833 171.394 538.232 173.93C538.631 176.466 539.11 178.81 539.669 180.961H523.392C523.232 180.346 523.112 179.885 523.032 179.577C523.032 179.27 522.952 178.809 522.793 178.195C522.633 177.273 522.474 176.273 522.314 175.198C522.228 174.612 522.153 174.005 522.09 173.374C520.346 176.011 517.869 178.158 514.654 179.809C511.144 181.653 506.994 182.574 502.207 182.574C498.058 182.574 494.308 181.883 490.957 180.5C487.686 179.04 485.093 176.965 483.178 174.276C481.263 171.509 480.305 168.206 480.305 164.364C480.305 159.83 481.581 156.333 484.135 153.874C486.768 151.339 489.72 149.61 492.991 148.688C496.342 147.766 500.133 147.036 504.361 146.498L509.389 145.922C512.181 145.615 514.375 145.23 515.971 144.769C517.646 144.308 518.963 143.578 519.921 142.579C520.878 141.58 521.356 140.12 521.356 138.199C521.356 135.894 520.519 134.127 518.844 132.898C517.168 131.668 514.774 131.053 511.662 131.053C508.63 131.053 506.157 131.668 504.242 132.898C502.407 134.05 501.25 135.664 500.771 137.739H483.058C483.856 134.05 485.491 130.9 487.965 128.287C490.438 125.598 493.71 123.561 497.779 122.178C501.849 120.718 506.596 119.989 512.021 119.989ZM521.356 151.009C520.283 152.236 519.088 153.153 517.767 153.759C516.091 154.527 513.578 155.181 510.227 155.719C505.758 156.487 502.527 157.41 500.532 158.486C498.537 159.485 497.54 161.29 497.54 163.903C497.54 166.054 498.457 167.744 500.292 168.974C502.127 170.203 504.481 170.818 507.354 170.818C510.066 170.818 512.461 170.242 514.535 169.089C516.689 167.86 518.365 166.208 519.562 164.133C520.758 161.982 521.356 159.561 521.356 156.871V151.009Z" fill="#1F3131"/>
<path d="M330.187 180.96H313.67V107.962L330.187 100.278V180.96Z" fill="#1F3131"/>
<path d="M566.761 180.96H550.244V107.962L566.761 100.278V180.96Z" fill="#1F3131"/>
<path fill-rule="evenodd" clip-rule="evenodd" d="M345.719 20.4797C351.942 20.4798 357.408 21.9013 362.115 24.7444C366.903 27.5106 370.652 31.6218 373.365 37.0774C376.078 42.4562 377.475 48.9488 377.555 56.5559H330.829C331.035 59.013 331.69 61.2417 332.793 63.2415C334.229 65.7001 336.144 67.6211 338.537 69.0042C341.011 70.3104 343.803 70.9631 346.915 70.9631C349.867 70.9631 352.301 70.5024 354.216 69.5803C356.131 68.6582 357.528 67.3903 358.405 65.7766H375.64C373.884 71.1554 370.453 75.4201 365.347 78.5706C360.32 81.6442 354.096 83.1809 346.676 83.1809C339.973 83.1809 334.149 81.8745 329.202 79.262C324.335 76.6494 320.584 73 317.951 68.3127C315.318 63.5487 314.002 58.0928 314.002 51.9456C314.002 45.952 315.438 40.5729 318.311 35.8088C321.183 30.968 325.013 27.2033 329.801 24.5139C334.668 21.8246 339.974 20.4797 345.719 20.4797ZM346.316 32.6975C343.364 32.6976 340.691 33.4271 338.298 34.887C335.984 36.27 334.149 38.191 332.793 40.6497C331.908 42.2036 331.313 43.8565 331.006 45.6067H361.167C360.605 42.456 359.366 39.7666 357.447 37.5383C354.814 34.311 351.104 32.6975 346.316 32.6975Z" fill="#1F3131"/>
<path fill-rule="evenodd" clip-rule="evenodd" d="M444.912 81.4514H428.396V74.637C426.99 77.0336 424.836 78.9982 421.933 80.5295C418.661 82.2968 414.791 83.1809 410.323 83.1809C405.137 83.1808 400.43 81.9128 396.201 79.3772C392.052 76.8415 388.74 73.2295 386.267 68.5422C383.873 63.7784 382.677 58.2077 382.677 51.8303C382.677 45.4528 383.873 39.9198 386.267 35.2327C388.74 30.4686 392.052 26.8182 396.201 24.2825C400.43 21.7469 405.137 20.4788 410.323 20.4788C414.632 20.4788 418.462 21.4396 421.813 23.3606C424.736 24.969 426.93 26.9866 428.396 29.4133V0.769775H444.912V81.4514ZM413.914 32.927C410.802 32.927 408.169 33.6959 406.015 35.2327C403.861 36.7694 402.225 38.9592 401.108 41.802C400.071 44.5683 399.552 47.9115 399.552 51.8303C399.552 57.7468 400.749 62.3957 403.143 65.7766C405.616 69.0806 409.207 70.7326 413.914 70.7327C416.866 70.7327 419.459 69.9254 421.693 68.3118C423.927 66.6982 425.643 64.4702 426.84 61.6272C428.037 58.7074 428.636 55.4416 428.636 51.8303C428.636 48.2188 428.037 44.9908 426.84 42.1477C425.643 39.2279 423.927 36.9615 421.693 35.3479C419.459 33.7343 416.866 32.927 413.914 32.927Z" fill="#1F3131"/>
<path fill-rule="evenodd" clip-rule="evenodd" d="M587.738 20.4797C593.722 20.4797 599.188 21.8245 604.135 24.5139C609.082 27.1264 612.952 30.8528 615.744 35.6936C618.617 40.4577 620.054 45.8368 620.054 51.8303C620.054 57.8239 618.617 63.2413 615.744 68.0823C612.952 72.8462 609.082 76.5726 604.135 79.262C599.188 81.8745 593.722 83.1809 587.738 83.1809C581.754 83.1809 576.289 81.8745 571.342 79.262C566.395 76.5726 562.485 72.8464 559.612 68.0823C556.82 63.2413 555.424 57.8239 555.424 51.8303C555.424 45.8368 556.82 40.4577 559.612 35.6936C562.485 30.8527 566.395 27.1265 571.342 24.5139C576.289 21.8245 581.754 20.4797 587.738 20.4797ZM587.738 33.1584C584.547 33.1585 581.794 33.8881 579.48 35.3479C577.167 36.731 575.371 38.8447 574.095 41.6877C572.898 44.454 572.299 47.8347 572.299 51.8303C572.299 55.8259 572.898 59.2451 574.095 62.0881C575.371 64.8544 577.167 66.968 579.48 68.428C581.794 69.811 584.547 70.5022 587.738 70.5022C590.93 70.5022 593.682 69.811 595.996 68.428C598.31 66.968 600.066 64.8544 601.263 62.0881C602.539 59.2451 603.178 55.8259 603.178 51.8303C603.178 47.8348 602.539 44.4539 601.263 41.6877C600.066 38.8447 598.31 36.731 595.996 35.3479C593.682 33.8881 590.93 33.1584 587.738 33.1584Z" fill="#1F3131"/>
<path d="M716.476 22.2083H728.804V34.3108H716.476V60.9358C716.476 64.0092 717.075 66.3141 718.271 67.8508C719.548 69.3108 721.623 70.0413 724.495 70.0413C726.011 70.0412 727.846 69.8108 730 69.3499V80.76C728.963 81.1442 727.526 81.4524 725.691 81.6829C723.936 81.9133 722.061 82.0286 720.066 82.0286C716.316 82.0285 712.965 81.4517 710.013 80.2991C707.14 79.1465 704.827 77.2257 703.071 74.5364C701.316 71.7701 700.438 68.1198 700.438 63.5862V34.3108H689.906V22.2083H700.438V12.3723L716.476 4.68872V22.2083Z" fill="#1F3131"/>
<path d="M304.945 81.4524H288.668V22.2083H304.945V81.4524Z" fill="#1F3131"/>
<path d="M525.48 20.4797C529.789 20.4798 533.539 21.3629 536.73 23.1301C540.002 24.8206 542.476 27.2798 544.151 30.5071C545.907 33.6575 546.784 37.3847 546.784 41.6877V81.4524H530.147V43.6467C530.147 40.4195 529.429 37.9219 527.993 36.1545C526.557 34.3875 524.403 33.5042 521.53 33.5042C517.94 33.5042 515.187 34.6954 513.272 37.0774C511.437 39.3826 510.52 42.7249 510.52 47.1047V81.4524H494.003V43.6467C494.003 40.4195 493.285 37.9219 491.849 36.1545C490.412 34.3874 488.258 33.5042 485.386 33.5042C482.992 33.5042 480.958 34.0418 479.282 35.1174C477.686 36.1932 476.449 37.7684 475.571 39.843C474.773 41.8409 474.375 44.2616 474.375 47.1047V81.4524H457.858V22.2083H473.776V29.0989C475.384 26.4391 477.498 24.4104 480.12 23.0149C483.232 21.3246 486.743 20.4797 490.652 20.4797C494.402 20.4798 497.753 21.4398 500.705 23.3606C503.252 25.0181 505.204 27.1345 506.563 29.7073C508.393 26.9569 510.748 24.8026 513.631 23.2454C516.982 21.4012 520.932 20.4797 525.48 20.4797Z" fill="#1F3131"/>
<path d="M663.318 20.4797C667.467 20.4798 671.058 21.3245 674.09 23.0149C677.122 24.7054 679.435 27.1646 681.031 30.3918C682.627 33.6191 683.425 37.4999 683.425 42.0334V81.4524H666.909V43.1858C666.909 40.189 666.23 37.7682 664.874 35.9241C663.518 34.0801 661.204 33.1585 657.933 33.1584C655.858 33.1584 653.863 33.696 651.948 34.7717C650.113 35.8475 648.597 37.5379 647.4 39.843C646.283 42.1482 645.725 45.0298 645.725 48.4875V81.4524H629.208V22.2083H645.246V29.7122C646.747 27.3538 648.86 25.274 651.589 23.4758C654.621 21.478 658.531 20.4797 663.318 20.4797Z" fill="#1F3131"/>
<path fill-rule="evenodd" clip-rule="evenodd" d="M248.654 0.769775C254.718 0.769778 260.184 1.80652 265.051 3.8811C269.998 5.87889 273.868 8.79904 276.66 12.6409C279.533 16.4829 280.969 21.0173 280.969 26.2424C280.969 31.5442 279.533 36.1547 276.66 40.0735C273.868 43.9922 269.998 47.0275 265.051 49.179C260.104 51.2536 254.638 52.2913 248.654 52.2913H236.686V81.4514H219.331V0.769775H248.654ZM236.686 38.4592H247.457C251.766 38.4592 255.437 37.461 258.469 35.4631C261.501 33.3885 263.016 30.3147 263.017 26.2424C263.017 22.0162 261.501 18.9418 258.469 17.0208C255.517 15.0229 251.845 14.0247 247.457 14.0247H236.686V38.4592Z" fill="#1F3131"/>
<path d="M297.943 0.308838C302.405 0.308838 306.022 3.79228 306.022 8.08911C306.022 12.3859 302.405 15.8694 297.943 15.8694H295.55C291.088 15.8693 287.472 12.3858 287.472 8.08911C287.472 3.79236 291.088 0.308965 295.55 0.308838H297.943Z" fill="#1F3131"/>
</svg>