<svg width="122" height="80" viewBox="0 0 122 80" fill="none" xmlns="http://www.w3.org/2000/svg">
<g opacity="0.7">
<path d="M25.5238 18.8016C21.0179 18.8016 18.132 16.3208 17.8029 12.8274H21.1191C21.4988 14.9285 23.0936 16.1689 25.7011 16.1689C28.0553 16.1689 29.6248 15.055 29.6248 13.5362C29.6248 12.2198 28.6629 11.6123 26.3339 11.0806L23.9037 10.5237C20.2331 9.66303 18.3345 8.24541 18.3345 5.61269C18.3345 2.42306 21.3469 0.321945 25.2454 0.321945C29.5995 0.321945 31.9791 2.57494 32.4094 5.13172H29.2451C28.8147 3.79004 27.4478 2.8534 25.1948 2.8534C23.1443 2.8534 21.5748 3.81536 21.5748 5.30892C21.5748 6.52402 22.4355 7.005 24.6632 7.5366L26.8149 8.06821C30.9918 9.05548 32.941 10.4731 32.941 13.1818C32.941 16.4473 29.9033 18.8016 25.5238 18.8016ZM40.9655 18.8016C36.8393 18.8016 34.2572 16.0676 34.2572 11.9667C34.2572 7.91632 37.2443 5.1064 40.763 5.1064C44.6108 5.1064 47.2183 7.89101 47.2689 12.8274H37.3709C37.5228 15.0044 38.991 16.422 41.0162 16.422C42.4844 16.422 43.3198 15.8145 43.7248 15.0297H46.9145C46.231 17.2321 44.1299 18.8016 40.9655 18.8016ZM37.3962 10.5997H44.2564C43.9274 8.7517 42.7629 7.51129 40.839 7.51129C39.067 7.51129 37.6747 8.80233 37.3962 10.5997ZM55.0142 18.8016C51.3182 18.8016 48.5843 16.2195 48.5843 11.9667C48.5843 7.81506 51.3689 5.13172 55.0901 5.13172C58.4569 5.13172 60.5327 7.15688 60.9125 9.56177H57.9253C57.5203 8.3973 56.609 7.61255 55.1407 7.61255C53.2168 7.61255 51.7486 9.13142 51.7486 11.9667C51.7486 14.8272 53.2168 16.2954 55.0901 16.2954C56.6596 16.2954 57.5456 15.4601 57.9253 14.3462H60.9125C60.5581 16.7511 58.4316 18.8016 55.0142 18.8016ZM63.8151 1.66362H66.7769V5.48612H69.3337V7.81506H66.7769V14.169C66.7769 15.5107 67.2073 16.2195 68.473 16.2195C68.8021 16.2195 69.1565 16.1689 69.5869 16.0929V18.2953C69.1565 18.4472 68.3971 18.5484 67.6629 18.5484C65.5618 18.5484 63.8151 17.5612 63.8151 14.7006V7.81506H61.6128V5.48612H63.8151V1.66362ZM71.6951 18.4219V5.48612H74.6822V18.4219H71.6951ZM71.4673 3.91662V0.777607H74.91V3.91662H71.4673ZM83.5605 18.8016C79.7886 18.8016 76.9281 15.941 76.9281 11.9413C76.9281 7.96695 79.7886 5.1064 83.5605 5.1064C87.3324 5.1064 90.1676 7.96695 90.1676 11.9413C90.1676 15.941 87.3324 18.8016 83.5605 18.8016ZM83.5605 16.3461C85.6869 16.3461 87.0792 14.7766 87.0792 11.9413C87.0792 9.13142 85.6869 7.56192 83.5605 7.56192C81.4341 7.56192 80.0165 9.13142 80.0165 11.9413C80.0165 14.7766 81.4341 16.3461 83.5605 16.3461ZM92.4125 18.4219V5.48612H95.349V7.15688C96.0325 6.04304 97.3235 5.1064 99.1968 5.1064C101.804 5.1064 103.5 6.75185 103.5 9.7896V18.4219H100.488V10.0427C100.488 8.65044 99.9056 7.56192 98.3361 7.56192C96.8426 7.56192 95.4249 8.65044 95.4249 11.2072V18.4219H92.4125ZM10.6237 78.4219V49.1582H0.233841V43.994C6.07428 43.994 10.1933 41.0431 11.6073 35.3871H18.0625V78.4219H10.6237ZM40.043 79.344C30.1449 79.344 25.1652 73.6266 24.6119 67.8476H32.727C33.3418 70.3682 35.6165 72.9503 40.043 72.9503C45.2071 72.9503 48.1581 69.3846 48.1581 64.4663C48.1581 59.671 45.453 56.2897 40.7807 56.2897C37.0305 56.2897 34.6943 58.3185 33.4033 60.4702H25.5956L28.6695 35.3871H53.4452V41.7808H34.7558L33.2189 54.2609C34.6943 52.4166 38.0142 50.4493 42.1332 50.4493C50.4943 50.4493 55.9043 55.9208 55.9043 64.7737C55.9043 73.0733 49.7565 79.344 40.043 79.344ZM75.196 79.344C65.298 79.344 60.3183 73.6266 59.765 67.8476H67.8801C68.4949 70.3682 70.7696 72.9503 75.196 72.9503C80.3602 72.9503 83.3112 69.3846 83.3112 64.4663C83.3112 59.671 80.6061 56.2897 75.9338 56.2897C72.1836 56.2897 69.8474 58.3185 68.5564 60.4702H60.7486L63.8226 35.3871H88.5983V41.7808H69.9089L68.372 54.2609C69.8474 52.4166 73.1673 50.4493 77.2863 50.4493C85.6474 50.4493 91.0574 55.9208 91.0574 64.7737C91.0574 73.0733 84.9096 79.344 75.196 79.344ZM97.7461 78.4219L114.345 42.0882H93.5656V35.3871H121.6V42.3956L105.615 78.4219H97.7461Z" fill="#006155"/>
</g>
</svg>
