<svg width="1440" height="556" viewBox="0 0 1440 556" fill="none" xmlns="http://www.w3.org/2000/svg">
<g clip-path="url(#clip0_5489_242)">
<rect width="1440" height="556" fill="#1F3131"/>
<g opacity="0.5">
<mask id="mask0_5489_242" style="mask-type:luminance" maskUnits="userSpaceOnUse" x="-65" y="33" width="1825" height="392">
<mask id="path-1-inside-1_5489_242" fill="white">
<path d="M-64.0579 424.193C-20.4465 166.205 67.512 134.369 125.188 128.099C141.597 126.328 154.38 133.142 175.096 127.718C199.954 121.203 223.095 104.059 248.172 98.6073C278.891 91.9293 303.204 106.376 331.224 109.401C383.94 115.125 436.355 79.064 480.539 59.875C527.421 39.5412 577.874 21.3607 627.454 42.2942C670.63 60.5291 715.74 73.5035 767.583 71.432C797.539 70.2327 822.261 55.8137 851.753 53.3878C889.259 50.3078 921.149 64.5905 956.202 70.5325C1017.42 80.8902 1075.07 44.2567 1138.17 41.4765C1173.28 39.9228 1214.19 37.9876 1248.1 45.2924C1277.43 51.6161 1302.37 69.5785 1331.78 75.139C1363.83 81.2173 1397.3 68.9243 1429.9 76.3383C1463.65 84.0248 1489.43 106.376 1521.38 118.723C1601.87 149.878 1782.17 308.514 1756.72 424.166"/>
</mask>
<path d="M-64.0579 424.193C-20.4465 166.205 67.512 134.369 125.188 128.099C141.597 126.328 154.38 133.142 175.096 127.718C199.954 121.203 223.095 104.059 248.172 98.6073C278.891 91.9293 303.204 106.376 331.224 109.401C383.94 115.125 436.355 79.064 480.539 59.875C527.421 39.5412 577.874 21.3607 627.454 42.2942C670.63 60.5291 715.74 73.5035 767.583 71.432C797.539 70.2327 822.261 55.8137 851.753 53.3878C889.259 50.3078 921.149 64.5905 956.202 70.5325C1017.42 80.8902 1075.07 44.2567 1138.17 41.4765C1173.28 39.9228 1214.19 37.9876 1248.1 45.2924C1277.43 51.6161 1302.37 69.5785 1331.78 75.139C1363.83 81.2173 1397.3 68.9243 1429.9 76.3383C1463.65 84.0248 1489.43 106.376 1521.38 118.723C1601.87 149.878 1782.17 308.514 1756.72 424.166" fill="white"/>
<path d="M125.188 128.099L124.973 126.111L124.972 126.111L125.188 128.099ZM175.096 127.718L175.602 129.653L175.603 129.653L175.096 127.718ZM248.172 98.6073L247.747 96.6529L248.172 98.6073ZM331.224 109.401L331.44 107.413L331.439 107.413L331.224 109.401ZM480.539 59.875L479.743 58.0401L479.742 58.0405L480.539 59.875ZM627.454 42.2942L628.233 40.4517L628.232 40.4516L627.454 42.2942ZM767.583 71.432L767.663 73.4304L767.663 73.4304L767.583 71.432ZM851.753 53.3878L851.589 51.3945L851.589 51.3945L851.753 53.3878ZM956.202 70.5325L955.868 72.5044L955.868 72.5045L956.202 70.5325ZM1138.17 41.4765L1138.26 43.4745L1138.26 43.4745L1138.17 41.4765ZM1248.1 45.2924L1248.52 43.3374L1248.52 43.3373L1248.1 45.2924ZM1331.78 75.139L1332.15 73.174L1332.15 73.1738L1331.78 75.139ZM1429.9 76.3383L1430.35 74.3882L1430.35 74.3881L1429.9 76.3383ZM1521.38 118.723L1522.1 116.858L1522.1 116.858L1521.38 118.723ZM-64.0579 424.193L-62.0858 424.527C-40.3068 295.69 -7.49974 223.641 26.8182 183.043C61.043 142.555 96.91 133.185 125.404 130.088L125.188 128.099L124.972 126.111C95.79 129.283 58.8397 138.966 23.7634 180.46C-11.2197 221.845 -44.1976 294.708 -66.0299 423.86L-64.0579 424.193ZM125.188 128.099L125.403 130.088C133.335 129.231 140.321 130.447 148.323 131.268C156.27 132.083 164.915 132.451 175.602 129.653L175.096 127.718L174.589 125.783C164.561 128.409 156.456 128.081 148.731 127.289C141.059 126.502 133.45 125.196 124.973 126.111L125.188 128.099ZM175.096 127.718L175.603 129.653C188.257 126.336 200.445 120.323 212.419 114.566C224.47 108.773 236.322 103.23 248.597 100.562L248.172 98.6073L247.747 96.6529C234.945 99.436 222.688 105.191 210.686 110.961C198.605 116.769 186.793 122.585 174.589 125.783L175.096 127.718ZM248.172 98.6073L248.597 100.562C263.532 97.3149 276.95 99.1852 290.252 102.312C303.435 105.411 316.84 109.86 331.01 111.39L331.224 109.401L331.439 107.413C317.588 105.917 304.827 101.629 291.168 98.4185C277.629 95.2356 263.531 93.2217 247.747 96.6529L248.172 98.6073ZM331.224 109.401L331.008 111.389C357.873 114.306 384.535 106.567 409.862 95.8216C422.536 90.4445 434.929 84.2901 446.877 78.3017C458.847 72.3026 470.351 66.4798 481.335 61.7094L480.539 59.875L479.742 58.0405C468.634 62.8646 457.017 68.7454 445.085 74.7257C433.132 80.7168 420.842 86.8179 408.3 92.1393C383.194 102.791 357.291 110.22 331.44 107.413L331.224 109.401ZM480.539 59.875L481.334 61.7098C528.271 41.3524 577.968 23.5716 626.676 44.1367L627.454 42.2942L628.232 40.4516C577.779 19.1498 526.57 37.73 479.743 58.0401L480.539 59.875ZM627.454 42.2942L626.676 44.1366C670.002 62.4351 715.418 75.518 767.663 73.4304L767.583 71.432L767.503 69.4336C716.062 71.4891 671.257 58.6232 628.233 40.4517L627.454 42.2942ZM767.583 71.432L767.663 73.4304C782.922 72.8195 796.813 68.8412 810.413 64.7865C824.075 60.7136 837.418 56.5736 851.917 55.3811L851.753 53.3878L851.589 51.3945C836.595 52.6278 822.832 56.9103 809.27 60.9532C795.648 65.0143 782.2 68.8452 767.503 69.4336L767.583 71.432ZM851.753 53.3878L851.917 55.3811C870.369 53.8657 887.486 56.6158 904.448 60.5258C921.304 64.411 938.28 69.5229 955.868 72.5044L956.202 70.5325L956.536 68.5606C939.072 65.6001 922.576 60.5995 905.347 56.628C888.224 52.681 870.642 49.8298 851.589 51.3945L851.753 53.3878ZM956.202 70.5325L955.868 72.5045C986.948 77.7629 1017.04 71.0762 1047.01 62.86C1077.1 54.6111 1107 44.852 1138.26 43.4745L1138.17 41.4765L1138.08 39.4784C1106.25 40.8811 1075.77 50.8289 1045.95 59.0024C1016.02 67.2086 986.675 73.6598 956.536 68.5605L956.202 70.5325ZM1138.17 41.4765L1138.26 43.4745C1173.44 41.9176 1214.07 40.008 1247.68 47.2476L1248.1 45.2924L1248.52 43.3373C1214.31 35.9671 1173.11 37.928 1138.08 39.4784L1138.17 41.4765ZM1248.1 45.2924L1247.68 47.2475C1262.11 50.3587 1275.48 56.3379 1289.1 62.3324C1302.66 68.2983 1316.44 74.2752 1331.41 77.1041L1331.78 75.139L1332.15 73.1738C1317.7 70.4422 1304.31 64.6578 1290.71 58.6714C1277.18 52.7137 1263.42 46.5499 1248.52 43.3374L1248.1 45.2924ZM1331.78 75.139L1331.4 77.1039C1347.75 80.2039 1364.43 78.6114 1380.8 77.2307C1397.29 75.8413 1413.5 74.66 1429.46 78.2885L1429.9 76.3383L1430.35 74.3881C1413.7 70.6026 1396.89 71.8608 1380.47 73.2448C1363.95 74.6375 1347.86 76.1523 1332.15 73.174L1331.78 75.139ZM1429.9 76.3383L1429.46 78.2883C1446.04 82.0653 1460.72 89.4555 1475.35 97.5337C1489.92 105.577 1504.52 114.351 1520.66 120.589L1521.38 118.723L1522.1 116.858C1506.29 110.747 1492.03 102.173 1477.28 94.0319C1462.6 85.9262 1447.51 78.2977 1430.35 74.3882L1429.9 76.3383ZM1521.38 118.723L1520.66 120.588C1560.51 136.013 1625.46 183.222 1677.29 241.092C1703.18 270.003 1725.71 301.483 1740.19 332.868C1754.67 364.268 1761 395.404 1754.76 423.736L1756.72 424.166L1758.67 424.596C1765.16 395.102 1758.5 363.039 1743.82 331.194C1729.13 299.334 1706.33 267.523 1680.27 238.424C1628.19 180.275 1562.74 132.588 1522.1 116.858L1521.38 118.723Z" fill="white" mask="url(#path-1-inside-1_5489_242)"/>
</mask>
<g mask="url(#mask0_5489_242)">
<path d="M-456.584 -120.513L-1301.15 568.601M-426.356 -120.513L-1270.92 568.601M-396.129 -120.513L-1240.69 568.601M-365.901 -120.513L-1210.46 568.601M-335.671 -120.513L-1180.23 568.601M-305.444 -120.513L-1150 568.601M-275.216 -120.513L-1119.78 568.601M-244.988 -120.513L-1089.55 568.601M-214.76 -120.513L-1059.32 568.601M-184.533 -120.513L-1029.09 568.601M-154.302 -120.513L-998.863 568.601M-124.075 -120.513L-968.636 568.601M-93.8471 -120.513L-938.408 568.601M-63.6191 -120.513L-908.18 568.601M-33.3915 -120.513L-877.952 568.601M-3.1638 -120.513L-847.725 568.601M27.0665 -120.513L-817.494 568.601M57.2942 -120.513L-787.266 568.601M87.5216 -120.513L-757.039 568.601M117.75 -120.513L-726.811 568.601M147.978 -120.513L-696.583 568.601M178.205 -120.513L-666.356 568.601M208.435 -120.513L-636.125 568.601M238.663 -120.513L-605.898 568.601M268.89 -120.513L-575.671 568.601M299.118 -120.513L-545.442 568.601M329.346 -120.513L-515.214 568.601M359.574 -120.513L-484.987 568.601M389.801 -120.513L-454.759 568.601M420.032 -120.513L-424.529 568.601M450.259 -120.513L-394.302 568.601M480.487 -120.513L-364.074 568.601M510.715 -120.513L-333.846 568.601M540.942 -120.513L-303.618 568.601M571.17 -120.513L-273.391 568.601M601.4 -120.513L-243.16 568.601M631.628 -120.513L-212.933 568.601M661.856 -120.513L-182.705 568.601M692.084 -120.513L-152.477 568.601M722.311 -120.513L-122.25 568.601M752.541 -120.513L-91.9926 568.601M782.768 -120.513L-61.7654 568.601M812.996 -120.513L-31.5374 568.601M843.224 -120.513L-1.30926 568.601M873.451 -120.513L28.9181 568.601M903.679 -120.513L59.1458 568.601M933.909 -120.513L89.3761 568.601M964.137 -120.513L119.604 568.601M994.365 -120.513L149.831 568.601M1024.59 -120.513L180.059 568.601M1054.82 -120.513L210.287 568.601M1085.05 -120.513L240.514 568.601M1115.28 -120.513L270.745 568.601M1145.51 -120.513L300.973 568.601M1175.73 -120.513L331.2 568.601M1205.96 -120.513L361.428 568.601M1236.19 -120.513L391.656 568.601M1266.42 -120.513L421.883 568.601M1296.64 -120.513L452.111 568.601M1326.87 -120.513L482.341 568.601M1357.1 -120.513L512.568 568.601M1387.33 -120.513L542.797 568.601M1417.59 -120.513L573.025 568.601M1447.81 -120.513L603.252 568.601M1478.04 -120.513L633.482 568.601M1508.27 -120.513L663.71 568.601M1538.5 -120.513L693.937 568.601M1568.73 -120.513L724.165 568.601M1598.95 -120.513L754.393 568.601M1629.18 -120.513L784.621 568.601M1659.41 -120.513L814.848 568.601M1689.64 -120.513L845.079 568.601M1719.87 -120.513L875.306 568.601M1750.09 -120.513L905.534 568.601M1780.32 -120.513L935.762 568.601M1810.55 -120.513L965.989 568.601M1840.78 -120.513L996.217 568.601M1871.01 -120.513L1026.45 568.601M1901.24 -120.513L1056.68 568.601M1931.46 -120.513L1086.9 568.601M1961.69 -120.513L1117.13 568.601M1991.92 -120.513L1147.36 568.601M2022.15 -120.513L1177.59 568.601M2052.37 -120.513L1207.81 568.601M2082.6 -120.513L1238.04 568.601M2112.83 -120.513L1268.27 568.601M2143.06 -120.513L1298.5 568.601M2173.29 -120.513L1328.73 568.601M2203.52 -120.513L1358.95 568.601M2233.75 -120.513L1389.18 568.601M2263.97 -120.513L1419.41 568.601M2294.2 -120.513L1449.64 568.601M1832.11 750.406H-639.18V-165.896H1832.11V750.406Z" stroke="url(#paint0_linear_5489_242)" stroke-width="2" stroke-miterlimit="10"/>
</g>
</g>
<mask id="mask1_5489_242" style="mask-type:luminance" maskUnits="userSpaceOnUse" x="-1125" y="192" width="2113" height="435">
<mask id="path-4-inside-2_5489_242" fill="white">
<path d="M987.652 626.548C966.882 622.214 727.919 367.851 712.437 361.064C695.374 353.568 666.236 334.87 639.443 332.771C619.545 331.217 618.4 338.25 596.513 340.512C568.22 343.429 576.097 334.788 553.692 332.335C535.784 330.372 523.409 345.119 499.587 343.865C483.832 343.02 471.975 334.188 462.435 330.89C438.749 322.713 423.867 314.809 406.34 303.851C382.954 289.242 360.739 273.623 328.739 261.358C317.51 257.051 303.745 253.508 294.068 248.738C295.104 257.542 288.208 267.872 278.968 275.967C262.505 263.702 231.541 243.777 194.198 241.623C164.379 239.906 154.921 245.657 129.136 236.308C97.5447 224.86 82.3899 205.889 57.8857 192.043C33.2999 204.309 21.3066 225.078 12.1483 240.124C7.95068 247.02 8.85022 256.37 -9.27576 260.185C-30.8633 264.765 -68.151 257.678 -88.4847 262.938C-132.914 274.414 -121.684 304.451 -157.936 318.052C-172.082 323.367 -191.462 322.195 -205.172 326.202C-216.375 329.5 -215.939 333.889 -221.717 338.931C-241.942 356.594 -321.342 359.865 -308.477 376.873C-294.63 395.19 -337.342 405.193 -390.357 398.761C-410.827 396.28 -428.026 392.219 -444.708 393.963C-463.215 395.898 -470.302 404.375 -494.67 400.805C-517.484 397.452 -537.436 377.473 -556.244 370.876C-573.116 364.962 -591.596 359.538 -614.465 357.875C-630.029 379.544 -665.19 385.922 -717.851 393.146C-732.106 395.108 -752.958 397.834 -762.662 402.495C-769.476 405.766 -769.449 411.353 -776.944 414.869C-787.384 419.776 -802.675 421.547 -816.467 424.737C-836.038 429.288 -840.344 431.96 -850.375 439.128C-874.361 456.246 -903.444 461.615 -947.301 471.428C-979.9 478.733 -1109.92 613.546 -1124.12 626.575"/>
</mask>
<path d="M987.652 626.548C966.882 622.214 727.919 367.851 712.437 361.064C695.374 353.568 666.236 334.87 639.443 332.771C619.545 331.217 618.4 338.25 596.513 340.512C568.22 343.429 576.097 334.788 553.692 332.335C535.784 330.372 523.409 345.119 499.587 343.865C483.832 343.02 471.975 334.188 462.435 330.89C438.749 322.713 423.867 314.809 406.34 303.851C382.954 289.242 360.739 273.623 328.739 261.358C317.51 257.051 303.745 253.508 294.068 248.738C295.104 257.542 288.208 267.872 278.968 275.967C262.505 263.702 231.541 243.777 194.198 241.623C164.379 239.906 154.921 245.657 129.136 236.308C97.5447 224.86 82.3899 205.889 57.8857 192.043C33.2999 204.309 21.3066 225.078 12.1483 240.124C7.95068 247.02 8.85022 256.37 -9.27576 260.185C-30.8633 264.765 -68.151 257.678 -88.4847 262.938C-132.914 274.414 -121.684 304.451 -157.936 318.052C-172.082 323.367 -191.462 322.195 -205.172 326.202C-216.375 329.5 -215.939 333.889 -221.717 338.931C-241.942 356.594 -321.342 359.865 -308.477 376.873C-294.63 395.19 -337.342 405.193 -390.357 398.761C-410.827 396.28 -428.026 392.219 -444.708 393.963C-463.215 395.898 -470.302 404.375 -494.67 400.805C-517.484 397.452 -537.436 377.473 -556.244 370.876C-573.116 364.962 -591.596 359.538 -614.465 357.875C-630.029 379.544 -665.19 385.922 -717.851 393.146C-732.106 395.108 -752.958 397.834 -762.662 402.495C-769.476 405.766 -769.449 411.353 -776.944 414.869C-787.384 419.776 -802.675 421.547 -816.467 424.737C-836.038 429.288 -840.344 431.96 -850.375 439.128C-874.361 456.246 -903.444 461.615 -947.301 471.428C-979.9 478.733 -1109.92 613.546 -1124.12 626.575" fill="white"/>
<path d="M712.437 361.064L711.633 362.895L711.634 362.896L712.437 361.064ZM639.443 332.771L639.599 330.777L639.598 330.777L639.443 332.771ZM596.513 340.512L596.718 342.502L596.718 342.502L596.513 340.512ZM553.692 332.335L553.474 334.323L553.474 334.323L553.692 332.335ZM499.587 343.865L499.48 345.862L499.482 345.862L499.587 343.865ZM462.435 330.89L463.089 329L463.088 329L462.435 330.89ZM406.34 303.851L407.401 302.156L407.4 302.155L406.34 303.851ZM328.739 261.358L328.023 263.225L328.024 263.225L328.739 261.358ZM294.068 248.738L294.953 246.944L291.652 245.317L292.082 248.971L294.068 248.738ZM278.968 275.967L277.773 277.571L279.07 278.537L280.286 277.472L278.968 275.967ZM194.198 241.623L194.313 239.627L194.313 239.627L194.198 241.623ZM129.136 236.308L129.817 234.428L129.817 234.428L129.136 236.308ZM57.8857 192.043L58.8698 190.302L57.9442 189.779L56.9929 190.253L57.8857 192.043ZM12.1483 240.124L13.8567 241.164L12.1483 240.124ZM-9.27576 260.185L-9.68774 258.228L-9.69067 258.229L-9.27576 260.185ZM-88.4847 262.938L-87.9846 264.875L-87.9839 264.875L-88.4847 262.938ZM-157.936 318.052L-158.638 316.18L-158.639 316.18L-157.936 318.052ZM-205.172 326.202L-205.733 324.282L-205.737 324.284L-205.172 326.202ZM-221.717 338.931L-223.032 337.424L-223.033 337.425L-221.717 338.931ZM-308.477 376.873L-306.881 375.667L-306.882 375.667L-308.477 376.873ZM-390.357 398.761L-390.116 396.775L-390.116 396.775L-390.357 398.761ZM-444.708 393.963L-444.5 395.952H-444.5L-444.708 393.963ZM-494.67 400.805L-494.961 402.784L-494.96 402.784L-494.67 400.805ZM-556.244 370.876L-555.582 368.989L-555.582 368.989L-556.244 370.876ZM-614.465 357.875L-614.32 355.88L-615.436 355.799L-616.089 356.708L-614.465 357.875ZM-717.851 393.146L-718.123 391.164L-718.124 391.164L-717.851 393.146ZM-762.662 402.495L-761.796 404.298L-761.796 404.298L-762.662 402.495ZM-776.944 414.869L-777.794 413.059L-777.795 413.059L-776.944 414.869ZM-816.467 424.737L-816.918 422.788L-816.92 422.789L-816.467 424.737ZM-850.375 439.128L-849.213 440.756L-849.212 440.755L-850.375 439.128ZM-947.301 471.428L-947.738 469.476L-947.738 469.476L-947.301 471.428ZM987.652 626.548L988.061 624.59C987.728 624.521 987.087 624.27 986.073 623.689C985.097 623.129 983.899 622.337 982.484 621.309C979.655 619.254 976.063 616.337 971.805 612.661C963.294 605.312 952.225 595.024 939.45 582.75C913.905 558.208 881.62 525.811 849.484 493.319C817.356 460.838 785.374 428.259 760.463 403.384C748.009 390.947 737.307 380.422 729.23 372.789C725.193 368.974 721.795 365.866 719.154 363.599C717.834 362.466 716.686 361.528 715.73 360.811C714.812 360.122 713.952 359.544 713.24 359.232L712.437 361.064L711.634 362.896C711.89 363.008 712.434 363.338 713.33 364.01C714.188 364.654 715.262 365.53 716.548 366.634C719.119 368.84 722.463 371.898 726.482 375.696C734.518 383.289 745.187 393.783 757.637 406.215C782.536 431.078 814.495 463.633 846.64 496.132C878.775 528.622 911.093 561.053 936.679 585.634C949.469 597.923 960.598 608.27 969.191 615.688C973.485 619.395 977.172 622.395 980.133 624.545C981.613 625.62 982.938 626.502 984.084 627.159C985.195 627.796 986.278 628.304 987.243 628.506L987.652 626.548ZM712.437 361.064L713.242 359.233C709.042 357.388 704.081 354.845 698.512 351.996C692.966 349.158 686.851 346.034 680.425 343.077C667.6 337.176 653.357 331.855 639.599 330.777L639.443 332.771L639.286 334.765C652.323 335.786 666.045 340.863 678.753 346.711C685.093 349.628 691.137 352.715 696.69 355.557C702.221 358.387 707.301 360.992 711.633 362.895L712.437 361.064ZM639.443 332.771L639.598 330.777C629.323 329.975 623.79 331.403 618.088 333.314C612.552 335.17 606.997 337.418 596.307 338.523L596.513 340.512L596.718 342.502C607.916 341.344 613.878 338.944 619.359 337.107C624.677 335.325 629.664 334.014 639.287 334.765L639.443 332.771ZM596.513 340.512L596.308 338.523C582.375 339.959 577.68 338.521 573.762 336.635C571.793 335.687 569.516 334.335 566.581 333.194C563.541 332.012 559.658 330.976 553.91 330.347L553.692 332.335L553.474 334.323C558.928 334.92 562.463 335.885 565.132 336.922C567.905 338 569.629 339.085 572.027 340.239C576.845 342.558 582.358 343.982 596.718 342.502L596.513 340.512ZM553.692 332.335L553.91 330.347C544.374 329.302 536.322 332.733 528.122 335.974C519.844 339.246 511.141 342.47 499.692 341.868L499.587 343.865L499.482 345.862C511.855 346.513 521.251 342.991 529.593 339.694C538.013 336.366 545.103 333.406 553.474 334.323L553.692 332.335ZM499.587 343.865L499.694 341.868C492.164 341.464 485.517 339.15 479.494 336.47C476.469 335.124 473.653 333.711 470.92 332.39C468.218 331.083 465.595 329.867 463.089 329L462.435 330.89L461.782 332.781C464.045 333.563 466.482 334.687 469.179 335.991C471.844 337.279 474.766 338.745 477.868 340.125C484.096 342.896 491.255 345.421 499.48 345.862L499.587 343.865ZM462.435 330.89L463.088 329C439.573 320.882 424.827 313.051 407.401 302.156L406.34 303.851L405.28 305.547C422.906 316.567 437.925 324.545 461.783 332.781L462.435 330.89ZM406.34 303.851L407.4 302.155C384.102 287.601 361.683 271.843 329.455 259.49L328.739 261.358L328.024 263.225C359.796 275.404 381.805 290.882 405.281 305.548L406.34 303.851ZM328.739 261.358L329.456 259.49C323.786 257.316 317.459 255.328 311.454 253.324C305.4 251.304 299.656 249.262 294.953 246.944L294.068 248.738L293.184 250.531C298.157 252.983 304.134 255.098 310.188 257.118C316.292 259.155 322.463 261.093 328.023 263.225L328.739 261.358ZM294.068 248.738L292.082 248.971C292.53 252.781 291.274 257.119 288.646 261.608C286.03 266.074 282.151 270.52 277.65 274.463L278.968 275.967L280.286 277.472C285.025 273.319 289.214 268.552 292.097 263.629C294.968 258.727 296.642 253.498 296.055 248.504L294.068 248.738ZM278.968 275.967L280.163 274.364C263.615 262.035 232.258 241.815 194.313 239.627L194.198 241.623L194.083 243.62C230.823 245.739 261.394 265.368 277.773 277.571L278.968 275.967ZM194.198 241.623L194.313 239.627C179.339 238.764 169.237 239.775 160.142 239.828C151.032 239.881 142.46 239.012 129.817 234.428L129.136 236.308L128.454 238.189C141.596 242.954 150.646 243.884 160.166 243.828C169.702 243.772 179.238 242.765 194.083 243.62L194.198 241.623ZM129.136 236.308L129.817 234.428C114.275 228.796 102.764 221.314 92.0343 213.461C81.3507 205.642 71.2582 197.302 58.8698 190.302L57.8857 192.043L56.9019 193.784C69.0175 200.63 78.7544 208.699 89.672 216.689C100.544 224.646 112.405 232.373 128.454 238.189L129.136 236.308ZM57.8857 192.043L56.9929 190.253C31.8213 202.811 19.5656 224.092 10.4399 239.084L12.1483 240.124L13.8567 241.164C23.0479 226.065 34.7784 205.806 58.7786 193.832L57.8857 192.043ZM12.1483 240.124L10.4399 239.084C9.29028 240.973 8.49292 243.027 7.73108 244.866C6.94666 246.761 6.16785 248.52 5.01929 250.165C2.81201 253.328 -0.994507 256.398 -9.68774 258.228L-9.27576 260.185L-8.86365 262.143C0.56897 260.157 5.37573 256.644 8.29956 252.455C9.71655 250.424 10.6328 248.314 11.4268 246.397C12.2433 244.425 12.9075 242.724 13.8567 241.164L12.1483 240.124ZM-9.27576 260.185L-9.69067 258.229C-20.1846 260.455 -34.6078 259.854 -49.2761 259.308C-63.7324 258.77 -78.4729 258.282 -88.9857 261.002L-88.4847 262.938L-87.9839 264.875C-78.1628 262.334 -64.0927 262.759 -49.4248 263.305C-34.9689 263.843 -19.9545 264.495 -8.86072 262.142L-9.27576 260.185ZM-88.4847 262.938L-88.985 261.002C-100.329 263.932 -108.225 268.077 -114.237 272.921C-120.235 277.754 -124.263 283.209 -127.928 288.569C-135.238 299.26 -141.179 309.629 -158.638 316.18L-157.936 318.052L-157.233 319.925C-138.441 312.874 -131.871 301.424 -124.626 290.827C-121.013 285.543 -117.252 280.488 -111.727 276.036C-106.217 271.596 -98.855 267.683 -87.9846 264.875L-88.4847 262.938ZM-157.936 318.052L-158.639 316.18C-165.438 318.735 -173.573 319.754 -181.926 320.629C-190.16 321.491 -198.66 322.215 -205.733 324.282L-205.172 326.202L-204.611 328.122C-197.974 326.182 -189.929 325.489 -181.509 324.607C-173.209 323.738 -164.58 322.685 -157.232 319.925L-157.936 318.052ZM-205.172 326.202L-205.737 324.284C-211.624 326.017 -214.642 328.105 -216.935 330.542C-218.011 331.685 -218.942 332.928 -219.826 334.022C-220.738 335.151 -221.711 336.271 -223.032 337.424L-221.717 338.931L-220.402 340.438C-218.834 339.07 -217.696 337.751 -216.714 336.536C-215.704 335.285 -214.96 334.28 -214.022 333.283C-212.289 331.441 -209.924 329.686 -204.608 328.121L-205.172 326.202ZM-221.717 338.931L-223.033 337.425C-227.732 341.529 -236.103 344.947 -246.195 348.005C-256.217 351.042 -267.545 353.616 -277.987 356.206C-288.325 358.77 -297.902 361.373 -304.086 364.464C-307.137 365.989 -309.731 367.805 -311.018 370.108C-311.694 371.317 -312.008 372.658 -311.829 374.086C-311.654 375.487 -311.025 376.819 -310.072 378.08L-308.477 376.873L-306.882 375.667C-307.537 374.801 -307.795 374.115 -307.86 373.59C-307.922 373.093 -307.83 372.603 -307.526 372.06C-306.855 370.859 -305.198 369.491 -302.298 368.042C-296.582 365.185 -287.457 362.676 -277.024 360.089C-266.696 357.527 -255.187 354.909 -245.035 351.833C-234.953 348.779 -225.815 345.165 -220.402 340.438L-221.717 338.931ZM-308.477 376.873L-310.072 378.079C-308.509 380.147 -307.884 381.913 -307.844 383.39C-307.806 384.831 -308.319 386.235 -309.501 387.634C-311.967 390.55 -317.144 393.19 -324.84 395.16C-340.087 399.063 -363.747 399.975 -390.116 396.775L-390.357 398.761L-390.598 400.746C-363.952 403.979 -339.749 403.105 -323.848 399.035C-315.97 397.019 -309.752 394.126 -306.446 390.216C-304.743 388.202 -303.777 385.869 -303.846 383.283C-303.914 380.731 -304.983 378.178 -306.881 375.667L-308.477 376.873ZM-390.357 398.761L-390.116 396.775C-395.205 396.158 -400.095 395.443 -404.847 394.741C-409.591 394.04 -414.207 393.35 -418.707 392.793C-427.707 391.678 -436.352 391.079 -444.916 391.974L-444.708 393.963L-444.5 395.952C-436.382 395.103 -428.086 395.662 -419.199 396.762C-414.755 397.313 -410.191 397.994 -405.432 398.698C-400.681 399.4 -395.744 400.122 -390.598 400.746L-390.357 398.761ZM-444.708 393.963L-444.916 391.974C-454.378 392.964 -461.125 395.669 -468.01 397.517C-474.919 399.372 -482.505 400.566 -494.38 398.826L-494.67 400.805L-494.96 402.784C-482.467 404.614 -474.326 403.355 -466.972 401.38C-459.595 399.399 -453.544 396.898 -444.5 395.952L-444.708 393.963ZM-494.67 400.805L-494.379 398.826C-505.346 397.214 -515.733 391.584 -525.915 385.351C-535.949 379.209 -545.915 372.38 -555.582 368.989L-556.244 370.876L-556.905 372.764C-547.765 375.97 -538.351 382.428 -528.003 388.763C-517.804 395.007 -506.808 401.043 -494.961 402.784L-494.67 400.805ZM-556.244 370.876L-555.582 368.989C-572.533 363.047 -591.202 357.561 -614.32 355.88L-614.465 357.875L-614.61 359.87C-591.991 361.514 -573.698 366.877 -556.905 372.764L-556.244 370.876ZM-614.465 357.875L-616.089 356.708C-623.495 367.019 -635.677 373.858 -652.822 379.012C-669.968 384.166 -691.771 387.55 -718.123 391.164L-717.851 393.146L-717.579 395.127C-691.27 391.518 -669.162 388.101 -651.671 382.843C-634.18 377.585 -620.999 370.401 -612.84 359.042L-614.465 357.875ZM-717.851 393.146L-718.124 391.164C-725.235 392.143 -734.063 393.322 -742.325 394.841C-750.532 396.35 -758.41 398.234 -763.527 400.692L-762.662 402.495L-761.796 404.298C-757.21 402.095 -749.81 400.285 -741.601 398.775C-733.448 397.276 -724.722 396.11 -717.578 395.127L-717.851 393.146ZM-762.662 402.495L-763.527 400.692C-767.394 402.548 -769.34 405.111 -771.114 407.347C-772.855 409.54 -774.484 411.506 -777.794 413.059L-776.944 414.869L-776.095 416.68C-771.909 414.717 -769.804 412.13 -767.981 409.833C-766.191 407.578 -764.744 405.713 -761.796 404.298L-762.662 402.495ZM-776.944 414.869L-777.795 413.059C-782.793 415.408 -789.034 417.04 -795.864 418.491C-802.57 419.914 -810.036 421.197 -816.918 422.788L-816.467 424.737L-816.016 426.685C-809.106 425.087 -802.031 423.889 -795.033 422.403C-788.159 420.944 -781.535 419.237 -776.094 416.679L-776.944 414.869ZM-816.467 424.737L-816.92 422.789C-826.738 425.072 -832.858 426.912 -837.814 429.125C-842.791 431.347 -846.518 433.914 -851.538 437.501L-850.375 439.128L-849.212 440.755C-844.201 437.174 -840.759 434.821 -836.183 432.777C-831.585 430.724 -825.767 428.953 -816.014 426.685L-816.467 424.737ZM-850.375 439.128L-851.537 437.5C-875.111 454.324 -903.689 459.621 -947.738 469.476L-947.301 471.428L-946.864 473.38C-903.199 463.61 -873.611 458.168 -849.213 440.756L-850.375 439.128ZM-947.301 471.428L-947.738 469.476C-952.195 470.475 -958.052 473.563 -964.775 477.987C-971.558 482.45 -979.425 488.414 -987.949 495.37C-1005 509.285 -1024.79 527.267 -1043.98 545.401C-1063.18 563.541 -1081.79 581.855 -1096.49 596.445C-1111.23 611.069 -1121.96 621.88 -1125.47 625.102L-1124.12 626.575L-1122.77 628.049C-1119.18 624.756 -1108.33 613.829 -1093.67 599.284C-1078.98 584.703 -1060.39 566.415 -1041.24 548.309C-1022.07 530.198 -1002.36 512.293 -985.42 498.469C-976.949 491.555 -969.199 485.686 -962.576 481.328C-955.894 476.93 -950.557 474.207 -946.864 473.379L-947.301 471.428Z" fill="white" mask="url(#path-4-inside-2_5489_242)"/>
</mask>
<g mask="url(#mask1_5489_242)">
<path d="M-1069.27 132.487L-1913.83 821.6M-1039.04 132.487L-1883.61 821.6M-1008.82 132.487L-1853.38 821.6M-978.59 132.487L-1823.15 821.6M-948.36 132.487L-1792.92 821.6M-918.132 132.487L-1762.69 821.6M-887.904 132.487L-1732.47 821.6M-857.676 132.487L-1702.24 821.6M-827.449 132.487L-1672.01 821.6M-797.221 132.487L-1641.78 821.6M-766.991 132.487L-1611.55 821.6M-736.764 132.487L-1581.32 821.6M-706.536 132.487L-1551.1 821.6M-676.308 132.487L-1520.87 821.6M-646.08 132.487L-1490.64 821.6M-615.852 132.487L-1460.41 821.6M-585.622 132.487L-1430.18 821.6M-555.394 132.487L-1399.96 821.6M-525.167 132.487L-1369.7 821.6M-494.94 132.487L-1339.47 821.6M-464.712 132.487L-1309.25 821.6M-434.482 132.487L-1279.02 821.6M-404.255 132.487L-1248.79 821.6M-374.027 132.487L-1218.56 821.6M-343.798 132.487L-1188.33 821.6M-313.571 132.487L-1158.1 821.6M-283.343 132.487L-1127.88 821.6M-253.113 132.487L-1097.65 821.6M-222.885 132.487L-1067.42 821.6M-192.658 132.487L-1037.19 821.6M-162.43 132.487L-1006.96 821.6M-132.202 132.487L-976.735 821.6M-101.975 132.487L-946.508 821.6M-71.7441 132.487L-916.278 821.6M-41.5167 132.487L-886.05 821.6M-11.2893 132.487L-855.823 821.6M18.9387 132.487L-825.595 821.6M49.1669 132.487L-795.367 821.6M79.394 132.487L-765.139 821.6M109.649 132.487L-734.912 821.6M139.879 132.487L-704.681 821.6M170.106 132.487L-674.454 821.6M200.335 132.487L-644.226 821.6M230.563 132.487L-613.998 821.6M260.79 132.487L-583.771 821.6M291.018 132.487L-553.543 821.6M321.248 132.487L-523.313 821.6M351.476 132.487L-493.085 821.6M381.703 132.487L-462.857 821.6M411.931 132.487L-432.629 821.6M442.159 132.487L-402.402 821.6M472.387 132.487L-372.174 821.6M502.617 132.487L-341.944 821.6M532.845 132.487L-311.716 821.6M563.072 132.487L-281.489 821.6M593.3 132.487L-251.261 821.6M623.528 132.487L-221.033 821.6M653.755 132.487L-190.805 821.6M683.986 132.487L-160.575 821.6M714.213 132.487L-130.347 821.6M744.44 132.487L-100.12 821.6M774.669 132.487L-69.892 821.6M804.897 132.487L-39.6641 821.6M835.124 132.487L-9.43668 821.6M865.351 132.487L20.791 821.6M895.582 132.487L51.0213 821.6M925.809 132.487L81.2486 821.6M956.037 132.487L111.476 821.6M986.265 132.487L141.705 821.6M1016.49 132.487L171.932 821.6M1046.72 132.487L202.16 821.6M1076.95 132.487L232.39 821.6M1107.18 132.487L262.618 821.6M1137.41 132.487L292.845 821.6M1167.63 132.487L323.073 821.6M1197.86 132.487L353.301 821.6M1228.09 132.487L383.528 821.6M1258.32 132.487L413.759 821.6M1288.55 132.487L443.986 821.6M1318.77 132.487L474.214 821.6M1349 132.487L504.442 821.6M1379.23 132.487L534.696 821.6M1409.46 132.487L564.926 821.6M1439.69 132.487L595.154 821.6M1469.91 132.487L625.382 821.6M1500.14 132.487L655.61 821.6M1530.37 132.487L685.838 821.6M1560.6 132.487L716.065 821.6M1590.83 132.487L746.295 821.6M1621.06 132.487L776.523 821.6M1651.28 132.487L806.75 821.6M1681.51 132.487L836.978 821.6" stroke="url(#paint1_linear_5489_242)" stroke-width="2" stroke-miterlimit="10"/>
</g>
<mask id="mask2_5489_242" style="mask-type:luminance" maskUnits="userSpaceOnUse" x="24" y="192" width="2113" height="435">
<mask id="path-7-inside-3_5489_242" fill="white">
<path d="M2136.65 626.548C2115.88 622.214 1876.92 367.851 1861.44 361.064C1844.37 353.568 1815.24 334.87 1788.44 332.771C1768.55 331.217 1767.4 338.25 1745.51 340.512C1717.22 343.429 1725.1 334.788 1702.69 332.335C1684.78 330.372 1672.41 345.119 1648.59 343.865C1632.83 343.02 1620.98 334.188 1611.44 330.89C1587.75 322.713 1572.87 314.809 1555.34 303.851C1531.95 289.242 1509.74 273.623 1477.74 261.358C1466.51 257.051 1452.74 253.508 1443.07 248.738C1444.1 257.542 1437.21 267.872 1427.97 275.967C1411.5 263.702 1380.54 243.777 1343.2 241.623C1313.38 239.906 1303.92 245.657 1278.14 236.308C1246.54 224.86 1231.39 205.889 1206.89 192.043C1182.3 204.309 1170.31 225.078 1161.15 240.124C1156.95 247.02 1157.85 256.37 1139.72 260.185C1118.14 264.765 1080.85 257.678 1060.52 262.938C1016.09 274.414 1027.32 304.451 991.064 318.052C976.918 323.367 957.538 322.195 943.828 326.202C932.625 329.5 933.061 333.889 927.283 338.931C907.058 356.594 827.658 359.865 840.523 376.873C854.37 395.19 811.658 405.193 758.643 398.761C738.173 396.28 720.974 392.219 704.292 393.963C685.785 395.898 678.698 404.375 654.33 400.805C631.516 397.452 611.564 377.473 592.756 370.876C575.884 364.962 557.404 359.538 534.535 357.875C518.971 379.544 483.81 385.922 431.149 393.146C416.894 395.108 396.042 397.834 386.338 402.495C379.524 405.766 379.551 411.353 372.056 414.869C361.616 419.776 346.325 421.547 332.533 424.737C312.962 429.288 308.656 431.96 298.625 439.128C274.639 456.246 245.556 461.615 201.699 471.428C169.1 478.733 39.0833 613.546 24.8823 626.575"/>
</mask>
<path d="M2136.65 626.548C2115.88 622.214 1876.92 367.851 1861.44 361.064C1844.37 353.568 1815.24 334.87 1788.44 332.771C1768.55 331.217 1767.4 338.25 1745.51 340.512C1717.22 343.429 1725.1 334.788 1702.69 332.335C1684.78 330.372 1672.41 345.119 1648.59 343.865C1632.83 343.02 1620.98 334.188 1611.44 330.89C1587.75 322.713 1572.87 314.809 1555.34 303.851C1531.95 289.242 1509.74 273.623 1477.74 261.358C1466.51 257.051 1452.74 253.508 1443.07 248.738C1444.1 257.542 1437.21 267.872 1427.97 275.967C1411.5 263.702 1380.54 243.777 1343.2 241.623C1313.38 239.906 1303.92 245.657 1278.14 236.308C1246.54 224.86 1231.39 205.889 1206.89 192.043C1182.3 204.309 1170.31 225.078 1161.15 240.124C1156.95 247.02 1157.85 256.37 1139.72 260.185C1118.14 264.765 1080.85 257.678 1060.52 262.938C1016.09 274.414 1027.32 304.451 991.064 318.052C976.918 323.367 957.538 322.195 943.828 326.202C932.625 329.5 933.061 333.889 927.283 338.931C907.058 356.594 827.658 359.865 840.523 376.873C854.37 395.19 811.658 405.193 758.643 398.761C738.173 396.28 720.974 392.219 704.292 393.963C685.785 395.898 678.698 404.375 654.33 400.805C631.516 397.452 611.564 377.473 592.756 370.876C575.884 364.962 557.404 359.538 534.535 357.875C518.971 379.544 483.81 385.922 431.149 393.146C416.894 395.108 396.042 397.834 386.338 402.495C379.524 405.766 379.551 411.353 372.056 414.869C361.616 419.776 346.325 421.547 332.533 424.737C312.962 429.288 308.656 431.96 298.625 439.128C274.639 456.246 245.556 461.615 201.699 471.428C169.1 478.733 39.0833 613.546 24.8823 626.575" fill="white"/>
<path d="M1861.44 361.064L1860.63 362.895L1860.63 362.896L1861.44 361.064ZM1788.44 332.771L1788.6 330.777L1788.6 330.777L1788.44 332.771ZM1745.51 340.512L1745.72 342.502L1745.72 342.502L1745.51 340.512ZM1702.69 332.335L1702.47 334.323L1702.47 334.323L1702.69 332.335ZM1648.59 343.865L1648.48 345.862L1648.48 345.862L1648.59 343.865ZM1611.44 330.89L1612.09 329L1612.09 329L1611.44 330.89ZM1555.34 303.851L1556.4 302.156L1556.4 302.155L1555.34 303.851ZM1477.74 261.358L1477.02 263.225L1477.02 263.225L1477.74 261.358ZM1443.07 248.738L1443.95 246.944L1440.65 245.317L1441.08 248.971L1443.07 248.738ZM1427.97 275.967L1426.77 277.571L1428.07 278.537L1429.29 277.472L1427.97 275.967ZM1343.2 241.623L1343.31 239.627L1343.31 239.627L1343.2 241.623ZM1278.14 236.308L1278.82 234.428L1278.82 234.428L1278.14 236.308ZM1206.89 192.043L1207.87 190.302L1206.94 189.779L1205.99 190.253L1206.89 192.043ZM1161.15 240.124L1162.86 241.164L1161.15 240.124ZM1139.72 260.185L1139.31 258.228L1139.31 258.229L1139.72 260.185ZM1060.52 262.938L1061.02 264.875L1061.02 264.875L1060.52 262.938ZM991.064 318.052L990.362 316.18L990.361 316.18L991.064 318.052ZM943.828 326.202L943.267 324.282L943.263 324.284L943.828 326.202ZM927.283 338.931L925.968 337.424L925.967 337.425L927.283 338.931ZM840.523 376.873L842.119 375.667L842.118 375.667L840.523 376.873ZM758.643 398.761L758.884 396.775L758.884 396.775L758.643 398.761ZM704.292 393.963L704.5 395.952H704.5L704.292 393.963ZM654.33 400.805L654.039 402.784L654.04 402.784L654.33 400.805ZM592.756 370.876L593.418 368.989L593.418 368.989L592.756 370.876ZM534.535 357.875L534.68 355.88L533.564 355.799L532.911 356.708L534.535 357.875ZM431.149 393.146L430.877 391.164L430.876 391.164L431.149 393.146ZM386.338 402.495L387.204 404.298L387.204 404.298L386.338 402.495ZM372.056 414.869L371.206 413.059L371.205 413.059L372.056 414.869ZM332.533 424.737L332.082 422.788L332.08 422.789L332.533 424.737ZM298.625 439.128L299.787 440.756L299.788 440.755L298.625 439.128ZM201.699 471.428L201.262 469.476L201.262 469.476L201.699 471.428ZM2136.65 626.548L2137.06 624.59C2136.73 624.521 2136.09 624.27 2135.07 623.689C2134.1 623.129 2132.9 622.337 2131.48 621.309C2128.65 619.254 2125.06 616.337 2120.8 612.661C2112.29 605.312 2101.23 595.024 2088.45 582.75C2062.91 558.208 2030.62 525.811 1998.48 493.319C1966.36 460.838 1934.37 428.259 1909.46 403.384C1897.01 390.947 1886.31 380.422 1878.23 372.789C1874.19 368.974 1870.8 365.866 1868.15 363.599C1866.83 362.466 1865.69 361.528 1864.73 360.811C1863.81 360.122 1862.95 359.544 1862.24 359.232L1861.44 361.064L1860.63 362.896C1860.89 363.008 1861.43 363.338 1862.33 364.01C1863.19 364.654 1864.26 365.53 1865.55 366.634C1868.12 368.84 1871.46 371.898 1875.48 375.696C1883.52 383.289 1894.19 393.783 1906.64 406.215C1931.54 431.078 1963.49 463.633 1995.64 496.132C2027.78 528.622 2060.09 561.053 2085.68 585.634C2098.47 597.923 2109.6 608.27 2118.19 615.688C2122.48 619.395 2126.17 622.395 2129.13 624.545C2130.61 625.62 2131.94 626.502 2133.08 627.159C2134.19 627.796 2135.28 628.304 2136.24 628.506L2136.65 626.548ZM1861.44 361.064L1862.24 359.233C1858.04 357.388 1853.08 354.845 1847.51 351.996C1841.97 349.158 1835.85 346.034 1829.42 343.077C1816.6 337.176 1802.36 331.855 1788.6 330.777L1788.44 332.771L1788.29 334.765C1801.32 335.786 1815.04 340.863 1827.75 346.711C1834.09 349.628 1840.14 352.715 1845.69 355.557C1851.22 358.387 1856.3 360.992 1860.63 362.895L1861.44 361.064ZM1788.44 332.771L1788.6 330.777C1778.32 329.975 1772.79 331.403 1767.09 333.314C1761.55 335.17 1756 337.418 1745.31 338.523L1745.51 340.512L1745.72 342.502C1756.92 341.344 1762.88 338.944 1768.36 337.107C1773.68 335.325 1778.66 334.014 1788.29 334.765L1788.44 332.771ZM1745.51 340.512L1745.31 338.523C1731.37 339.959 1726.68 338.521 1722.76 336.635C1720.79 335.687 1718.52 334.335 1715.58 333.194C1712.54 332.012 1708.66 330.976 1702.91 330.347L1702.69 332.335L1702.47 334.323C1707.93 334.92 1711.46 335.885 1714.13 336.922C1716.9 338 1718.63 339.085 1721.03 340.239C1725.85 342.558 1731.36 343.982 1745.72 342.502L1745.51 340.512ZM1702.69 332.335L1702.91 330.347C1693.37 329.302 1685.32 332.733 1677.12 335.974C1668.84 339.246 1660.14 342.47 1648.69 341.868L1648.59 343.865L1648.48 345.862C1660.86 346.513 1670.25 342.991 1678.59 339.694C1687.01 336.366 1694.1 333.406 1702.47 334.323L1702.69 332.335ZM1648.59 343.865L1648.69 341.868C1641.16 341.464 1634.52 339.15 1628.49 336.47C1625.47 335.124 1622.65 333.711 1619.92 332.39C1617.22 331.083 1614.6 329.867 1612.09 329L1611.44 330.89L1610.78 332.781C1613.05 333.563 1615.48 334.687 1618.18 335.991C1620.84 337.279 1623.77 338.745 1626.87 340.125C1633.1 342.896 1640.25 345.421 1648.48 345.862L1648.59 343.865ZM1611.44 330.89L1612.09 329C1588.57 320.882 1573.83 313.051 1556.4 302.156L1555.34 303.851L1554.28 305.547C1571.91 316.567 1586.92 324.545 1610.78 332.781L1611.44 330.89ZM1555.34 303.851L1556.4 302.155C1533.1 287.601 1510.68 271.843 1478.46 259.49L1477.74 261.358L1477.02 263.225C1508.8 275.404 1530.81 290.882 1554.28 305.548L1555.34 303.851ZM1477.74 261.358L1478.46 259.49C1472.79 257.316 1466.46 255.328 1460.45 253.324C1454.4 251.304 1448.66 249.262 1443.95 246.944L1443.07 248.738L1442.18 250.531C1447.16 252.983 1453.13 255.098 1459.19 257.118C1465.29 259.155 1471.46 261.093 1477.02 263.225L1477.74 261.358ZM1443.07 248.738L1441.08 248.971C1441.53 252.781 1440.27 257.119 1437.65 261.608C1435.03 266.074 1431.15 270.52 1426.65 274.463L1427.97 275.967L1429.29 277.472C1434.03 273.319 1438.21 268.552 1441.1 263.629C1443.97 258.727 1445.64 253.498 1445.05 248.504L1443.07 248.738ZM1427.97 275.967L1429.16 274.364C1412.62 262.035 1381.26 241.815 1343.31 239.627L1343.2 241.623L1343.08 243.62C1379.82 245.739 1410.39 265.368 1426.77 277.571L1427.97 275.967ZM1343.2 241.623L1343.31 239.627C1328.34 238.764 1318.24 239.775 1309.14 239.828C1300.03 239.881 1291.46 239.012 1278.82 234.428L1278.14 236.308L1277.45 238.189C1290.6 242.954 1299.65 243.884 1309.17 243.828C1318.7 243.772 1328.24 242.765 1343.08 243.62L1343.2 241.623ZM1278.14 236.308L1278.82 234.428C1263.28 228.796 1251.76 221.314 1241.03 213.461C1230.35 205.642 1220.26 197.302 1207.87 190.302L1206.89 192.043L1205.9 193.784C1218.02 200.63 1227.75 208.699 1238.67 216.689C1249.54 224.646 1261.41 232.373 1277.45 238.189L1278.14 236.308ZM1206.89 192.043L1205.99 190.253C1180.82 202.811 1168.57 224.092 1159.44 239.084L1161.15 240.124L1162.86 241.164C1172.05 226.065 1183.78 205.806 1207.78 193.832L1206.89 192.043ZM1161.15 240.124L1159.44 239.084C1158.29 240.973 1157.49 243.027 1156.73 244.866C1155.95 246.761 1155.17 248.52 1154.02 250.165C1151.81 253.328 1148.01 256.398 1139.31 258.228L1139.72 260.185L1140.14 262.143C1149.57 260.157 1154.38 256.644 1157.3 252.455C1158.72 250.424 1159.63 248.314 1160.43 246.397C1161.24 244.425 1161.91 242.724 1162.86 241.164L1161.15 240.124ZM1139.72 260.185L1139.31 258.229C1128.82 260.455 1114.39 259.854 1099.72 259.308C1085.27 258.77 1070.53 258.282 1060.01 261.002L1060.52 262.938L1061.02 264.875C1070.84 262.334 1084.91 262.759 1099.58 263.305C1114.03 263.843 1129.05 264.495 1140.14 262.142L1139.72 260.185ZM1060.52 262.938L1060.02 261.002C1048.67 263.932 1040.78 268.077 1034.76 272.921C1028.77 277.754 1024.74 283.209 1021.07 288.569C1013.76 299.26 1007.82 309.629 990.362 316.18L991.064 318.052L991.767 319.925C1010.56 312.874 1017.13 301.424 1024.37 290.827C1027.99 285.543 1031.75 280.488 1037.27 276.036C1042.78 271.596 1050.15 267.683 1061.02 264.875L1060.52 262.938ZM991.064 318.052L990.361 316.18C983.562 318.735 975.427 319.754 967.074 320.629C958.84 321.491 950.34 322.215 943.267 324.282L943.828 326.202L944.389 328.122C951.026 326.182 959.071 325.489 967.491 324.607C975.791 323.738 984.42 322.685 991.768 319.925L991.064 318.052ZM943.828 326.202L943.263 324.284C937.376 326.017 934.358 328.105 932.065 330.542C930.989 331.685 930.058 332.928 929.174 334.022C928.262 335.151 927.289 336.271 925.968 337.424L927.283 338.931L928.598 340.438C930.166 339.07 931.304 337.751 932.286 336.536C933.296 335.285 934.04 334.28 934.978 333.283C936.711 331.441 939.076 329.686 944.392 328.121L943.828 326.202ZM927.283 338.931L925.967 337.425C921.268 341.529 912.897 344.947 902.805 348.005C892.783 351.042 881.455 353.616 871.013 356.206C860.675 358.77 851.098 361.373 844.914 364.464C841.863 365.989 839.269 367.805 837.982 370.108C837.306 371.317 836.992 372.658 837.171 374.086C837.346 375.487 837.975 376.819 838.928 378.08L840.523 376.873L842.118 375.667C841.463 374.801 841.205 374.115 841.14 373.59C841.078 373.093 841.17 372.603 841.474 372.06C842.145 370.859 843.802 369.491 846.702 368.042C852.418 365.185 861.543 362.676 871.976 360.089C882.304 357.527 893.813 354.909 903.965 351.833C914.047 348.779 923.185 345.165 928.598 340.438L927.283 338.931ZM840.523 376.873L838.928 378.079C840.491 380.147 841.116 381.913 841.156 383.39C841.194 384.831 840.681 386.235 839.499 387.634C837.033 390.55 831.856 393.19 824.16 395.16C808.913 399.063 785.253 399.975 758.884 396.775L758.643 398.761L758.402 400.746C785.048 403.979 809.251 403.105 825.152 399.035C833.03 397.019 839.248 394.126 842.554 390.216C844.257 388.202 845.223 385.869 845.154 383.283C845.086 380.731 844.017 378.178 842.119 375.667L840.523 376.873ZM758.643 398.761L758.884 396.775C753.795 396.158 748.905 395.443 744.153 394.741C739.409 394.04 734.793 393.35 730.293 392.793C721.293 391.678 712.648 391.079 704.084 391.974L704.292 393.963L704.5 395.952C712.618 395.103 720.914 395.662 729.801 396.762C734.245 397.313 738.809 397.994 743.568 398.698C748.319 399.4 753.256 400.122 758.402 400.746L758.643 398.761ZM704.292 393.963L704.084 391.974C694.622 392.964 687.875 395.669 680.99 397.517C674.081 399.372 666.495 400.566 654.62 398.826L654.33 400.805L654.04 402.784C666.533 404.614 674.674 403.355 682.028 401.38C689.405 399.399 695.456 396.898 704.5 395.952L704.292 393.963ZM654.33 400.805L654.621 398.826C643.654 397.214 633.267 391.584 623.085 385.351C613.051 379.209 603.085 372.38 593.418 368.989L592.756 370.876L592.095 372.764C601.235 375.97 610.649 382.428 620.997 388.763C631.196 395.007 642.192 401.043 654.039 402.784L654.33 400.805ZM592.756 370.876L593.418 368.989C576.467 363.047 557.798 357.561 534.68 355.88L534.535 357.875L534.39 359.87C557.009 361.514 575.302 366.877 592.095 372.764L592.756 370.876ZM534.535 357.875L532.911 356.708C525.505 367.019 513.323 373.858 496.178 379.012C479.032 384.166 457.229 387.55 430.877 391.164L431.149 393.146L431.421 395.127C457.73 391.518 479.838 388.101 497.329 382.843C514.82 377.585 528.001 370.401 536.16 359.042L534.535 357.875ZM431.149 393.146L430.876 391.164C423.765 392.143 414.937 393.322 406.675 394.841C398.468 396.35 390.59 398.234 385.473 400.692L386.338 402.495L387.204 404.298C391.79 402.095 399.19 400.285 407.399 398.775C415.552 397.276 424.278 396.11 431.422 395.127L431.149 393.146ZM386.338 402.495L385.473 400.692C381.606 402.548 379.66 405.111 377.886 407.347C376.145 409.54 374.516 411.506 371.206 413.059L372.056 414.869L372.905 416.68C377.091 414.717 379.196 412.13 381.019 409.833C382.809 407.578 384.256 405.713 387.204 404.298L386.338 402.495ZM372.056 414.869L371.205 413.059C366.207 415.408 359.966 417.04 353.136 418.491C346.43 419.914 338.964 421.197 332.082 422.788L332.533 424.737L332.984 426.685C339.894 425.087 346.969 423.889 353.967 422.403C360.841 420.944 367.465 419.237 372.906 416.679L372.056 414.869ZM332.533 424.737L332.08 422.789C322.262 425.072 316.142 426.912 311.186 429.125C306.209 431.347 302.482 433.914 297.462 437.501L298.625 439.128L299.788 440.755C304.799 437.174 308.241 434.821 312.817 432.777C317.415 430.724 323.233 428.953 332.986 426.685L332.533 424.737ZM298.625 439.128L297.463 437.5C273.889 454.324 245.311 459.621 201.262 469.476L201.699 471.428L202.136 473.38C245.801 463.61 275.389 458.168 299.787 440.756L298.625 439.128ZM201.699 471.428L201.262 469.476C196.805 470.475 190.948 473.563 184.225 477.987C177.442 482.45 169.575 488.414 161.051 495.37C144 509.285 124.207 527.267 105.018 545.401C85.8229 563.541 67.2074 581.855 52.5078 596.445C37.7725 611.069 27.0419 621.88 23.5302 625.102L24.8823 626.575L26.2344 628.049C29.8232 624.756 40.67 613.829 55.3255 599.284C70.0168 584.703 88.6054 566.415 107.765 548.309C126.93 530.198 146.641 512.293 163.58 498.469C172.051 491.555 179.801 485.686 186.424 481.328C193.106 476.93 198.443 474.207 202.136 473.379L201.699 471.428Z" fill="white" mask="url(#path-7-inside-3_5489_242)"/>
</mask>
<g mask="url(#mask2_5489_242)">
<path d="M79.727 132.487L-764.834 821.6M109.955 132.487L-734.606 821.6M140.182 132.487L-704.378 821.6M170.41 132.487L-674.151 821.6M200.64 132.487L-643.92 821.6M230.868 132.487L-613.693 821.6M261.096 132.487L-583.465 821.6M291.324 132.487L-553.237 821.6M321.551 132.487L-523.01 821.6M351.779 132.487L-492.782 821.6M382.009 132.487L-462.552 821.6M412.236 132.487L-432.324 821.6M442.464 132.487L-402.096 821.6M472.692 132.487L-371.868 821.6M502.92 132.487L-341.64 821.6M533.148 132.487L-311.413 821.6M563.378 132.487L-281.183 821.6M593.606 132.487L-250.955 821.6M623.833 132.487L-220.701 821.6M654.06 132.487L-190.473 821.6M684.288 132.487L-160.245 821.6M714.518 132.487L-130.015 821.6M744.745 132.487L-99.7881 821.6M774.973 132.487L-69.56 821.6M805.202 132.487L-39.3319 821.6M835.429 132.487L-9.10443 821.6M865.657 132.487L21.1233 821.6M895.887 132.487L51.3536 821.6M926.115 132.487L81.5813 821.6M956.342 132.487L111.809 821.6M986.57 132.487L142.037 821.6M1016.8 132.487L172.265 821.6M1047.03 132.487L202.492 821.6M1077.26 132.487L232.722 821.6M1107.48 132.487L262.95 821.6M1137.71 132.487L293.177 821.6M1167.94 132.487L323.405 821.6M1198.17 132.487L353.633 821.6M1228.39 132.487L383.861 821.6M1258.65 132.487L414.088 821.6M1288.88 132.487L444.319 821.6M1319.11 132.487L474.546 821.6M1349.33 132.487L504.774 821.6M1379.56 132.487L535.002 821.6M1409.79 132.487L565.229 821.6M1440.02 132.487L595.457 821.6M1470.25 132.487L625.687 821.6M1500.48 132.487L655.915 821.6M1530.7 132.487L686.143 821.6M1560.93 132.487L716.371 821.6M1591.16 132.487L746.598 821.6M1621.39 132.487L776.826 821.6M1651.62 132.487L807.056 821.6M1681.84 132.487L837.284 821.6M1712.07 132.487L867.511 821.6M1742.3 132.487L897.739 821.6M1772.53 132.487L927.967 821.6M1802.76 132.487L958.195 821.6M1832.99 132.487L988.425 821.6M1863.21 132.487L1018.65 821.6M1893.44 132.487L1048.88 821.6M1923.67 132.487L1079.11 821.6M1953.9 132.487L1109.34 821.6M1984.12 132.487L1139.56 821.6M2014.35 132.487L1169.79 821.6M2044.58 132.487L1200.02 821.6M2074.81 132.487L1230.25 821.6M2105.04 132.487L1260.48 821.6M2135.27 132.487L1290.7 821.6M2165.49 132.487L1320.93 821.6M2195.72 132.487L1351.16 821.6M2225.95 132.487L1381.39 821.6M2256.18 132.487L1411.62 821.6M2286.41 132.487L1441.85 821.6M2316.63 132.487L1472.07 821.6M2346.86 132.487L1502.3 821.6M2377.09 132.487L1532.53 821.6M2407.32 132.487L1562.76 821.6M2437.55 132.487L1592.99 821.6M2467.77 132.487L1623.21 821.6M2498 132.487L1653.44 821.6M2528.23 132.487L1683.7 821.6M2558.46 132.487L1713.93 821.6M2588.69 132.487L1744.15 821.6M2618.91 132.487L1774.38 821.6M2649.14 132.487L1804.61 821.6M2679.37 132.487L1834.84 821.6M2709.6 132.487L1865.06 821.6M2739.83 132.487L1895.3 821.6M2770.06 132.487L1925.52 821.6M2800.28 132.487L1955.75 821.6M2830.51 132.487L1985.98 821.6" stroke="url(#paint2_linear_5489_242)" stroke-width="2" stroke-miterlimit="10"/>
</g>
<mask id="mask3_5489_242" style="mask-type:luminance" maskUnits="userSpaceOnUse" x="-102" y="454" width="1824" height="460">
<mask id="path-10-inside-4_5489_242" fill="white">
<path d="M1721.93 913.059C1678.32 610.38 1590.36 573.028 1532.69 565.673C1516.28 563.595 1503.5 571.589 1482.78 565.225C1457.92 557.583 1434.78 537.468 1409.7 531.072C1378.99 523.237 1354.67 540.186 1326.65 543.736C1273.94 550.451 1221.52 508.143 1177.34 485.63C1130.46 461.774 1080 440.444 1030.42 465.004C987.247 486.398 942.136 501.62 890.293 499.189C860.338 497.782 835.616 480.865 806.124 478.019C768.618 474.405 736.727 491.162 701.674 498.134C640.455 510.286 582.806 467.306 519.706 464.044C484.599 462.222 443.686 459.951 409.778 468.521C380.45 475.941 355.509 497.015 326.099 503.538C294.045 510.67 260.573 496.247 227.974 504.945C195.374 513.644 168.444 540.186 136.499 554.672C56.0086 591.224 -124.297 777.341 -98.839 913.027"/>
</mask>
<path d="M1721.93 913.059C1678.32 610.38 1590.36 573.028 1532.69 565.673C1516.28 563.595 1503.5 571.589 1482.78 565.225C1457.92 557.583 1434.78 537.468 1409.7 531.072C1378.99 523.237 1354.67 540.186 1326.65 543.736C1273.94 550.451 1221.52 508.143 1177.34 485.63C1130.46 461.774 1080 440.444 1030.42 465.004C987.247 486.398 942.136 501.62 890.293 499.189C860.338 497.782 835.616 480.865 806.124 478.019C768.618 474.405 736.727 491.162 701.674 498.134C640.455 510.286 582.806 467.306 519.706 464.044C484.599 462.222 443.686 459.951 409.778 468.521C380.45 475.941 355.509 497.015 326.099 503.538C294.045 510.67 260.573 496.247 227.974 504.945C195.374 513.644 168.444 540.186 136.499 554.672C56.0086 591.224 -124.297 777.341 -98.839 913.027" fill="white"/>
<path d="M1532.69 565.673L1532.94 563.689L1532.94 563.689L1532.69 565.673ZM1482.78 565.225L1482.19 567.137L1482.19 567.137L1482.78 565.225ZM1409.7 531.072L1410.2 529.134L1409.7 531.072ZM1326.65 543.736L1326.4 541.752L1326.4 541.752L1326.65 543.736ZM1177.34 485.63L1178.25 483.848L1178.24 483.848L1177.34 485.63ZM1030.42 465.004L1029.53 463.212L1029.53 463.212L1030.42 465.004ZM890.293 499.189L890.2 501.187L890.2 501.187L890.293 499.189ZM806.124 478.019L806.316 476.028L806.315 476.028L806.124 478.019ZM701.674 498.134L702.064 500.096L702.065 500.095L701.674 498.134ZM519.706 464.044L519.602 466.042L519.603 466.042L519.706 464.044ZM409.778 468.521L409.288 466.582L409.288 466.582L409.778 468.521ZM326.099 503.538L325.666 501.586L325.665 501.586L326.099 503.538ZM136.499 554.672L135.673 552.851L135.672 552.851L136.499 554.672ZM1721.93 913.059L1723.91 912.774C1702.09 761.312 1669.14 675.928 1634.21 627.45C1599.17 578.822 1562.21 567.422 1532.94 563.689L1532.69 565.673L1532.44 567.657C1560.84 571.279 1596.7 582.233 1630.96 629.789C1665.34 677.495 1698.17 762.127 1719.95 913.345L1721.93 913.059ZM1532.69 565.673L1532.94 563.689C1524.42 562.609 1516.75 564.15 1509.11 565.071C1501.41 565.998 1493.35 566.379 1483.37 563.314L1482.78 565.225L1482.19 567.137C1492.93 570.436 1501.62 570.001 1509.59 569.042C1517.62 568.075 1524.55 566.658 1532.44 567.657L1532.69 565.673ZM1482.78 565.225L1483.37 563.314C1471.19 559.569 1459.39 552.757 1447.31 545.939C1435.31 539.173 1423.03 532.408 1410.2 529.134L1409.7 531.072L1409.21 533.01C1421.45 536.132 1433.28 542.622 1445.34 549.423C1457.31 556.172 1469.51 563.239 1482.19 567.137L1482.78 565.225ZM1409.7 531.072L1410.2 529.134C1394.35 525.091 1380.19 527.468 1366.63 531.207C1352.94 534.983 1340.23 540 1326.4 541.752L1326.65 543.736L1326.9 545.72C1341.1 543.922 1354.55 538.689 1367.7 535.063C1380.98 531.398 1394.34 529.219 1409.21 533.01L1409.7 531.072ZM1326.65 543.736L1326.4 541.752C1300.64 545.034 1274.79 536.351 1249.69 523.853C1237.15 517.612 1224.86 510.456 1212.91 503.427C1200.98 496.412 1189.36 489.51 1178.25 483.848L1177.34 485.63L1176.43 487.412C1187.41 493.007 1198.91 499.836 1210.88 506.875C1222.83 513.901 1235.23 521.123 1247.9 527.434C1273.23 540.04 1299.95 549.153 1326.9 545.72L1326.65 543.736ZM1177.34 485.63L1178.24 483.848C1131.45 460.035 1080.11 438.158 1029.53 463.212L1030.42 465.004L1031.31 466.796C1079.89 442.73 1129.46 463.513 1176.43 487.413L1177.34 485.63ZM1030.42 465.004L1029.53 463.212C986.516 484.528 941.758 499.6 890.387 497.191L890.293 499.189L890.2 501.187C942.515 503.64 987.978 488.268 1031.31 466.796L1030.42 465.004ZM890.293 499.189L890.387 497.191C875.737 496.503 862.323 492.022 848.695 487.256C835.144 482.516 821.349 477.479 806.316 476.028L806.124 478.019L805.931 480.01C820.39 481.405 833.703 486.25 847.374 491.032C860.97 495.787 874.894 500.468 890.2 501.187L890.293 499.189ZM806.124 478.019L806.315 476.028C787.21 474.188 769.589 477.543 752.457 482.176C735.201 486.843 718.739 492.701 701.284 496.172L701.674 498.134L702.065 500.095C719.662 496.596 736.672 490.589 753.501 486.038C770.454 481.453 787.531 478.237 805.932 480.01L806.124 478.019ZM701.674 498.134L701.285 496.172C671.225 502.139 641.946 494.594 612.008 484.965C582.216 475.383 551.693 463.695 519.809 462.047L519.706 464.044L519.603 466.042C550.819 467.655 580.671 479.088 610.783 488.773C640.749 498.411 670.904 506.281 702.064 500.096L701.674 498.134ZM519.706 464.044L519.81 462.047C484.789 460.229 443.547 457.923 409.288 466.582L409.778 468.521L410.268 470.46C443.825 461.979 484.409 464.214 519.602 466.042L519.706 464.044ZM409.778 468.521L409.288 466.582C394.358 470.359 380.579 477.603 367.052 484.589C353.444 491.616 340.079 498.389 325.666 501.586L326.099 503.538L326.532 505.491C341.53 502.164 355.34 495.138 368.887 488.143C382.514 481.106 395.869 474.103 410.269 470.46L409.778 468.521ZM326.099 503.538L325.665 501.586C310.011 505.069 293.97 503.299 277.438 501.664C261.024 500.041 244.158 498.557 227.458 503.013L227.974 504.945L228.489 506.878C244.389 502.635 260.558 504.014 277.044 505.644C293.41 507.263 310.133 509.139 326.533 505.491L326.099 503.538ZM227.974 504.945L227.458 503.013C210.829 507.45 195.718 516.417 180.908 525.957C166.017 535.548 151.472 545.686 135.673 552.851L136.499 554.672L137.325 556.494C153.47 549.172 168.363 538.796 183.074 529.32C197.865 519.792 212.519 511.139 228.489 506.878L227.974 504.945ZM136.499 554.672L135.672 552.851C95.0064 571.318 29.5663 627.269 -22.4904 695.461C-48.5449 729.591 -71.3203 766.88 -85.9879 804.2C-100.651 841.508 -107.262 878.98 -100.805 913.396L-98.839 913.027L-96.8733 912.659C-103.145 879.232 -96.7648 842.556 -82.2651 805.663C-67.7703 768.783 -45.212 731.817 -19.311 697.888C32.5432 629.962 97.501 574.578 137.326 556.493L136.499 554.672Z" fill="white" mask="url(#path-10-inside-4_5489_242)"/>
</mask>
<g mask="url(#mask3_5489_242)">
<path d="M200.062 355.1L-644.499 1044.21M230.29 355.1L-614.271 1044.21M260.518 355.1L-584.043 1044.21M290.748 355.1L-553.813 1044.21M320.975 355.1L-523.585 1044.21M351.203 355.1L-493.358 1044.21M381.431 355.1L-463.13 1044.21M411.659 355.1L-432.902 1044.21M441.886 355.1L-402.675 1044.21M472.114 355.1L-372.447 1044.21M502.344 355.1L-342.217 1044.21M532.572 355.1L-311.989 1044.21M562.799 355.1L-281.761 1044.21M593.028 355.1L-251.533 1044.21M623.255 355.1L-221.306 1044.21M653.483 355.1L-191.078 1044.21M683.713 355.1L-160.848 1044.21M713.941 355.1L-130.62 1044.21M744.168 355.1L-100.393 1044.21M774.396 355.1L-70.1647 1044.21M804.624 355.1L-39.9365 1044.21M834.851 355.1L-9.70939 1044.21M865.082 355.1L20.521 1044.21M895.309 355.1L50.7486 1044.21M925.537 355.1L80.976 1044.21M955.765 355.1L111.204 1044.21M985.993 355.1L141.432 1044.21M1016.22 355.1L171.659 1044.21M1046.45 355.1L201.89 1044.21M1076.68 355.1L232.117 1044.21M1106.91 355.1L262.345 1044.21M1137.13 355.1L292.573 1044.21M1167.36 355.1L322.801 1044.21M1197.59 355.1L353.028 1044.21M1227.82 355.1L383.256 1044.21M1258.05 355.1L413.486 1044.21M1288.27 355.1L443.714 1044.21M1318.5 355.1L473.941 1044.21M1348.73 355.1L504.169 1044.21M1378.96 355.1L534.426 1044.21M1409.19 355.1L564.654 1044.21M1439.41 355.1L594.881 1044.21M1469.64 355.1L625.109 1044.21M1499.87 355.1L655.337 1044.21M1530.1 355.1L685.565 1044.21M1560.33 355.1L715.792 1044.21M1590.56 355.1L746.023 1044.21M1620.78 355.1L776.25 1044.21M1651.01 355.1L806.478 1044.21M1681.24 355.1L836.706 1044.21M1711.47 355.1L866.933 1044.21M1741.69 355.1L897.161 1044.21M1771.92 355.1L927.391 1044.21M1802.15 355.1L957.619 1044.21M1832.38 355.1L987.846 1044.21M1862.61 355.1L1018.07 1044.21M1892.84 355.1L1048.3 1044.21M1923.06 355.1L1078.53 1044.21M1953.29 355.1L1108.76 1044.21M1983.52 355.1L1138.99 1044.21M2013.78 355.1L1169.22 1044.21M2044 355.1L1199.44 1044.21M2074.23 355.1L1229.67 1044.21M2104.46 355.1L1259.9 1044.21M2134.69 355.1L1290.13 1044.21M2164.92 355.1L1320.36 1044.21M2195.14 355.1L1350.58 1044.21M2225.37 355.1L1380.81 1044.21M2255.6 355.1L1411.04 1044.21M2285.83 355.1L1441.27 1044.21M2316.06 355.1L1471.49 1044.21M2346.29 355.1L1501.73 1044.21M2376.51 355.1L1531.95 1044.21M2406.74 355.1L1562.18 1044.21M2436.97 355.1L1592.41 1044.21M2467.2 355.1L1622.64 1044.21M2497.42 355.1L1652.86 1044.21M2527.65 355.1L1683.09 1044.21M2557.88 355.1L1713.32 1044.21M2588.11 355.1L1743.55 1044.21M2618.34 355.1L1773.78 1044.21M2648.57 355.1L1804 1044.21M2678.79 355.1L1834.23 1044.21M2709.02 355.1L1864.46 1044.21M2739.25 355.1L1894.69 1044.21M2769.48 355.1L1924.92 1044.21M2799.71 355.1L1955.15 1044.21M2829.93 355.1L1985.37 1044.21M2860.16 355.1L2015.6 1044.21M2890.39 355.1L2045.83 1044.21M2920.62 355.1L2076.06 1044.21M2950.85 355.1L2106.29 1044.21M-182.409 255.176H2288.88V1171.48H-182.409V255.176Z" stroke="url(#paint3_linear_5489_242)" stroke-width="2" stroke-miterlimit="10"/>
</g>
<rect x="-3" y="33" width="1112" height="638" fill="url(#paint4_linear_5489_242)"/>
</g>
<defs>
<linearGradient id="paint0_linear_5489_242" x1="575.627" y1="32.3461" x2="575.627" y2="425.289" gradientUnits="userSpaceOnUse">
<stop offset="0.0865385" stop-color="#1F3131"/>
<stop offset="0.192308" stop-color="#183B39"/>
<stop offset="0.293269" stop-color="#006155"/>
<stop offset="0.615385" stop-color="#98C441"/>
<stop offset="0.980769" stop-color="#98C441" stop-opacity="0"/>
</linearGradient>
<linearGradient id="paint1_linear_5489_242" x1="-37.0615" y1="191.355" x2="-37.0615" y2="625.175" gradientUnits="userSpaceOnUse">
<stop stop-color="#006155"/>
<stop offset="0.240385" stop-color="#98C441"/>
<stop offset="0.701923" stop-color="#98C441" stop-opacity="0"/>
</linearGradient>
<linearGradient id="paint2_linear_5489_242" x1="1111.94" y1="191.355" x2="1111.94" y2="625.175" gradientUnits="userSpaceOnUse">
<stop stop-color="#006155"/>
<stop offset="0.240385" stop-color="#98C441"/>
<stop offset="0.701923" stop-color="#98C441" stop-opacity="0"/>
</linearGradient>
<linearGradient id="paint3_linear_5489_242" x1="1232.27" y1="453.417" x2="1232.27" y2="911.991" gradientUnits="userSpaceOnUse">
<stop stop-color="#006155"/>
<stop offset="0.115385" stop-color="#98C441"/>
<stop offset="0.552885" stop-color="#98C441" stop-opacity="0"/>
</linearGradient>
<linearGradient id="paint4_linear_5489_242" x1="-3" y1="352" x2="1261.86" y2="352" gradientUnits="userSpaceOnUse">
<stop offset="0.25" stop-color="#1F3131"/>
<stop offset="1" stop-color="#1F3131" stop-opacity="0"/>
</linearGradient>
<clipPath id="clip0_5489_242">
<rect width="1440" height="556" fill="white"/>
</clipPath>
</defs>
</svg>
